999
dxfrw 0.6.3
  0
SECTION
  2
HEADER
  9
$ACADVER
  1
AC1021
  9
$DWGCODEPAGE
  3
ANSI_1252
  9
$INSBASE
 10
0
 20
0
 30
0
  9
$EXTMIN
 10
0.4314703031101002
 20
-3.766826442323353
 30
0
  9
$EXTMAX
 10
62.9314703031101
 20
74.73317355767665
 30
0
  9
$LIMMIN
 10
0
 20
0
  9
$LIMMAX
 10
420
 20
297
  9
$ORTHOMODE
 70
    0
  9
$REGENMODE
 70
    1
  9
$FILLMODE
 70
    1
  9
$QTEXTMODE
 70
    0
  9
$MIRRTEXT
 70
    0
  9
$LTSCALE
 40
1
  9
$ATTMODE
 70
    0
  9
$TEXTSIZE
 40
2.5
  9
$TRACEWID
 40
15.68
  9
$TEXTSTYLE
  7
STANDARD
  9
$CLAYER
  8
exit
  9
$CELTYPE
  6
BYLAYER
  9
$CECOLOR
 62
  256
  9
$CELTSCALE
 40
1
  9
$DISPSILH
 70
    0
  9
$DIMSCALE
 40
2.5
  9
$DIMASZ
 40
2.5
  9
$DIMEXO
 40
0.000625
  9
$DIMDLI
 40
3.75
  9
$DIMRND
 40
0
  9
$DIMDLE
 40
0
  9
$DIMEXE
 40
1.25
  9
$DIMTP
 40
0
  9
$DIMTM
 40
0
  9
$DIMTXT
 40
2.5
  9
$DIMCEN
 40
2.5
  9
$DIMTSZ
 40
0
  9
$DIMTOL
 70
    0
  9
$DIMLIM
 70
    0
  9
$DIMTIH
 70
    0
  9
$DIMTOH
 70
    0
  9
$DIMSE1
 70
    0
  9
$DIMSE2
 70
    0
  9
$DIMTAD
 70
    1
  9
$DIMZIN
 70
    8
  9
$DIMBLK
  1

  9
$DIMASO
 70
    1
  9
$DIMSHO
 70
    1
  9
$DIMPOST
  1

  9
$DIMAPOST
  1

  9
$DIMALT
 70
    0
  9
$DIMALTD
 70
    3
  9
$DIMALTF
 40
0.03937
  9
$DIMLFAC
 40
1
  9
$DIMTOFL
 70
    1
  9
$DIMTVP
 40
0
  9
$DIMTIX
 70
    0
  9
$DIMSOXD
 70
    0
  9
$DIMSAH
 70
    0
  9
$DIMBLK1
  1

  9
$DIMBLK2
  1

  9
$DIMSTYLE
  2
STANDARD
  9
$DIMCLRD
 70
    0
  9
$DIMCLRE
 70
    0
  9
$DIMCLRT
 70
    0
  9
$DIMTFAC
 40
1
  9
$DIMGAP
 40
0.625
  9
$DIMJUST
 70
    0
  9
$DIMSD1
 70
    0
  9
$DIMSD2
 70
    0
  9
$DIMTOLJ
 70
    0
  9
$DIMTZIN
 70
    8
  9
$DIMALTZ
 70
    0
  9
$DIMALTTZ
 70
    0
  9
$DIMUPT
 70
    0
  9
$DIMDEC
 70
    4
  9
$DIMTDEC
 70
    2
  9
$DIMALTU
 70
    2
  9
$DIMALTTD
 70
    3
  9
$DIMTXSTY
  7
STANDARD
  9
$DIMAUNIT
 70
    0
  9
$DIMADEC
 70
    2
  9
$DIMALTRND
 40
0
  9
$DIMAZIN
 70
    0
  9
$DIMDSEP
 70
    0
  9
$DIMATFIT
 70
    3
  9
$DIMFRAC
 70
    0
  9
$DIMLDRBLK
  1
STANDARD
  9
$DIMLUNIT
 70
    2
  9
$DIMLWD
 70
   -2
  9
$DIMLWE
 70
   -2
  9
$DIMTMOVE
 70
    0
  9
$DIMFXL
 40
1
  9
$DIMFXLON
 70
    0
  9
$DIMJOGANG
 40
0.7854
  9
$DIMTFILL
 70
    0
  9
$DIMTFILLCLR
 70
    0
  9
$DIMARCSYM
 70
    0
  9
$DIMLTYPE
  6

  9
$DIMLTEX1
  6

  9
$DIMLTEX2
  6

  9
$LUNITS
 70
    2
  9
$LUPREC
 70
    4
  9
$SKETCHINC
 40
1
  9
$FILLETRAD
 40
0
  9
$AUNITS
 70
    0
  9
$AUPREC
 70
    2
  9
$MENU
  1
.
  9
$ELEVATION
 40
0
  9
$PELEVATION
 40
0
  9
$THICKNESS
 40
0
  9
$LIMCHECK
 70
    0
  9
$CHAMFERA
 40
0
  9
$CHAMFERB
 40
0
  9
$CHAMFERC
 40
0
  9
$CHAMFERD
 40
0
  9
$SKPOLY
 70
    0
  9
$USRTIMER
 70
    1
  9
$ANGBASE
 50
0
  9
$ANGDIR
 70
    0
  9
$PDMODE
 70
   34
  9
$PDSIZE
 40
0
  9
$PLINEWID
 40
0
  9
$SPLFRAME
 70
    0
  9
$SPLINETYPE
 70
    2
  9
$SPLINESEGS
 70
    8
  9
$HANDSEED
  5
20000
  9
$SURFTAB1
 70
    6
  9
$SURFTAB2
 70
    6
  9
$SURFTYPE
 70
    6
  9
$SURFU
 70
    6
  9
$SURFV
 70
    6
  9
$UCSBASE
  2

  9
$UCSNAME
  2

  9
$UCSORG
 10
0
 20
0
 30
0
  9
$UCSXDIR
 10
1
 20
0
 30
0
  9
$UCSYDIR
 10
0
 20
1
 30
0
  9
$UCSORTHOREF
  2

  9
$UCSORTHOVIEW
 70
    0
  9
$UCSORGTOP
 10
0
 20
0
 30
0
  9
$UCSORGBOTTOM
 10
0
 20
0
 30
0
  9
$UCSORGLEFT
 10
0
 20
0
 30
0
  9
$UCSORGRIGHT
 10
0
 20
0
 30
0
  9
$UCSORGFRONT
 10
0
 20
0
 30
0
  9
$UCSORGBACK
 10
0
 20
0
 30
0
  9
$PUCSBASE
  2

  9
$PUCSNAME
  2

  9
$PUCSORG
 10
0
 20
0
 30
0
  9
$PUCSXDIR
 10
1
 20
0
 30
0
  9
$PUCSYDIR
 10
0
 20
1
 30
0
  9
$PUCSORTHOREF
  2

  9
$PUCSORTHOVIEW
 70
    0
  9
$PUCSORGTOP
 10
0
 20
0
 30
0
  9
$PUCSORGBOTTOM
 10
0
 20
0
 30
0
  9
$PUCSORGLEFT
 10
0
 20
0
 30
0
  9
$PUCSORGRIGHT
 10
0
 20
0
 30
0
  9
$PUCSORGFRONT
 10
0
 20
0
 30
0
  9
$PUCSORGBACK
 10
0
 20
0
 30
0
  9
$USERI1
 70
    0
  9
$USERI2
 70
    0
  9
$USERI3
 70
    0
  9
$USERI4
 70
    0
  9
$USERI5
 70
    0
  9
$USERR1
 40
0
  9
$USERR2
 40
0
  9
$USERR3
 40
0
  9
$USERR4
 40
0
  9
$USERR5
 40
0
  9
$WORLDVIEW
 70
    1
  9
$SHADEDGE
 70
    3
  9
$SHADEDIF
 70
   70
  9
$TILEMODE
 70
    1
  9
$MAXACTVP
 70
   64
  9
$PINSBASE
 10
0
 20
0
 30
0
  9
$PLIMCHECK
 70
    0
  9
$PEXTMIN
 10
0
 20
0
 30
0
  9
$PEXTMAX
 10
0
 20
0
 30
0
  9
$GRIDMODE
 70
    1
  9
$SNAPSTYLE
 70
    0
  9
$PLIMMIN
 10
0
 20
0
  9
$PLIMMAX
 10
297
 20
210
  9
$UNITMODE
 70
    0
  9
$VISRETAIN
 70
    1
  9
$PLINEGEN
 70
    0
  9
$PSLTSCALE
 70
    1
  9
$TREEDEPTH
 70
 3020
  9
$CMLSTYLE
  2
Standard
  9
$CMLJUST
 70
    0
  9
$CMLSCALE
 40
20
  9
$PROXYGRAPHICS
 70
    1
  9
$MEASUREMENT
 70
    1
  9
$CELWEIGHT
370
   -1
  9
$ENDCAPS
280
    0
  9
$JOINSTYLE
280
    0
  9
$LWDISPLAY
290
    0
  9
$INSUNITS
 70
    0
  9
$HYPERLINKBASE
  1

  9
$STYLESHEET
  1

  9
$XEDIT
290
    1
  9
$CEPSNTYPE
380
    0
  9
$PSTYLEMODE
290
    1
  9
$EXTNAMES
290
    1
  9
$PSVPSCALE
 40
0
  9
$OLESTARTUP
290
    0
  9
$SORTENTS
280
  127
  9
$INDEXCTL
280
    0
  9
$HIDETEXT
280
    1
  9
$XCLIPFRAME
290
    0
  9
$HALOGAP
280
    0
  9
$OBSCOLOR
 70
  257
  9
$OBSLTYPE
280
    0
  9
$INTERSECTIONDISPLAY
280
    0
  9
$INTERSECTIONCOLOR
 70
  257
  9
$DIMASSOC
280
    1
  9
$PROJECTNAME
  1

  9
$CAMERADISPLAY
290
    0
  9
$LENSLENGTH
 40
50
  9
$CAMERAHEIGHT
 40
0
  9
$STEPSPERSEC
 40
2
  9
$STEPSIZE
 40
50
  9
$3DDWFPREC
 40
2
  9
$PSOLWIDTH
 40
5
  9
$PSOLHEIGHT
 40
80
  9
$LOFTANG1
 40
1.570796326794897
  9
$LOFTANG2
 40
1.570796326794897
  9
$LOFTMAG1
 40
0
  9
$LOFTMAG2
 40
0
  9
$LOFTPARAM
 70
    7
  9
$LOFTNORMALS
280
    1
  9
$LATITUDE
 40
1
  9
$LONGITUDE
 40
1
  9
$NORTHDIRECTION
 40
0
  9
$TIMEZONE
 70
-8000
  9
$LIGHTGLYPHDISPLAY
280
    1
  9
$TILEMODELIGHTSYNCH
280
    1
  9
$SOLIDHIST
280
    1
  9
$SHOWHIST
280
    1
  9
$DWFFRAME
280
    2
  9
$DGNFRAME
280
    0
  9
$REALWORLDSCALE
290
    1
  9
$INTERFERECOLOR
 62
    1
  9
$CSHADOW
280
    0
  9
$SHADOWPLANELOCATION
 40
0
  0
ENDSEC
  0
SECTION
  2
CLASSES
  0
ENDSEC
  0
SECTION
  2
TABLES
  0
TABLE
  2
VPORT
  5
8
330
0
100
AcDbSymbolTable
 70
    1
  0
VPORT
  5
31
330
2
100
AcDbSymbolTableRecord
100
AcDbViewportTableRecord
  2
*ACTIVE
 70
    0
 10
0
 20
0
 11
1
 21
1
 12
57.65216745935233
 22
43.353615777024
 13
0
 23
0
 14
10
 24
10
 15
10
 25
10
 16
0
 26
0
 36
1
 17
0
 27
0
 37
0
 40
82.53470045813724
 41
1.955610357583231
 42
50
 43
0
 44
0
 50
0
 51
0
 71
    0
 72
  100
 73
    1
 74
    3
 75
    0
 76
    1
 77
    0
 78
    0
281
    0
 65
    1
110
0
120
0
130
0
111
1
121
0
131
0
112
0
122
1
132
0
 79
    0
146
0
348
10020
 60
    7
 61
    5
292
1
282
    1
141
0
142
0
 63
  250
421
3358443
  0
ENDTAB
  0
TABLE
  2
LTYPE
  5
5
330
0
100
AcDbSymbolTable
 70
    4
  0
LTYPE
  5
14
330
5
100
AcDbSymbolTableRecord
100
AcDbLinetypeTableRecord
  2
ByBlock
 70
    0
  3

 72
   65
 73
    0
 40
0
  0
LTYPE
  5
15
330
5
100
AcDbSymbolTableRecord
100
AcDbLinetypeTableRecord
  2
ByLayer
 70
    0
  3

 72
   65
 73
    0
 40
0
  0
LTYPE
  5
16
330
5
100
AcDbSymbolTableRecord
100
AcDbLinetypeTableRecord
  2
Continuous
 70
    0
  3
Solid line
 72
   65
 73
    0
 40
0
  0
LTYPE
  5
32
330
5
100
AcDbSymbolTableRecord
100
AcDbLinetypeTableRecord
  2
DOT
 70
    0
  3
Dot . . . . . . . . . . . . . . . . . . . . . .
 72
   65
 73
    2
 40
6.35
 49
0
 74
    0
 49
-6.35
 74
    0
  0
LTYPE
  5
33
330
5
100
AcDbSymbolTableRecord
100
AcDbLinetypeTableRecord
  2
DOTTINY
 70
    0
  3
Dot (.15x) .....................................
 72
   65
 73
    2
 40
0.9525
 49
0
 74
    0
 49
-0.9525
 74
    0
  0
LTYPE
  5
34
330
5
100
AcDbSymbolTableRecord
100
AcDbLinetypeTableRecord
  2
DOT2
 70
    0
  3
Dot (.5x) .....................................
 72
   65
 73
    2
 40
3.175
 49
0
 74
    0
 49
-3.175
 74
    0
  0
LTYPE
  5
35
330
5
100
AcDbSymbolTableRecord
100
AcDbLinetypeTableRecord
  2
DOTX2
 70
    0
  3
Dot (2x) .  .  .  .  .  .  .  .  .  .  .  .  .
 72
   65
 73
    2
 40
12.7
 49
0
 74
    0
 49
-12.7
 74
    0
  0
LTYPE
  5
36
330
5
100
AcDbSymbolTableRecord
100
AcDbLinetypeTableRecord
  2
DASHED
 70
    0
  3
Dashed _ _ _ _ _ _ _ _ _ _ _ _ _ _ _ _ _
 72
   65
 73
    2
 40
19.05
 49
12.7
 74
    0
 49
-6.35
 74
    0
  0
LTYPE
  5
37
330
5
100
AcDbSymbolTableRecord
100
AcDbLinetypeTableRecord
  2
DASHEDTINY
 70
    0
  3
Dashed (.15x) _ _ _ _ _ _ _ _ _ _ _ _ _ _ _ _ _
 72
   65
 73
    2
 40
2.8575
 49
1.905
 74
    0
 49
-0.9525
 74
    0
  0
LTYPE
  5
38
330
5
100
AcDbSymbolTableRecord
100
AcDbLinetypeTableRecord
  2
DASHED2
 70
    0
  3
Dashed (.5x) _ _ _ _ _ _ _ _ _ _ _ _ _ _ _ _ _
 72
   65
 73
    2
 40
9.524999999999999
 49
6.35
 74
    0
 49
-3.175
 74
    0
  0
LTYPE
  5
39
330
5
100
AcDbSymbolTableRecord
100
AcDbLinetypeTableRecord
  2
DASHEDX2
 70
    0
  3
Dashed (2x) ____  ____  ____  ____  ____  ___
 72
   65
 73
    2
 40
38.09999999999999
 49
25.4
 74
    0
 49
-12.7
 74
    0
  0
LTYPE
  5
3A
330
5
100
AcDbSymbolTableRecord
100
AcDbLinetypeTableRecord
  2
DASHDOT
 70
    0
  3
Dash dot __ . __ . __ . __ . __ . __ . __ . __
 72
   65
 73
    4
 40
25.4
 49
12.7
 74
    0
 49
-6.35
 74
    0
 49
0
 74
    0
 49
-6.35
 74
    0
  0
LTYPE
  5
3B
330
5
100
AcDbSymbolTableRecord
100
AcDbLinetypeTableRecord
  2
DASHDOTTINY
 70
    0
  3
Dash dot (.15x) _._._._._._._._._._._._._._._.
 72
   65
 73
    4
 40
3.81
 49
1.905
 74
    0
 49
-0.9525
 74
    0
 49
0
 74
    0
 49
-0.9525
 74
    0
  0
LTYPE
  5
3C
330
5
100
AcDbSymbolTableRecord
100
AcDbLinetypeTableRecord
  2
DASHDOT2
 70
    0
  3
Dash dot (.5x) _._._._._._._._._._._._._._._.
 72
   65
 73
    4
 40
12.7
 49
6.35
 74
    0
 49
-3.175
 74
    0
 49
0
 74
    0
 49
-3.175
 74
    0
  0
LTYPE
  5
3D
330
5
100
AcDbSymbolTableRecord
100
AcDbLinetypeTableRecord
  2
DASHDOTX2
 70
    0
  3
Dash dot (2x) ____  .  ____  .  ____  .  ___
 72
   65
 73
    4
 40
50.8
 49
25.4
 74
    0
 49
-12.7
 74
    0
 49
0
 74
    0
 49
-12.7
 74
    0
  0
LTYPE
  5
3E
330
5
100
AcDbSymbolTableRecord
100
AcDbLinetypeTableRecord
  2
DIVIDE
 70
    0
  3
Divide ____ . . ____ . . ____ . . ____ . . ____
 72
   65
 73
    6
 40
31.75
 49
12.7
 74
    0
 49
-6.35
 74
    0
 49
0
 74
    0
 49
-6.35
 74
    0
 49
0
 74
    0
 49
-6.35
 74
    0
  0
LTYPE
  5
3F
330
5
100
AcDbSymbolTableRecord
100
AcDbLinetypeTableRecord
  2
DIVIDETINY
 70
    0
  3
Divide (.15x) __..__..__..__..__..__..__..__.._
 72
   65
 73
    6
 40
4.7625
 49
1.905
 74
    0
 49
-0.9525
 74
    0
 49
0
 74
    0
 49
-0.9525
 74
    0
 49
0
 74
    0
 49
-0.9525
 74
    0
  0
LTYPE
  5
40
330
5
100
AcDbSymbolTableRecord
100
AcDbLinetypeTableRecord
  2
DIVIDE2
 70
    0
  3
Divide (.5x) __..__..__..__..__..__..__..__.._
 72
   65
 73
    6
 40
15.875
 49
6.35
 74
    0
 49
-3.175
 74
    0
 49
0
 74
    0
 49
-3.175
 74
    0
 49
0
 74
    0
 49
-3.175
 74
    0
  0
LTYPE
  5
41
330
5
100
AcDbSymbolTableRecord
100
AcDbLinetypeTableRecord
  2
DIVIDEX2
 70
    0
  3
Divide (2x) ________  .  .  ________  .  .  _
 72
   65
 73
    6
 40
63.5
 49
25.4
 74
    0
 49
-12.7
 74
    0
 49
0
 74
    0
 49
-12.7
 74
    0
 49
0
 74
    0
 49
-12.7
 74
    0
  0
LTYPE
  5
42
330
5
100
AcDbSymbolTableRecord
100
AcDbLinetypeTableRecord
  2
BORDER
 70
    0
  3
Border __ __ . __ __ . __ __ . __ __ . __ __ .
 72
   65
 73
    6
 40
44.45
 49
12.7
 74
    0
 49
-6.35
 74
    0
 49
12.7
 74
    0
 49
-6.35
 74
    0
 49
0
 74
    0
 49
-6.35
 74
    0
  0
LTYPE
  5
43
330
5
100
AcDbSymbolTableRecord
100
AcDbLinetypeTableRecord
  2
BORDERTINY
 70
    0
  3
Border (.15x) __.__.__.__.__.__.__.__.__.__.__.
 72
   65
 73
    6
 40
6.6675
 49
1.905
 74
    0
 49
-0.9525
 74
    0
 49
1.905
 74
    0
 49
-0.9525
 74
    0
 49
0
 74
    0
 49
-0.9525
 74
    0
  0
LTYPE
  5
44
330
5
100
AcDbSymbolTableRecord
100
AcDbLinetypeTableRecord
  2
BORDER2
 70
    0
  3
Border (.5x) __.__.__.__.__.__.__.__.__.__.__.
 72
   65
 73
    6
 40
22.225
 49
6.35
 74
    0
 49
-3.175
 74
    0
 49
6.35
 74
    0
 49
-3.175
 74
    0
 49
0
 74
    0
 49
-3.175
 74
    0
  0
LTYPE
  5
45
330
5
100
AcDbSymbolTableRecord
100
AcDbLinetypeTableRecord
  2
BORDERX2
 70
    0
  3
Border (2x) ____  ____  .  ____  ____  .  ___
 72
   65
 73
    6
 40
88.89999999999999
 49
25.4
 74
    0
 49
-12.7
 74
    0
 49
25.4
 74
    0
 49
-12.7
 74
    0
 49
0
 74
    0
 49
-12.7
 74
    0
  0
LTYPE
  5
46
330
5
100
AcDbSymbolTableRecord
100
AcDbLinetypeTableRecord
  2
CENTER
 70
    0
  3
Center ____ _ ____ _ ____ _ ____ _ ____ _ ____
 72
   65
 73
    4
 40
50.8
 49
31.75
 74
    0
 49
-6.35
 74
    0
 49
6.35
 74
    0
 49
-6.35
 74
    0
  0
LTYPE
  5
47
330
5
100
AcDbSymbolTableRecord
100
AcDbLinetypeTableRecord
  2
CENTERTINY
 70
    0
  3
Center (.15x) ___ _ ___ _ ___ _ ___ _ ___ _ ___
 72
   65
 73
    4
 40
7.62
 49
4.7625
 74
    0
 49
-0.9525
 74
    0
 49
0.9525
 74
    0
 49
-0.9525
 74
    0
  0
LTYPE
  5
48
330
5
100
AcDbSymbolTableRecord
100
AcDbLinetypeTableRecord
  2
CENTER2
 70
    0
  3
Center (.5x) ___ _ ___ _ ___ _ ___ _ ___ _ ___
 72
   65
 73
    4
 40
28.575
 49
19.05
 74
    0
 49
-3.175
 74
    0
 49
3.175
 74
    0
 49
-3.175
 74
    0
  0
LTYPE
  5
49
330
5
100
AcDbSymbolTableRecord
100
AcDbLinetypeTableRecord
  2
CENTERX2
 70
    0
  3
Center (2x) ________  __  ________  __  _____
 72
   65
 73
    4
 40
101.6
 49
63.5
 74
    0
 49
-12.7
 74
    0
 49
12.7
 74
    0
 49
-12.7
 74
    0
  0
ENDTAB
  0
TABLE
  2
LAYER
  5
2
330
0
100
AcDbSymbolTable
 70
    1
  0
LAYER
  5
10
330
2
100
AcDbSymbolTableRecord
100
AcDbLayerTableRecord
  2
0
 70
    4
 62
    7
  6
CONTINUOUS
370
    0
390
F
  0
LAYER
  5
4A
330
2
100
AcDbSymbolTableRecord
100
AcDbLayerTableRecord
  2
exhibit
 70
    4
 62
    6
  6
CONTINUOUS
370
    0
390
F
  0
LAYER
  5
4B
330
2
100
AcDbSymbolTableRecord
100
AcDbLayerTableRecord
  2
exit
 70
    0
 62
    1
  6
CONTINUOUS
370
    0
390
F
  0
LAYER
  5
4C
330
2
100
AcDbSymbolTableRecord
100
AcDbLayerTableRecord
  2
obstacles
 70
    4
 62
    5
  6
CONTINUOUS
370
   -3
390
F
  0
LAYER
  5
4D
330
2
100
AcDbSymbolTableRecord
100
AcDbLayerTableRecord
  2
spawns
 70
    4
 62
    3
  6
CONTINUOUS
370
    0
390
F
  0
LAYER
  5
4E
330
2
100
AcDbSymbolTableRecord
100
AcDbLayerTableRecord
  2
viewing_area
 70
    4
 62
    4
  6
CONTINUOUS
370
    0
390
F
  0
ENDTAB
  0
TABLE
  2
STYLE
  5
3
330
0
100
AcDbSymbolTable
 70
    3
  0
STYLE
  5
4F
330
2
100
AcDbSymbolTableRecord
100
AcDbTextStyleTableRecord
  2
Standard
 70
    0
 40
0
 41
1
 50
0
 71
    0
 42
1
  3
txt
  4

  0
ENDTAB
  0
TABLE
  2
VIEW
  5
6
330
0
100
AcDbSymbolTable
 70
    0
  0
ENDTAB
  0
TABLE
  2
UCS
  5
7
330
0
100
AcDbSymbolTable
 70
    0
  0
ENDTAB
  0
TABLE
  2
APPID
  5
9
330
0
100
AcDbSymbolTable
 70
    1
  0
APPID
  5
12
330
9
100
AcDbSymbolTableRecord
100
AcDbRegAppTableRecord
  2
ACAD
 70
    0
  0
APPID
  5
50
330
9
100
AcDbSymbolTableRecord
100
AcDbRegAppTableRecord
  2
LibreCad
 70
    0
  0
ENDTAB
  0
TABLE
  2
DIMSTYLE
  5
A
330
0
100
AcDbSymbolTable
 70
    1
100
AcDbDimStyleTable
 71
    1
  0
DIMSTYLE
105
51
330
A
100
AcDbSymbolTableRecord
100
AcDbDimStyleTableRecord
  2
Standard
 70
    0
 40
2.5
 41
2.5
 42
0.000625
 43
0.38
 44
1.25
 45
0
 46
0
 47
0
 48
0
 49
1
140
2.5
141
0.09
142
0
143
25.4
144
1
145
0
146
1
147
0.625
148
0
 71
    0
 72
    0
 73
    0
 74
    1
 75
    0
 76
    0
 77
    0
 78
    8
 79
    0
170
    0
171
    2
172
    0
173
    0
174
    0
175
    0
176
    0
177
    0
178
    0
179
    2
271
    4
272
    4
273
    2
274
    2
275
    0
276
    0
277
    2
278
    0
279
    0
280
    0
281
    0
282
    0
283
    1
284
    0
285
    0
286
    0
288
    0
289
    3
340
STANDARD
341

371
   -2
372
   -2
  0
ENDTAB
  0
TABLE
  2
BLOCK_RECORD
  5
1
330
0
100
AcDbSymbolTable
 70
    2
  0
BLOCK_RECORD
  5
1F
330
1
100
AcDbSymbolTableRecord
100
AcDbBlockTableRecord
  2
*Model_Space
 70
    0
280
    1
281
    0
  0
BLOCK_RECORD
  5
1E
330
1
100
AcDbSymbolTableRecord
100
AcDbBlockTableRecord
  2
*Paper_Space
 70
    0
280
    1
281
    0
  0
ENDTAB
  0
ENDSEC
  0
SECTION
  2
BLOCKS
  0
BLOCK
  5
20
330
1F
100
AcDbEntity
  8
0
100
AcDbBlockBegin
  2
*Model_Space
 70
    0
 10
0
 20
0
 30
0
  3
*Model_Space
  1

  0
ENDBLK
  5
21
330
1F
100
AcDbEntity
  8
0
100
AcDbBlockEnd
  0
BLOCK
  5
1C
330
1B
100
AcDbEntity
  8
0
100
AcDbBlockBegin
  2
*Paper_Space
 70
    0
 10
0
 20
0
 30
0
  3
*Paper_Space
  1

  0
ENDBLK
  5
1D
330
1F
100
AcDbEntity
  8
0
100
AcDbBlockEnd
  0
ENDSEC
  0
SECTION
  2
ENTITIES
  0
IMAGE
  5
54
100
AcDbEntity
  8
obstacles
  6
ByLayer
 62
  256
370
   -1
100
AcDbRasterImage
 10
0.4314703031101002
 20
-3.766826442323353
 30
0
 11
0.125
 21
0
 31
0
 12
7.653789711389858e-18
 22
0.125
 32
0
 13
500
 23
628
340
52
 70
    1
280
    0
281
   50
282
   50
283
    0
360
53
  0
LWPOLYLINE
  5
55
100
AcDbEntity
  8
obstacles
  6
ByLayer
 62
  256
370
   -1
100
AcDbPolyline
 90
    4
 70
    1
 43
0
 10
18.64044447357705
 20
11.83831736742964
 10
19.09827995187544
 20
11.83831736742964
 10
19.09827995187544
 20
5.101595329610562
 10
18.64044447357705
 20
5.101595329610562
  0
LWPOLYLINE
  5
56
100
AcDbEntity
  8
obstacles
  6
ByLayer
 62
  256
370
   -1
100
AcDbPolyline
 90
    4
 70
    1
 43
0
 10
18.73627614131281
 20
14.58764974098612
 10
19.24220619013314
 20
14.58764974098612
 10
19.24220619013314
 20
19.51203554950398
 10
18.73627614131281
 20
19.51203554950398
  0
LWPOLYLINE
  5
57
100
AcDbEntity
  8
obstacles
  6
ByLayer
 62
  256
370
   -1
100
AcDbPolyline
 90
    4
 70
    1
 43
0
 10
18.73372962673376
 20
19.51989432959567
 10
46.99730943206188
 20
19.51989432959567
 10
46.99730943206188
 20
19.25144784569161
 10
18.73372962673376
 20
19.25144784569161
  0
LWPOLYLINE
  5
58
100
AcDbEntity
  8
obstacles
  6
ByLayer
 62
  256
370
   -1
100
AcDbPolyline
 90
    4
 70
    1
 43
0
 10
42.88392313394879
 20
19.53431374073112
 10
43.23275016503327
 20
19.53431374073112
 10
43.23275016503327
 20
6.104473043978476
 10
42.88392313394879
 20
6.104473043978476
  0
LWPOLYLINE
  5
59
100
AcDbEntity
  8
obstacles
  6
ByLayer
 62
  256
370
   -1
100
AcDbPolyline
 90
    4
 70
    1
 43
0
 10
50.00196934199187
 20
19.65900542613664
 10
57.88122566407982
 20
19.65900542613664
 10
57.88122566407982
 20
19.26765163530446
 10
50.00196934199187
 20
19.26765163530446
  0
LWPOLYLINE
  5
5A
100
AcDbEntity
  8
obstacles
  6
ByLayer
 62
  256
370
   -1
100
AcDbPolyline
 90
    4
 70
    1
 43
0
 10
57.94743122102555
 20
6.087862423998793
 10
57.1300793215072
 20
6.087862423998793
 10
57.1300793215072
 20
19.70099923321832
 10
57.94743122102555
 20
19.70099923321832
  0
LWPOLYLINE
  5
5B
100
AcDbEntity
  8
obstacles
  6
ByLayer
 62
  256
370
   -1
100
AcDbPolyline
 90
    4
 70
    1
 43
0
 10
1.765044732032231
 20
10.54577146617576
 10
8.573074412727978
 20
10.54577146617576
 10
8.573074412727978
 20
10.18979605803481
 10
1.765044732032231
 20
10.18979605803481
  0
LWPOLYLINE
  5
5C
100
AcDbEntity
  8
obstacles
  6
ByLayer
 62
  256
370
   -1
100
AcDbPolyline
 90
    4
 70
    1
 43
0
 10
3.64874793344478
 20
10.56060377484831
 10
4.345866441054148
 20
10.56060377484831
 10
4.345866441054148
 20
7.519980496977656
 10
3.64874793344478
 20
7.519980496977656
  0
LWPOLYLINE
  5
5D
100
AcDbEntity
  8
obstacles
  6
ByLayer
 62
  256
370
   -1
100
AcDbPolyline
 90
    4
 70
    1
 43
0
 10
3.64874793344478
 20
8.083608226534166
 10
6.274066568484316
 20
8.083608226534166
 10
6.274066568484316
 20
7.475483570960036
 10
3.64874793344478
 20
7.475483570960036
  0
LWPOLYLINE
  5
5E
100
AcDbEntity
  8
obstacles
  6
ByLayer
 62
  256
370
   -1
100
AcDbPolyline
 90
    4
 70
    1
 43
0
 10
5.591780369547488
 20
8.068775917861627
 10
6.259234259811777
 20
8.068775917861627
 10
6.259234259811777
 20
4.998488022645898
 10
5.591780369547488
 20
4.998488022645898
  0
LWPOLYLINE
  5
5F
100
AcDbEntity
  8
obstacles
  6
ByLayer
 62
  256
370
   -1
100
AcDbPolyline
 90
    4
 70
    1
 43
0
 10
5.591780369547488
 20
4.953991096628278
 10
8.573074412727978
 20
4.953991096628278
 10
8.573074412727978
 20
5.562115752202408
 10
5.591780369547488
 20
5.562115752202408
  0
LWPOLYLINE
  5
60
100
AcDbEntity
  8
obstacles
  6
ByLayer
 62
  256
370
   -1
100
AcDbPolyline
 90
    4
 70
    1
 43
0
 10
8.587906721400518
 20
4.939158787955738
 10
8.231931313259564
 20
4.939158787955738
 10
8.231931313259564
 20
8.765894425470995
 10
8.587906721400518
 20
8.765894425470995
  0
LWPOLYLINE
  5
61
100
AcDbEntity
  8
obstacles
  6
ByLayer
 62
  256
370
   -1
100
AcDbPolyline
 90
   14
 70
    0
 43
0
 10
8.22403537234751
 20
5.045420473832828
 10
9.122120216689753
 20
3.259341626096007
 10
15.2775331947658
 20
3.309795830834335
 10
16.03434626584072
 20
5.045420473832828
 10
16.50861579038101
 20
5.055511314780493
 10
16.46825242659035
 20
5.560053362163776
 10
16.09489131152672
 20
5.570144203111441
 10
16.07470962963139
 20
8.748759101626124
 10
15.70134851456776
 20
8.748759101626124
 10
15.74171187835842
 20
5.54996252121611
 10
14.86380871591151
 20
3.985882174327934
 10
9.485390490805717
 20
3.945518810537271
 10
8.597396487411139
 20
5.54996252121611
 10
8.234126213295175
 20
5.055511314780493
  0
LWPOLYLINE
  5
62
100
AcDbEntity
  8
obstacles
  6
ByLayer
 62
  256
370
   -1
100
AcDbPolyline
 90
    4
 70
    1
 43
0
 10
8.226346174924595
 20
18.27694484889105
 10
8.627911190436954
 20
18.27694484889105
 10
8.627911190436954
 20
15.93639447276187
 10
8.226346174924595
 20
15.93639447276187
  0
LWPOLYLINE
  5
63
100
AcDbEntity
  8
obstacles
  6
ByLayer
 62
  256
370
   -1
100
AcDbPolyline
 90
    4
 70
    1
 43
0
 10
8.627911190436954
 20
15.93639447276187
 10
3.51082556419376
 20
15.93639447276187
 10
3.51082556419376
 20
16.37237934674672
 10
8.627911190436954
 20
16.37237934674672
  0
LWPOLYLINE
  5
64
100
AcDbEntity
  8
obstacles
  6
ByLayer
 62
  256
370
   -1
100
AcDbPolyline
 90
    4
 70
    1
 43
0
 10
3.522298850351256
 20
15.90197461428938
 10
4.394268598320949
 20
15.90197461428938
 10
4.394268598320949
 20
18.13926541500109
 10
3.522298850351256
 20
18.13926541500109
  0
LWPOLYLINE
  5
65
100
AcDbEntity
  8
obstacles
  6
ByLayer
 62
  256
370
   -1
100
AcDbPolyline
 90
    4
 70
    1
 43
0
 10
3.545245422666248
 20
18.1163188426861
 10
6.241467669677796
 20
18.1163188426861
 10
6.241467669677796
 20
17.57707439328379
 10
3.545245422666248
 20
17.57707439328379
  0
LWPOLYLINE
  5
66
100
AcDbEntity
  8
obstacles
  6
ByLayer
 62
  256
370
   -1
100
AcDbPolyline
 90
    4
 70
    1
 43
0
 10
6.252940955835292
 20
17.58854767944129
 10
5.830785072898803
 20
17.58854767944129
 10
5.830785072898803
 20
24.15053415736131
 10
6.252940955835292
 20
24.15053415736131
  0
LWPOLYLINE
  5
67
100
AcDbEntity
  8
obstacles
  6
ByLayer
 62
  256
370
   -1
100
AcDbPolyline
 90
    4
 70
    1
 43
0
 10
5.839902654165446
 20
23.54318319518172
 10
11.00288142503863
 20
23.54318319518172
 10
11.00288142503863
 20
23.19898461045684
 10
5.839902654165446
 20
23.19898461045684
  0
LWPOLYLINE
  5
68
100
AcDbEntity
  8
obstacles
  6
ByLayer
 62
  256
370
   -1
100
AcDbPolyline
 90
    4
 70
    1
 43
0
 10
14.14656183219252
 20
23.52023662286673
 10
19.14891459686076
 20
23.52023662286673
 10
19.14891459686076
 20
23.21045789661434
 10
14.14656183219252
 20
23.21045789661434
  0
LWPOLYLINE
  5
69
100
AcDbEntity
  8
obstacles
  6
ByLayer
 62
  256
370
   -1
100
AcDbPolyline
 90
    4
 70
    1
 43
0
 10
15.61053094603893
 20
19.80832078026789
 10
16.0343462658409
 20
19.80832078026789
 10
16.0343462658409
 20
16.6801600864915
 10
15.61053094603893
 20
16.6801600864915
  0
LWPOLYLINE
  5
6A
100
AcDbEntity
  8
obstacles
  6
ByLayer
 62
  256
370
   -1
100
AcDbPolyline
 90
    4
 70
    1
 43
0
 10
15.64080346888193
 20
14.94453544349299
 10
19.26341536909394
 20
14.94453544349299
 10
19.26341536909394
 20
14.57117432842936
 10
15.64080346888193
 20
14.57117432842936
  0
LWPOLYLINE
  5
6B
100
AcDbEntity
  8
obstacles
  6
ByLayer
 62
  256
370
   -1
100
AcDbPolyline
 90
    4
 70
    1
 43
0
 10
15.5903492641436
 20
17.39660979377577
 10
19.22305200530327
 20
17.39660979377577
 10
19.22305200530327
 20
17.0636120425028
 10
15.5903492641436
 20
17.0636120425028
  0
LWPOLYLINE
  5
6C
100
AcDbEntity
  8
obstacles
  6
ByLayer
 62
  256
370
   -1
100
AcDbPolyline
 90
    4
 70
    1
 43
0
 10
15.6508943098296
 20
19.78813909837256
 10
18.79923668550131
 20
19.78813909837256
 10
18.79923668550131
 20
19.41477798330892
 10
15.6508943098296
 20
19.41477798330892
  0
LWPOLYLINE
  5
6D
100
AcDbEntity
  8
obstacles
  6
ByLayer
 62
  256
370
   -1
100
AcDbPolyline
 90
    4
 70
    1
 43
0
 10
18.79428606047859
 20
58.45541103021036
 10
19.17111385116488
 20
58.45541103021036
 10
19.17111385116488
 20
23.50463344405719
 10
18.79428606047859
 20
23.50463344405719
  0
LWPOLYLINE
  5
6E
100
AcDbEntity
  8
obstacles
  6
ByLayer
 62
  256
370
   -1
100
AcDbPolyline
 90
    4
 70
    1
 43
0
 10
6.256668270411514
 20
42.46439543098704
 10
6.074121612036428
 20
42.46439543098704
 10
6.074121612036428
 20
28.42640611279076
 10
6.256668270411514
 20
28.42640611279076
  0
LWPOLYLINE
  5
6F
100
AcDbEntity
  8
obstacles
  6
ByLayer
 62
  256
370
   -1
100
AcDbPolyline
 90
    4
 70
    1
 43
0
 10
5.680774221582815
 20
24.16183082756764
 10
5.932923469015995
 20
24.16183082756764
 10
5.932923469015995
 20
28.50769726862185
 10
5.680774221582815
 20
28.50769726862185
  0
LWPOLYLINE
  5
70
100
AcDbEntity
  8
obstacles
  6
ByLayer
 62
  256
370
   -1
100
AcDbPolyline
 90
    4
 70
    1
 43
0
 10
5.66847958598457
 20
28.60974495947215
 10
6.27181680131881
 20
28.60974495947215
 10
6.27181680131881
 20
28.42549227694493
 10
5.66847958598457
 20
28.42549227694493
  0
LWPOLYLINE
  5
71
100
AcDbEntity
  8
obstacles
  6
ByLayer
 62
  256
370
   -1
100
AcDbPolyline
 90
    4
 70
    1
 43
0
 10
6.2771692911671
 20
42.37556322824338
 10
5.56725133561844
 20
42.37556322824338
 10
5.56725133561844
 20
42.51567861420693
 10
6.2771692911671
 20
42.51567861420693
  0
LWPOLYLINE
  5
72
100
AcDbEntity
  8
obstacles
  6
ByLayer
 62
  256
370
   -1
100
AcDbPolyline
 90
    4
 70
    1
 43
0
 10
5.571921848483892
 20
42.37556322824338
 10
5.692719993235948
 20
42.37556322824338
 10
5.692719993235948
 20
46.69942128779564
 10
5.571921848483892
 20
46.69942128779564
  0
LWPOLYLINE
  5
73
100
AcDbEntity
  8
obstacles
  6
ByLayer
 62
  256
370
   -1
100
AcDbPolyline
 90
    4
 70
    1
 43
0
 10
5.544029545651427
 20
46.70473166092366
 10
6.308723276086107
 20
46.70473166092366
 10
6.308723276086107
 20
46.61445531774734
 10
5.544029545651427
 20
46.61445531774734
  0
LWPOLYLINE
  5
74
100
AcDbEntity
  8
obstacles
  6
ByLayer
 62
  256
370
   -1
100
AcDbPolyline
 90
    4
 70
    1
 43
0
 10
6.324125610254336
 20
46.64675050123598
 10
6.138617925686875
 20
46.64675050123598
 10
6.138617925686875
 20
55.29815433606391
 10
6.324125610254336
 20
55.29815433606391
  0
LWPOLYLINE
  5
75
100
AcDbEntity
  8
obstacles
  6
ByLayer
 62
  256
370
   -1
100
AcDbPolyline
 90
    4
 70
    1
 43
0
 10
6.284859001003706
 20
55.15888017351487
 10
5.557787077358179
 20
55.15888017351487
 10
5.557787077358179
 20
55.37659097551042
 10
6.284859001003706
 20
55.37659097551042
  0
LWPOLYLINE
  5
76
100
AcDbEntity
  8
obstacles
  6
ByLayer
 62
  256
370
   -1
100
AcDbPolyline
 90
    4
 70
    1
 43
0
 10
5.576017072543198
 20
55.14061327292718
 10
5.810118004622027
 20
55.14061327292718
 10
5.810118004622027
 20
64.97150447129987
 10
5.576017072543198
 20
64.97150447129987
  0
LWPOLYLINE
  5
77
100
AcDbEntity
  8
obstacles
  6
ByLayer
 62
  256
370
   -1
100
AcDbPolyline
 90
    4
 70
    1
 43
0
 10
5.567251335618534
 20
64.98551600989622
 10
6.590093653152477
 20
64.98551600989622
 10
6.590093653152477
 20
64.79402498241269
 10
5.567251335618534
 20
64.79402498241269
  0
LWPOLYLINE
  5
78
100
AcDbEntity
  8
obstacles
  6
ByLayer
 62
  256
370
   -1
100
AcDbPolyline
 90
    4
 70
    1
 43
0
 10
6.589713219153522
 20
64.78766817626637
 10
6.391660526511122
 20
64.78766817626637
 10
6.391660526511122
 20
72.321063772336
 10
6.589713219153522
 20
72.321063772336
  0
LWPOLYLINE
  5
79
100
AcDbEntity
  8
obstacles
  6
ByLayer
 62
  256
370
   -1
100
AcDbPolyline
 90
    4
 70
    1
 43
0
 10
6.391660526511122
 20
72.32517152331705
 10
18.77146042962485
 20
72.32517152331705
 10
18.77146042962485
 20
72.1542856680786
 10
6.391660526511122
 20
72.1542856680786
  0
LWPOLYLINE
  5
7A
100
AcDbEntity
  8
obstacles
  6
ByLayer
 62
  256
370
   -1
100
AcDbPolyline
 90
    4
 70
    1
 43
0
 10
18.6037832484759
 20
72.32755208859918
 10
19.08017064897208
 20
72.32755208859918
 10
19.08017064897208
 20
61.0108768678097
 10
18.6037832484759
 20
61.0108768678097
  0
LWPOLYLINE
  5
7B
100
AcDbEntity
  8
obstacles
  6
ByLayer
 62
  256
370
   -1
100
AcDbPolyline
 90
    4
 70
    1
 43
0
 10
18.65453069633591
 20
61.45559028701992
 10
29.07758665883409
 20
61.45559028701992
 10
29.07758665883409
 20
61.12946212799307
 10
18.65453069633591
 20
61.12946212799307
  0
LWPOLYLINE
  5
7C
100
AcDbEntity
  8
obstacles
  6
ByLayer
 62
  256
370
   -1
100
AcDbPolyline
 90
    4
 70
    1
 43
0
 10
20.8591570513575
 20
58.45521122397309
 10
29.95161012502616
 20
58.45521122397309
 10
29.95161012502616
 20
58.16821844402946
 10
20.8591570513575
 20
58.16821844402946
  0
LWPOLYLINE
  5
7D
100
AcDbEntity
  8
obstacles
  6
ByLayer
 62
  256
370
   -1
100
AcDbPolyline
 90
    4
 70
    1
 43
0
 10
18.74584658086352
 20
53.48501808040393
 10
47.4988397114444
 20
53.48501808040393
 10
47.4988397114444
 20
53.24094533425915
 10
18.74584658086352
 20
53.24094533425915
  0
LWPOLYLINE
  5
7E
100
AcDbEntity
  8
obstacles
  6
ByLayer
 62
  256
370
   -1
100
AcDbPolyline
 90
    4
 70
    1
 43
0
 10
50.19782972398384
 20
53.62448922465698
 10
56.79356384259158
 20
53.62448922465698
 10
56.79356384259158
 20
53.21859789428111
 10
50.19782972398384
 20
53.21859789428111
  0
LWPOLYLINE
  5
7F
100
AcDbEntity
  8
obstacles
  6
ByLayer
 62
  256
370
   -1
100
AcDbPolyline
 90
    4
 70
    1
 43
0
 10
26.49465163934182
 20
61.11641700163291
 10
26.82077979836868
 20
61.11641700163291
 10
26.82077979836868
 20
66.56927982056195
 10
26.49465163934182
 20
66.56927982056195
  0
LWPOLYLINE
  5
80
100
AcDbEntity
  8
obstacles
  6
ByLayer
 62
  256
370
   -1
100
AcDbPolyline
 90
    4
 70
    1
 43
0
 10
56.08095909087959
 20
66.52290439634884
 10
56.70469669945497
 20
66.52290439634884
 10
56.70469669945497
 20
53.21582358896219
 10
56.08095909087959
 20
53.21582358896219
  0
LWPOLYLINE
  5
81
100
AcDbEntity
  8
obstacles
  6
ByLayer
 62
  256
370
   -1
100
AcDbPolyline
 90
    4
 70
    1
 43
0
 10
55.04882698367229
 20
53.62613950014262
 10
55.70280429464977
 20
53.62613950014262
 10
55.70280429464977
 20
22.69416001952981
 10
55.04882698367229
 20
22.69416001952981
  0
LWPOLYLINE
  5
82
100
AcDbEntity
  8
obstacles
  6
ByLayer
 62
  256
370
   -1
100
AcDbPolyline
 90
    4
 70
    1
 43
0
 10
49.97763450205858
 20
23.08425174888472
 10
57.21727806743942
 20
23.08425174888472
 10
57.21727806743942
 20
22.7629997364748
 10
49.97763450205858
 20
22.7629997364748
  0
LWPOLYLINE
  5
83
100
AcDbEntity
  8
obstacles
  6
ByLayer
 62
  256
370
   -1
100
AcDbPolyline
 90
    4
 70
    1
 43
0
 10
56.907499341187
 20
23.09572503504222
 10
57.28611778438441
 20
23.09572503504222
 10
57.28611778438441
 20
19.64226590163551
 10
56.907499341187
 20
19.64226590163551
  0
LWPOLYLINE
  5
84
100
AcDbEntity
  8
obstacles
  6
ByLayer
 62
  256
370
   -1
100
AcDbPolyline
 90
    4
 70
    1
 43
0
 10
49.99002605474234
 20
23.07775324731444
 10
50.35329632885836
 20
23.07775324731444
 10
50.35329632885836
 20
21.94757906117574
 10
49.99002605474234
 20
21.94757906117574
  0
LWPOLYLINE
  5
85
100
AcDbEntity
  8
obstacles
  6
ByLayer
 62
  256
370
   -1
100
AcDbPolyline
 90
    4
 70
    1
 43
0
 10
49.94966269095168
 20
20.23213610007235
 10
50.38356885170136
 20
20.23213610007235
 10
50.38356885170136
 20
19.26341536909631
 10
49.94966269095168
 20
19.26341536909631
  0
LWPOLYLINE
  5
86
100
AcDbEntity
  8
obstacles
  6
ByLayer
 62
  256
370
   -1
100
AcDbPolyline
 90
    4
 70
    1
 43
0
 10
47.0916491964119
 20
22.58655026272349
 10
42.73131130785524
 20
22.58655026272349
 10
42.73131130785524
 20
23.13159249879307
 10
47.0916491964119
 20
23.13159249879307
  0
LWPOLYLINE
  5
87
100
AcDbEntity
  8
obstacles
  6
ByLayer
 62
  256
370
   -1
100
AcDbPolyline
 90
    4
 70
    1
 43
0
 10
42.75311299729803
 20
22.58655026272349
 10
43.15327800243465
 20
22.58655026272349
 10
43.15327800243465
 20
53.48501808040569
 10
42.75311299729803
 20
53.48501808040569
  0
LWPOLYLINE
  5
88
100
AcDbEntity
  8
obstacles
  6
ByLayer
 62
  256
370
   -1
100
AcDbPolyline
 90
    4
 70
    1
 43
0
 10
18.79305629967924
 20
29.84651284717039
 10
43.08013833893988
 20
29.84651284717039
 10
43.08013833893988
 20
29.27966892165802
 10
18.79305629967924
 20
29.27966892165802
  0
LWPOLYLINE
  5
89
100
AcDbEntity
  8
obstacles
  6
ByLayer
 62
  256
370
   -1
100
AcDbPolyline
 90
    4
 70
    1
 43
0
 10
10.60131640952775
 20
26.21645886988194
 10
10.97993485272517
 20
26.21645886988194
 10
10.97993485272517
 20
23.18751132430258
 10
10.60131640952775
 20
23.18751132430258
  0
LWPOLYLINE
  5
8A
100
AcDbEntity
  8
obstacles
  6
ByLayer
 62
  256
370
   -1
100
AcDbPolyline
 90
    4
 70
    1
 43
0
 10
10.63573626800025
 20
26.18203901140945
 10
11.55359916060005
 20
26.18203901140945
 10
11.55359916060005
 20
25.84931371284202
 10
10.63573626800025
 20
25.84931371284202
  0
LWPOLYLINE
  5
8B
100
AcDbEntity
  8
obstacles
  6
ByLayer
 62
  256
370
   -1
100
AcDbPolyline
 90
    4
 70
    1
 43
0
 10
13.53847766584713
 20
26.23940544219694
 10
14.45634055844693
 20
26.23940544219694
 10
14.45634055844693
 20
25.88373357131451
 10
13.53847766584713
 20
25.88373357131451
  0
LWPOLYLINE
  5
8C
100
AcDbEntity
  8
obstacles
  6
ByLayer
 62
  256
370
   -1
100
AcDbPolyline
 90
    4
 70
    1
 43
0
 10
14.18098169066699
 20
26.21645886988194
 10
14.46781384460443
 20
26.21645886988194
 10
14.46781384460443
 20
23.22193118277508
 10
14.18098169066699
 20
23.22193118277508
  0
LWPOLYLINE
  5
8D
100
AcDbEntity
  8
obstacles
  6
ByLayer
 62
  256
370
   -1
100
AcDbPolyline
 90
    4
 70
    1
 43
0
 10
18.22608185437836
 20
19.40472783296985
 10
18.49147233962413
 20
19.40472783296985
 10
18.49147233962413
 20
20.40384495389509
 10
18.22608185437836
 20
20.40384495389509
  0
LWPOLYLINE
  5
8E
100
AcDbEntity
  8
obstacles
  6
ByLayer
 62
  256
370
   -1
100
AcDbPolyline
 90
    4
 70
    1
 43
0
 10
18.21047064936392
 20
23.51047475177202
 10
18.452444327088
 20
23.51047475177202
 10
18.452444327088
 20
22.58160805341184
 10
18.21047064936392
 20
22.58160805341184
  0
LWPOLYLINE
  5
8F
100
AcDbEntity
  8
obstacles
  6
ByLayer
 62
  256
370
   -1
100
AcDbPolyline
 90
    4
 70
    1
 43
0
 10
5.684291007902504
 20
13.36632197148089
 10
8.601952455195455
 20
13.36632197148089
 10
8.601952455195455
 20
13.00247242628906
 10
5.684291007902504
 20
13.00247242628906
  0
LWPOLYLINE
  5
90
100
AcDbEntity
  8
obstacles
  6
ByLayer
 62
  256
370
   -1
100
AcDbPolyline
 90
    4
 70
    1
 43
0
 10
26.53265605186844
 20
66.71316969491981
 10
49.46803334567748
 20
66.71316969491981
 10
49.46803334567748
 20
66.189929148293
 10
26.53265605186844
 20
66.189929148293
  0
LWPOLYLINE
  5
91
100
AcDbEntity
  8
obstacles
  6
ByLayer
 62
  256
370
   -1
100
AcDbPolyline
 90
    4
 70
    1
 43
0
 10
49.0306750910039
 20
66.21504253327495
 10
49.44488419498942
 20
66.21504253327495
 10
49.44488419498942
 20
68.15332872500205
 10
49.0306750910039
 20
68.15332872500205
  0
LWPOLYLINE
  5
92
100
AcDbEntity
  8
obstacles
  6
ByLayer
 62
  256
370
   -1
100
AcDbPolyline
 90
    4
 70
    1
 43
0
 10
50.25339381410371
 20
69.64107223980201
 10
54.57048820039281
 20
69.64107223980201
 10
54.57048820039281
 20
69.21238174829639
 10
50.25339381410371
 20
69.21238174829639
  0
LWPOLYLINE
  5
93
100
AcDbEntity
  8
obstacles
  6
ByLayer
 62
  256
370
   -1
100
AcDbPolyline
 90
    4
 70
    1
 43
0
 10
54.28796543777635
 20
69.62597436448095
 10
54.64702315310888
 20
69.62597436448095
 10
54.64702315310888
 20
66.16809245377858
 10
54.28796543777635
 20
66.16809245377858
  0
LWPOLYLINE
  5
94
100
AcDbEntity
  8
obstacles
  6
ByLayer
 62
  256
370
   -1
100
AcDbPolyline
 90
    4
 70
    1
 43
0
 10
18.67620538018687
 20
6.672812599902496
 10
39.83981590672458
 20
6.672812599902496
 10
39.83981590672458
 20
6.131209389705486
 10
18.67620538018687
 20
6.131209389705486
  0
LWPOLYLINE
  5
95
100
AcDbEntity
  8
obstacles
  6
ByLayer
 62
  256
370
   -1
100
AcDbPolyline
 90
    4
 70
    1
 43
0
 10
41.61992658513355
 20
6.668112121144088
 10
57.9307733349953
 20
6.668112121144088
 10
57.9307733349953
 20
6.17234170321516
 10
41.61992658513355
 20
6.17234170321516
  0
LWPOLYLINE
  5
96
100
AcDbEntity
  8
obstacles
  6
ByLayer
 62
  256
370
   -1
100
AcDbPolyline
 90
    4
 70
    1
 43
0
 10
8.244519860199732
 20
23.48122744993595
 10
8.557602892865544
 20
23.48122744993595
 10
8.557602892865544
 20
22.05930867657871
 10
8.244519860199732
 20
22.05930867657871
  0
LWPOLYLINE
  5
97
100
AcDbEntity
  8
obstacles
  6
ByLayer
 62
  256
370
   -1
100
AcDbPolyline
 90
    4
 70
    1
 43
0
 10
15.72329405724164
 20
11.81164529178152
 10
16.08761428539724
 20
11.81164529178152
 10
16.08761428539724
 20
10.12426739295559
 10
15.72329405724164
 20
10.12426739295559
  0
LWPOLYLINE
  5
98
100
AcDbEntity
  8
obstacles
  6
ByLayer
 62
  256
370
   -1
100
AcDbPolyline
 90
    4
 70
    1
 43
0
 10
15.78081830379252
 20
10.66116036076384
 10
18.98300136179174
 20
10.66116036076384
 10
18.98300136179174
 20
10.22014113720707
 10
15.78081830379252
 20
10.22014113720707
  0
LWPOLYLINE
  5
99
100
AcDbEntity
  8
spawns
  6
ByLayer
 62
  256
370
   -1
100
AcDbPolyline
 90
    4
 70
    1
 43
0
 10
7.408292290030188
 20
71.3827042151507
 10
17.5860396417539
 20
71.3827042151507
 10
17.5860396417539
 20
26.79447772188488
 10
7.408292290030188
 20
26.79447772188488
  0
LWPOLYLINE
  5
9A
100
AcDbEntity
  8
spawns
  6
ByLayer
 62
  256
370
   -1
100
AcDbPolyline
 90
    4
 70
    1
 43
0
 10
43.89586272784242
 20
52.48117341909236
 10
54.21208283265081
 20
52.48117341909236
 10
54.21208283265081
 20
23.88654990710668
 10
43.89586272784242
 20
23.88654990710668
  0
LWPOLYLINE
  5
9B
100
AcDbEntity
  8
spawns
  6
ByLayer
 62
  256
370
   -1
100
AcDbPolyline
 90
    4
 70
    1
 43
0
 10
19.81596040798096
 20
28.43858101794024
 10
41.93485675526782
 20
28.43858101794024
 10
41.93485675526782
 20
20.08374365673746
 10
19.81596040798096
 20
20.08374365673746
  0
LWPOLYLINE
  5
9C
100
AcDbEntity
  8
spawns
  6
ByLayer
 62
  256
370
   -1
100
AcDbPolyline
 90
    4
 70
    1
 43
0
 10
44.18423604482241
 20
18.31637421494456
 10
56.55582213737269
 20
18.31637421494456
 10
56.55582213737269
 20
7.283704366176786
 10
44.18423604482241
 20
7.283704366176786
  0
LWPOLYLINE
  5
9D
100
AcDbEntity
  8
spawns
  6
ByLayer
 62
  256
370
   -1
100
AcDbPolyline
 90
    4
 70
    1
 43
0
 10
42.79176315128861
 20
22.01178304778426
 10
49.2185611214446
 20
22.01178304778426
 10
49.2185611214446
 20
20.19085695624006
 10
42.79176315128861
 20
20.19085695624006
  0
LWPOLYLINE
  5
9E
100
AcDbEntity
  8
spawns
  6
ByLayer
 62
  256
370
   -1
100
AcDbPolyline
 90
    4
 70
    1
 43
0
 10
19.52975510395638
 20
60.59325137664078
 10
30.2784076331861
 20
60.59325137664078
 10
30.2784076331861
 20
54.10762374883437
 10
19.52975510395638
 20
54.10762374883437
  0
LWPOLYLINE
  5
9F
100
AcDbEntity
  8
spawns
  6
ByLayer
 62
  256
370
   -1
100
AcDbPolyline
 90
    4
 70
    1
 43
0
 10
19.81596040798109
 20
18.42348751444729
 10
38.18589127267708
 20
18.42348751444729
 10
38.18589127267708
 20
7.551487614933335
 10
19.81596040798109
 20
7.551487614933335
  0
LWPOLYLINE
  5
A0
100
AcDbEntity
  8
exhibit
  6
ByLayer
 62
  256
370
   -1
100
AcDbPolyline
 90
    4
 70
    1
 43
0
 10
8.01228566518316
 20
29.00000606622059
 10
9.201750831755188
 20
29.00000606622059
 10
9.201750831755188
 20
27.98563983279875
 10
8.01228566518316
 20
27.98563983279875
  0
LWPOLYLINE
  5
A1
100
AcDbEntity
  8
obstacles
  6
ByLayer
 62
  256
370
   -1
100
AcDbPolyline
 90
    4
 70
    1
 43
0
 10
8.194963207193013
 20
28.79944212813544
 10
8.704324328843104
 20
28.79944212813544
 10
8.704324328843104
 20
28.19560273392122
 10
8.194963207193013
 20
28.19560273392122
  0
LWPOLYLINE
  5
A2
100
AcDbEntity
  8
obstacles
  6
ByLayer
 62
  256
370
   -1
100
AcDbPolyline
 90
    4
 70
    1
 43
0
 10
12.00144326932507
 20
31.00195832138042
 10
13.01070609435533
 20
31.00195832138042
 10
13.01070609435533
 20
32.99713864857647
 10
12.00144326932507
 20
32.99713864857647
  0
LWPOLYLINE
  5
A3
100
AcDbEntity
  8
obstacles
  6
ByLayer
 62
  256
370
   -1
100
AcDbPolyline
 90
    4
 70
    1
 43
0
 10
16.80733095018329
 20
28.79284310012442
 10
16.29222475676535
 20
28.79284310012442
 10
16.29222475676535
 20
28.19277093665816
 10
16.80733095018329
 20
28.19277093665816
  0
LWPOLYLINE
  5
A4
100
AcDbEntity
  8
exhibit
  6
ByLayer
 62
  256
370
   -1
100
AcDbPolyline
 90
    4
 70
    1
 43
0
 10
17.00912512904805
 20
29.01056839837324
 10
15.68684222017107
 20
29.01056839837324
 10
15.68684222017107
 20
27.9909767577934
 10
17.00912512904805
 20
27.9909767577934
  0
LWPOLYLINE
  5
A5
100
AcDbEntity
  8
exhibit
  6
ByLayer
 62
  256
370
   -1
100
AcDbPolyline
 90
    4
 70
    1
 43
0
 10
10.98892579201118
 20
33.98595231174809
 10
13.99599639441645
 20
33.98595231174809
 10
13.99599639441645
 20
30.0202518193143
 10
10.98892579201118
 20
30.0202518193143
  0
LWPOLYLINE
  5
A6
100
AcDbEntity
  8
obstacles
  6
ByLayer
 62
  256
370
   -1
100
AcDbPolyline
 90
    4
 70
    1
 43
0
 10
12.23918473133627
 20
40.65157785765263
 10
13.21488504474
 20
40.65157785765263
 10
13.21488504474
 20
39.47293187906094
 10
12.23918473133627
 20
39.47293187906094
  0
LWPOLYLINE
  5
A7
100
AcDbEntity
  8
obstacles
  6
ByLayer
 62
  256
370
   -1
100
AcDbPolyline
 90
    4
 70
    1
 43
0
 10
12.14220532983006
 20
37.74891482948659
 10
13.11430630352605
 20
37.74891482948659
 10
13.11430630352605
 20
37.30814854948778
 10
12.14220532983006
 20
37.30814854948778
  0
LWPOLYLINE
  5
A8
100
AcDbEntity
  8
obstacles
  6
ByLayer
 62
  256
370
   -1
100
AcDbPolyline
 90
    4
 70
    1
 43
0
 10
12.17843269530947
 20
42.79659441961006
 10
13.10826840927955
 20
42.79659441961006
 10
13.10826840927955
 20
42.41620708207684
 10
12.17843269530947
 20
42.41620708207684
  0
LWPOLYLINE
  5
A9
100
AcDbEntity
  8
obstacles
  6
ByLayer
 62
  256
370
   -1
100
AcDbPolyline
 90
    4
 70
    1
 43
0
 10
12.15806687801584
 20
51.45381775874012
 10
13.12604396994144
 20
51.45381775874012
 10
13.12604396994144
 20
50.14945146465598
 10
12.15806687801584
 20
50.14945146465598
  0
LWPOLYLINE
  5
AA
100
AcDbEntity
  8
obstacles
  6
ByLayer
 62
  256
370
   -1
100
AcDbPolyline
 90
    4
 70
    1
 43
0
 10
12.06195567739912
 20
48.59794208327169
 10
13.15350431297479
 20
48.59794208327169
 10
13.15350431297479
 20
47.98008436502131
 10
12.06195567739912
 20
47.98008436502131
  0
LWPOLYLINE
  5
AB
100
AcDbEntity
  8
obstacles
  6
ByLayer
 62
  256
370
   -1
100
AcDbPolyline
 90
    4
 70
    1
 43
0
 10
12.11063986012002
 20
53.54743000242039
 10
13.06809499753792
 20
53.54743000242039
 10
13.06809499753792
 20
53.10373128020234
 10
12.11063986012002
 20
53.10373128020234
  0
LWPOLYLINE
  5
AC
100
AcDbEntity
  8
obstacles
  6
ByLayer
 62
  256
370
   -1
100
AcDbPolyline
 90
    4
 70
    1
 43
0
 10
11.9536499111736
 20
63.01288753708837
 10
12.60682580592009
 20
63.01288753708837
 10
12.60682580592009
 20
62.06233074717274
 10
11.9536499111736
 20
62.06233074717274
  0
LWPOLYLINE
  5
AD
100
AcDbEntity
  8
obstacles
  6
ByLayer
 62
  256
370
   -1
100
AcDbPolyline
 90
    4
 70
    1
 43
0
 10
11.85238640599542
 20
60.16157827271439
 10
12.67354002352745
 20
60.16157827271439
 10
12.67354002352745
 20
59.68458462723622
 10
11.85238640599542
 20
59.68458462723622
  0
LWPOLYLINE
  5
AE
100
AcDbEntity
  8
obstacles
  6
ByLayer
 62
  256
370
   -1
100
AcDbPolyline
 90
    4
 70
    1
 43
0
 10
11.88257587722828
 20
65.22133365133125
 10
12.60108529256881
 20
65.22133365133125
 10
12.60108529256881
 20
64.72622632311341
 10
11.88257587722828
 20
64.72622632311341
  0
LWPOLYLINE
  5
AF
100
AcDbEntity
  8
exhibit
  6
ByLayer
 62
  256
370
   -1
100
AcDbPolyline
 90
    4
 70
    1
 43
0
 10
38.99034242910151
 20
53.66231384489663
 10
46.02277010770676
 20
53.66231384489663
 10
46.02277010770676
 20
56.74848714270181
 10
38.99034242910151
 20
56.74848714270181
  0
LWPOLYLINE
  5
B0
100
AcDbEntity
  8
exhibit
  6
ByLayer
 62
  256
370
   -1
100
AcDbPolyline
 90
    4
 70
    1
 43
0
 10
35.0261800266849
 20
61.40116626050848
 10
48.3624042689754
 20
61.40116626050848
 10
48.3624042689754
 20
58.00513889769474
 10
35.0261800266849
 20
58.00513889769474
  0
LWPOLYLINE
  5
B1
100
AcDbEntity
  8
exhibit
  6
ByLayer
 62
  256
370
   -1
100
AcDbPolyline
 90
    4
 70
    1
 43
0
 10
6.568958037559471
 20
27.09385333982076
 10
10.36160173471645
 20
27.09385333982076
 10
10.36160173471645
 20
23.7969800605928
 10
6.568958037559471
 20
23.7969800605928
  0
LWPOLYLINE
  5
B2
100
AcDbEntity
  8
exhibit
  6
ByLayer
 62
  256
370
   -1
100
AcDbPolyline
 90
    4
 70
    1
 43
0
 10
14.74916993338825
 20
27.16821890251012
 10
18.59139067233813
 20
27.16821890251012
 10
18.59139067233813
 20
23.77219153969635
 10
14.74916993338825
 20
23.77219153969635
  0
LWPOLYLINE
  5
B3
100
AcDbEntity
  8
exhibit
  6
ByLayer
 62
  256
370
   -1
100
AcDbPolyline
 90
    4
 70
    1
 43
0
 10
18.69054475592394
 20
29.62228247125877
 10
15.46803703938533
 20
29.62228247125877
 10
15.46803703938533
 20
34.10900475351637
 10
18.69054475592394
 20
34.10900475351637
  0
LWPOLYLINE
  5
B4
100
AcDbEntity
  8
exhibit
  6
ByLayer
 62
  256
370
   -1
100
AcDbPolyline
 90
    4
 70
    1
 43
0
 10
15.61676816476405
 20
35.12533411027088
 10
18.66575623502751
 20
35.12533411027088
 10
18.66575623502751
 20
39.8103645597001
 10
15.61676816476405
 20
39.8103645597001
  0
LWPOLYLINE
  5
B5
100
AcDbEntity
  8
exhibit
  6
ByLayer
 62
  256
370
   -1
100
AcDbPolyline
 90
    4
 70
    1
 43
0
 10
6.308492371748042
 20
29.7016859691116
 10
9.088830955041253
 20
29.7016859691116
 10
9.088830955041253
 20
31.50411236103962
 10
6.308492371748042
 20
31.50411236103962
  0
LWPOLYLINE
  5
B6
100
AcDbEntity
  8
exhibit
  6
ByLayer
 62
  256
370
   -1
100
AcDbPolyline
 90
    4
 70
    1
 43
0
 10
6.408447285060019
 20
32.34579445459241
 10
9.005554869005396
 20
32.34579445459241
 10
9.005554869005396
 20
37.00035090374127
 10
6.408447285060019
 20
37.00035090374127
  0
LWPOLYLINE
  5
B7
100
AcDbEntity
  8
exhibit
  6
ByLayer
 62
  256
370
   -1
100
AcDbPolyline
 90
    4
 70
    1
 43
0
 10
6.459040289942079
 20
42.00905838706454
 10
9.039283538926774
 20
42.00905838706454
 10
9.039283538926774
 20
37.91102499161826
 10
6.459040289942079
 20
37.91102499161826
  0
LWPOLYLINE
  5
B8
100
AcDbEntity
  8
exhibit
  6
ByLayer
 62
  256
370
   -1
100
AcDbPolyline
 90
    4
 70
    1
 43
0
 10
6.505303768269155
 20
51.01696354228815
 10
9.101016109302659
 20
51.01696354228815
 10
9.101016109302659
 20
46.46645548763681
 10
6.505303768269155
 20
46.46645548763681
  0
LWPOLYLINE
  5
B9
100
AcDbEntity
  8
exhibit
  6
ByLayer
 62
  256
370
   -1
100
AcDbPolyline
 90
    4
 70
    1
 43
0
 10
9.004878615190307
 20
51.24128436188364
 10
6.63348709375229
 20
51.24128436188364
 10
6.63348709375229
 20
55.27905911460242
 10
9.004878615190307
 20
55.27905911460242
  0
LWPOLYLINE
  5
BA
100
AcDbEntity
  8
exhibit
  6
ByLayer
 62
  256
370
   -1
100
AcDbPolyline
 90
    4
 70
    1
 43
0
 10
18.74681135190865
 20
41.21093914282824
 10
15.41404488934711
 20
41.21093914282824
 10
15.41404488934711
 20
44.2873389544235
 10
18.74681135190865
 20
44.2873389544235
  0
LWPOLYLINE
  5
BB
100
AcDbEntity
  8
exhibit
  6
ByLayer
 62
  256
370
   -1
100
AcDbPolyline
 90
    4
 70
    1
 43
0
 10
15.60631987757181
 20
45.95372218570427
 10
18.58658219505473
 20
45.95372218570427
 10
18.58658219505473
 20
49.73513028745678
 10
15.60631987757181
 20
49.73513028745678
  0
LWPOLYLINE
  5
BC
100
AcDbEntity
  8
exhibit
  6
ByLayer
 62
  256
370
   -1
100
AcDbPolyline
 90
    4
 70
    1
 43
0
 10
15.63181133047965
 20
50.81973809114095
 10
18.55323771581337
 20
50.81973809114095
 10
18.55323771581337
 20
53.82837123424584
 10
15.63181133047965
 20
53.82837123424584
  0
LWPOLYLINE
  5
BD
100
AcDbEntity
  8
exhibit
  6
ByLayer
 62
  256
370
   -1
100
AcDbPolyline
 90
    4
 70
    1
 43
0
 10
18.53143602637058
 20
54.65683543307182
 10
15.23938092050945
 20
54.65683543307182
 10
15.23938092050945
 20
58.40672601723151
 10
18.53143602637058
 20
58.40672601723151
  0
LWPOLYLINE
  5
BE
100
AcDbEntity
  8
exhibit
  6
ByLayer
 62
  256
370
   -1
100
AcDbPolyline
 90
    4
 70
    1
 43
0
 10
6.148076422866487
 20
64.46759568232696
 10
8.546262261573274
 20
64.46759568232696
 10
8.546262261573274
 20
60.36887806708264
 10
6.148076422866487
 20
60.36887806708264
  0
LWPOLYLINE
  5
BF
100
AcDbEntity
  8
exhibit
  6
ByLayer
 62
  256
370
   -1
100
AcDbPolyline
 90
    4
 70
    1
 43
0
 10
6.213481491194854
 20
59.99824934655523
 10
8.350047056588172
 20
59.99824934655523
 10
8.350047056588172
 20
55.57250638966907
 10
6.213481491194854
 20
55.57250638966907
  0
LWPOLYLINE
  5
C0
100
AcDbEntity
  8
exhibit
  6
ByLayer
 62
  256
370
   -1
100
AcDbPolyline
 90
    4
 70
    1
 43
0
 10
18.29780343234255
 20
61.23440024224497
 10
15.26222313941936
 20
61.23440024224497
 10
15.26222313941936
 20
65.88895669139384
 10
18.29780343234255
 20
65.88895669139384
  0
LWPOLYLINE
  5
C1
100
AcDbEntity
  8
exhibit
  6
ByLayer
 62
  256
370
   -1
100
AcDbPolyline
 90
    4
 70
    1
 43
0
 10
6.914377333880601
 20
65.19751895800587
 10
8.971826199084099
 20
65.19751895800587
 10
8.971826199084099
 20
69.95326141691886
 10
6.914377333880601
 20
69.95326141691886
  0
LWPOLYLINE
  5
C2
100
AcDbEntity
  8
exhibit
  6
ByLayer
 62
  256
370
   -1
100
AcDbPolyline
 90
    4
 70
    1
 43
0
 10
9.196031376978294
 20
71.92186475317379
 10
11.06490226971904
 20
71.92186475317379
 10
11.06490226971904
 20
69.54869536556649
 10
9.196031376978294
 20
69.54869536556649
  0
LWPOLYLINE
  5
C3
100
AcDbEntity
  8
exhibit
  6
ByLayer
 62
  256
370
   -1
100
AcDbPolyline
 90
    4
 70
    1
 43
0
 10
11.36154844316996
 20
71.93669706184633
 10
13.4232393486538
 20
71.93669706184633
 10
13.4232393486538
 20
69.54869536556649
 10
11.36154844316996
 20
69.54869536556649
  0
LWPOLYLINE
  5
C4
100
AcDbEntity
  8
exhibit
  6
ByLayer
 62
  256
370
   -1
100
AcDbPolyline
 90
    4
 70
    1
 43
0
 10
13.86820860883017
 20
71.93669706184633
 10
15.88540258829638
 20
71.93669706184633
 10
15.88540258829638
 20
69.60802460025667
 10
13.86820860883017
 20
69.60802460025667
  0
LWPOLYLINE
  5
C5
100
AcDbEntity
  8
exhibit
  6
ByLayer
 62
  256
370
   -1
100
AcDbPolyline
 90
    4
 70
    1
 43
0
 10
15.32177485873964
 20
66.30041976627899
 10
18.33273351926641
 20
66.30041976627899
 10
18.33273351926641
 20
69.20755226609793
 10
15.32177485873964
 20
69.20755226609793
  0
LWPOLYLINE
  5
C6
100
AcDbEntity
  8
exhibit
  6
ByLayer
 62
  256
370
   -1
100
AcDbPolyline
 90
    4
 70
    1
 43
0
 10
10.3616017347166
 20
66.18535079352471
 10
14.17903395277009
 20
66.18535079352471
 10
14.17903395277009
 20
58.60006339921065
 10
10.3616017347166
 20
58.60006339921065
  0
LWPOLYLINE
  5
C7
100
AcDbEntity
  8
exhibit
  6
ByLayer
 62
  256
370
   -1
100
AcDbPolyline
 90
    4
 70
    1
 43
0
 10
10.80779511085273
 20
46.85030449429279
 10
14.45170768263106
 20
46.85030449429279
 10
14.45170768263106
 20
54.78263118115718
 10
10.80779511085273
 20
54.78263118115718
  0
LWPOLYLINE
  5
C8
100
AcDbEntity
  8
exhibit
  6
ByLayer
 62
  256
370
   -1
100
AcDbPolyline
 90
    4
 70
    1
 43
0
 10
10.36160173471662
 20
43.60300825685775
 10
14.47649620352753
 20
43.60300825685775
 10
14.47649620352753
 20
36.04250938344012
 10
10.36160173471662
 20
36.04250938344012
  0
LWPOLYLINE
  5
C9
100
AcDbEntity
  8
obstacles
  6
ByLayer
 62
  256
370
   -1
100
AcDbPolyline
 90
    4
 70
    1
 43
0
 10
19.49517121455135
 20
54.80908862222482
 10
30.22088824954673
 20
54.80908862222482
 10
30.22088824954673
 20
53.71290684978032
 10
19.49517121455135
 20
53.71290684978032
  0
LWPOLYLINE
  5
CA
100
AcDbEntity
  8
obstacles
  6
ByLayer
 62
  256
370
   -1
100
AcDbPolyline
 90
    4
 70
    1
 43
0
 10
33.32819758721037
 20
53.64846046859808
 10
35.46405003605696
 20
53.64846046859808
 10
35.46405003605696
 20
54.73121900169392
 10
33.32819758721037
 20
54.73121900169392
  0
LWPOLYLINE
  5
CB
100
AcDbEntity
  8
obstacles
  6
ByLayer
 62
  256
370
   -1
100
AcDbPolyline
 90
    4
 70
    1
 43
0
 10
35.98318083959612
 20
60.38232860593397
 10
40.29938266330695
 20
60.38232860593397
 10
40.29938266330695
 20
59.07708544274994
 10
35.98318083959612
 20
59.07708544274994
  0
LWPOLYLINE
  5
CC
100
AcDbEntity
  8
obstacles
  6
ByLayer
 62
  256
370
   -1
100
AcDbPolyline
 90
    4
 70
    1
 43
0
 10
41.69361967852625
 20
60.24883782788105
 10
47.24090312205838
 20
60.24883782788105
 10
47.24090312205838
 20
59.18091160345776
 10
41.69361967852625
 20
59.18091160345776
  0
LWPOLYLINE
  5
CD
100
AcDbEntity
  8
obstacles
  6
ByLayer
 62
  256
370
   -1
100
AcDbPolyline
 90
    4
 70
    1
 43
0
 10
27.08381710354572
 20
65.94364559302208
 10
28.71853333706823
 20
65.94364559302208
 10
28.71853333706823
 20
61.70549239500077
 10
27.08381710354572
 20
61.70549239500077
  0
LWPOLYLINE
  5
CE
100
AcDbEntity
  8
obstacles
  6
ByLayer
 62
  256
370
   -1
100
AcDbPolyline
 90
    4
 70
    1
 43
0
 10
34.79847691569919
 20
65.8796091163682
 10
37.74711145817684
 20
65.8796091163682
 10
37.74711145817684
 20
64.97321950992566
 10
34.79847691569919
 20
64.97321950992566
  0
LWPOLYLINE
  5
CF
100
AcDbEntity
  8
obstacles
  6
ByLayer
 62
  256
370
   -1
100
AcDbPolyline
 90
    4
 70
    1
 43
0
 10
39.0091729355019
 20
65.85666254405321
 10
42.60031150279957
 20
65.85666254405321
 10
42.60031150279957
 20
65.00763936839816
 10
39.0091729355019
 20
65.00763936839816
  0
LWPOLYLINE
  5
D0
100
AcDbEntity
  8
obstacles
  6
ByLayer
 62
  256
370
   -1
100
AcDbPolyline
 90
    4
 70
    1
 43
0
 10
44.04594555864465
 20
65.76487625479321
 10
48.24516829228985
 20
65.76487625479321
 10
48.24516829228985
 20
65.01911265455567
 10
44.04594555864465
 20
65.01911265455567
  0
LWPOLYLINE
  5
D1
100
AcDbEntity
  8
obstacles
  6
ByLayer
 62
  256
370
   -1
100
AcDbPolyline
 90
    4
 70
    1
 43
0
 10
53.18498017411583
 20
53.94159750305837
 10
55.715734688165
 20
53.94159750305837
 10
55.715734688165
 20
56.17231411080274
 10
53.18498017411583
 20
56.17231411080274
  0
LWPOLYLINE
  5
D2
100
AcDbEntity
  8
obstacles
  6
ByLayer
 62
  256
370
   -1
100
AcDbPolyline
 90
    4
 70
    1
 43
0
 10
50.82381230276068
 20
54.03291338758591
 10
52.36313721336791
 20
54.03291338758591
 10
52.36313721336791
 20
54.94607223286139
 10
50.82381230276068
 20
54.94607223286139
  0
LWPOLYLINE
  5
D3
100
AcDbEntity
  8
spawns
  6
ByLayer
 62
  256
370
   -1
100
AcDbPolyline
 90
    4
 70
    1
 43
0
 10
4.604929605460916
 20
15.52370036968411
 10
9.118543326394279
 20
15.52370036968411
 10
9.118543326394279
 20
10.76222924789024
 10
4.604929605460916
 20
10.76222924789024
  0
LWPOLYLINE
  5
D4
100
AcDbEntity
  8
obstacles
  6
ByLayer
 62
  256
370
   -1
100
AcDbPolyline
 90
    4
 70
    1
 43
0
 10
51.01416848918579
 20
66.68854195325567
 10
54.64898082561493
 20
66.68854195325567
 10
54.64898082561493
 20
66.1692830480515
 10
51.01416848918579
 20
66.1692830480515
  0
LWPOLYLINE
  5
D5
100
AcDbEntity
  8
obstacles
  6
ByLayer
 62
  256
370
   -1
100
AcDbPolyline
 90
    4
 70
    1
 43
0
 10
54.30482085356101
 20
66.69457984750223
 10
56.71394065793847
 20
66.69457984750223
 10
56.71394065793847
 20
66.16324515380494
 10
54.30482085356101
 20
66.16324515380494
  0
LWPOLYLINE
  5
D6
100
AcDbEntity
  8
spawns
  6
ByLayer
 62
  256
370
   -1
100
AcDbPolyline
 90
    4
 70
    1
 43
0
 10
31.85355638256321
 20
64.02757107883431
 10
52.0744759775304
 20
64.02757107883431
 10
52.0744759775304
 20
56.24043405573283
 10
31.85355638256321
 20
56.24043405573283
  0
LWPOLYLINE
  5
D7
100
AcDbEntity
  8
spawns
  6
ByLayer
 62
  256
370
   -1
100
AcDbPolyline
 90
    4
 70
    1
 43
0
 10
9.818402197965597
 20
22.03962012370337
 10
14.58260579613456
 20
22.03962012370337
 10
14.58260579613456
 20
5.261337886673548
 10
9.818402197965597
 20
5.261337886673548
  0
LWPOLYLINE
  5
D8
100
AcDbEntity
  8
exhibit
  6
ByLayer
 62
  256
370
   -1
100
AcDbPolyline
 90
    4
 70
    1
 43
0
 10
52.6510800043419
 20
50.99415160668973
 10
54.54782698586478
 20
50.99415160668973
 10
54.54782698586478
 20
52.69468338322748
 10
52.6510800043419
 20
52.69468338322748
  0
LWPOLYLINE
  5
D9
100
AcDbEntity
  8
exhibit
  6
ByLayer
 62
  256
370
   -1
100
AcDbPolyline
 90
    4
 70
    1
 43
0
 10
43.62181980596213
 20
52.75852194825138
 10
46.30646767569322
 20
52.75852194825138
 10
46.30646767569322
 20
50.71166335143982
 10
43.62181980596213
 20
50.71166335143982
  0
LWPOLYLINE
  5
DA
100
AcDbEntity
  8
exhibit
  6
ByLayer
 62
  256
370
   -1
100
AcDbPolyline
 90
    4
 70
    1
 43
0
 10
43.65786525360685
 20
49.74572767760884
 10
45.46167634220004
 20
49.74572767760884
 10
45.46167634220004
 20
47.94191658901566
 10
43.65786525360685
 20
47.94191658901566
  0
LWPOLYLINE
  5
DB
100
AcDbEntity
  8
exhibit
  6
ByLayer
 62
  256
370
   -1
100
AcDbPolyline
 90
    4
 70
    1
 43
0
 10
52.76147434135057
 20
49.91483496716445
 10
54.56528542994375
 20
49.91483496716445
 10
54.56528542994375
 20
48.19557752334908
 10
52.76147434135057
 20
48.19557752334908
  0
LWPOLYLINE
  5
DC
100
AcDbEntity
  8
exhibit
  6
ByLayer
 62
  256
370
   -1
100
AcDbPolyline
 90
    4
 70
    1
 43
0
 10
24.02007674866423
 20
26.20146658755221
 10
28.33327938464728
 20
26.20146658755221
 10
28.33327938464728
 20
22.45839993218761
 10
24.02007674866423
 20
22.45839993218761
  0
LWPOLYLINE
  5
DD
100
AcDbEntity
  8
exhibit
  6
ByLayer
 62
  256
370
   -1
100
AcDbPolyline
 90
    4
 70
    1
 43
0
 10
32.1138885492324
 20
26.14022564190743
 10
37.06287205274615
 20
26.14022564190743
 10
37.06287205274615
 20
22.54294688384678
 10
32.1138885492324
 20
22.54294688384678
  0
LWPOLYLINE
  5
DE
100
AcDbEntity
  8
exhibit
  6
ByLayer
 62
  256
370
   -1
100
AcDbPolyline
 90
    4
 70
    1
 43
0
 10
43.68689621203511
 20
46.05524337949323
 10
45.43582950492726
 20
46.05524337949323
 10
45.43582950492726
 20
40.95418794189113
 10
43.68689621203511
 20
40.95418794189113
  0
LWPOLYLINE
  5
DF
100
AcDbEntity
  8
exhibit
  6
ByLayer
 62
  256
370
   -1
100
AcDbPolyline
 90
    4
 70
    1
 43
0
 10
52.97810433052464
 20
46.09167948976181
 10
54.58129318234244
 20
46.09167948976181
 10
54.58129318234244
 20
40.91775183162254
 10
52.97810433052464
 20
40.91775183162254
  0
LWPOLYLINE
  5
E0
100
AcDbEntity
  8
exhibit
  6
ByLayer
 62
  256
370
   -1
100
AcDbPolyline
 90
    4
 70
    1
 43
0
 10
48.51738869537367
 20
39.16000593510345
 10
50.40809274625018
 20
39.16000593510345
 10
50.40809274625018
 20
37.17316439011456
 10
48.51738869537367
 20
37.17316439011456
  0
LWPOLYLINE
  5
E1
100
AcDbEntity
  8
exhibit
  6
ByLayer
 62
  256
370
   -1
100
AcDbPolyline
 90
    4
 70
    1
 43
0
 10
48.57416407854035
 20
46.72102047590304
 10
50.77613471226233
 20
46.72102047590304
 10
50.77613471226233
 20
44.91148025215131
 10
48.57416407854035
 20
44.91148025215131
  0
LWPOLYLINE
  5
E2
100
AcDbEntity
  8
exhibit
  6
ByLayer
 62
  256
370
   -1
100
AcDbPolyline
 90
    4
 70
    1
 43
0
 10
43.65258529865621
 20
39.3641711835696
 10
45.48693584499384
 20
39.3641711835696
 10
45.48693584499384
 20
36.98447317750998
 10
43.65258529865621
 20
36.98447317750998
  0
LWPOLYLINE
  5
E3
100
AcDbEntity
  8
exhibit
  6
ByLayer
 62
  256
370
   -1
100
AcDbPolyline
 90
    4
 70
    1
 43
0
 10
53.22095436468761
 20
39.21544005819087
 10
54.5843230139926
 20
39.21544005819087
 10
54.5843230139926
 20
36.81095353123479
 10
53.22095436468761
 20
36.81095353123479
  0
LWPOLYLINE
  5
E4
100
AcDbEntity
  8
exhibit
  6
ByLayer
 62
  256
370
   -1
100
AcDbPolyline
 90
    4
 70
    1
 43
0
 10
43.62968070534792
 20
34.9206552932339
 10
45.68715272827454
 20
34.9206552932339
 10
45.68715272827454
 20
31.11574127823263
 10
43.62968070534792
 20
31.11574127823263
  0
LWPOLYLINE
  5
E5
100
AcDbEntity
  8
exhibit
  6
ByLayer
 62
  256
370
   -1
100
AcDbPolyline
 90
    4
 70
    1
 43
0
 10
43.71423435012573
 20
29.17100744834309
 10
45.94081366260796
 20
29.17100744834309
 10
45.94081366260796
 20
23.6750205377857
 10
43.71423435012573
 20
23.6750205377857
  0
LWPOLYLINE
  5
E6
100
AcDbEntity
  8
exhibit
  6
ByLayer
 62
  256
370
   -1
100
AcDbPolyline
 90
    4
 70
    1
 43
0
 10
52.98695072742513
 20
23.6750205377857
 10
54.59346997820344
 20
23.6750205377857
 10
54.59346997820344
 20
29.42466838267651
 10
52.98695072742513
 20
29.42466838267651
  0
LWPOLYLINE
  5
E7
100
AcDbEntity
  8
exhibit
  6
ByLayer
 62
  256
370
   -1
100
AcDbPolyline
 90
    4
 70
    1
 43
0
 10
52.87421253438806
 20
31.1439258264919
 10
54.67802362298125
 20
31.1439258264919
 10
54.67802362298125
 20
35.34342351712293
 10
52.87421253438806
 20
35.34342351712293
  0
LWPOLYLINE
  5
E8
100
AcDbEntity
  8
exhibit
  6
ByLayer
 62
  256
370
   -1
100
AcDbPolyline
 90
    4
 70
    1
 43
0
 10
43.8386973152387
 20
18.26612388134946
 10
46.85100546409282
 20
18.26612388134946
 10
46.85100546409282
 20
15.83064069716953
 10
43.8386973152387
 20
15.83064069716953
  0
LWPOLYLINE
  5
E9
100
AcDbEntity
  8
exhibit
  6
ByLayer
 62
  256
370
   -1
100
AcDbPolyline
 90
    4
 70
    1
 43
0
 10
53.19608007550895
 20
18.39430720683261
 10
56.4327090439586
 20
18.39430720683261
 10
56.4327090439586
 20
15.89473235991111
 10
53.19608007550895
 20
15.89473235991111
  0
LWPOLYLINE
  5
EA
100
AcDbEntity
  8
exhibit
  6
ByLayer
 62
  256
370
   -1
100
AcDbPolyline
 90
    4
 70
    1
 43
0
 10
48.8698928404525
 20
7.626907866247669
 10
52.87562176180106
 20
7.626907866247669
 10
52.87562176180106
 20
11.4403617993715
 10
48.8698928404525
 20
11.4403617993715
  0
LWPOLYLINE
  5
EB
100
AcDbEntity
  8
exhibit
  6
ByLayer
 62
  256
370
   -1
100
AcDbPolyline
 90
    4
 70
    1
 43
0
 10
48.0977424128196
 20
31.36088803316489
 10
51.2462595733487
 20
31.36088803316489
 10
51.2462595733487
 20
26.01669443174049
 10
48.0977424128196
 20
26.01669443174049
  0
LWPOLYLINE
  5
EC
100
AcDbEntity
  8
exhibit
  6
ByLayer
 62
  256
370
   -1
100
AcDbPolyline
 90
    4
 70
    1
 43
0
 10
28.97304551280458
 20
65.90361179848402
 10
32.46284980355934
 20
65.90361179848402
 10
32.46284980355934
 20
61.80021554451964
 10
28.97304551280458
 20
61.80021554451964
  0
LWPOLYLINE
  5
ED
100
AcDbEntity
  8
exhibit
  6
ByLayer
 62
  256
370
   -1
100
AcDbPolyline
 90
    4
 70
    1
 43
0
 10
34.25146430515488
 20
64.77591058399798
 10
48.73792803638484
 20
64.77591058399798
 10
48.73792803638484
 20
62.51608969926595
 10
34.25146430515488
 20
62.51608969926595
  0
LWPOLYLINE
  5
EE
100
AcDbEntity
  8
exhibit
  6
ByLayer
 62
  256
370
   -1
100
AcDbPolyline
 90
    4
 70
    1
 43
0
 10
32.50119930126011
 20
57.06405257849562
 10
36.3553238201706
 20
57.06405257849562
 10
36.3553238201706
 20
54.74390796760921
 10
32.50119930126011
 20
54.74390796760921
  0
LWPOLYLINE
  5
EF
100
AcDbEntity
  8
exhibit
  6
ByLayer
 62
  256
370
   -1
100
AcDbPolyline
 90
    4
 70
    1
 43
0
 10
19.55824382730707
 20
57.81186778365768
 10
30.14270519267325
 20
57.81186778365768
 10
30.14270519267325
 20
54.97400495381312
 10
19.55824382730707
 20
54.97400495381312
  0
LWPOLYLINE
  5
F0
100
AcDbEntity
  8
exhibit
  6
ByLayer
 62
  256
370
   -1
100
AcDbPolyline
 90
    4
 70
    1
 43
0
 10
49.72802168843689
 20
58.80742963574856
 10
55.74182494089477
 20
58.80742963574856
 10
55.74182494089477
 20
56.34190075350444
 10
49.72802168843689
 20
56.34190075350444
  0
LWPOLYLINE
  5
F1
100
AcDbEntity
  8
obstacles
  6
ByLayer
 62
  256
370
   -1
100
AcDbPolyline
 90
    4
 70
    1
 43
0
 10
38.56933521648231
 20
18.97395867792578
 10
42.50498166714377
 20
18.97395867792578
 10
42.50498166714377
 20
8.824133620956747
 10
38.56933521648231
 20
8.824133620956747
  0
LWPOLYLINE
  5
F2
100
AcDbEntity
  8
viewing_area
  6
ByLayer
 62
  256
370
   -1
100
AcDbPolyline
 90
    4
 70
    1
 43
0
 10
20.35152690550067
 20
17.88792101694007
 10
37.59676812542493
 20
17.88792101694007
 10
37.59676812542493
 20
8.033497462697635
 10
20.35152690550067
 20
8.033497462697635
  0
LWPOLYLINE
  5
F3
100
AcDbEntity
  8
exit
  6
ByLayer
 62
  256
370
   -1
100
AcDbPolyline
 90
    4
 70
    1
 43
0
 10
49.846577611181
 20
68.85321971628996
 10
50.30710815910767
 20
68.85321971628996
 10
50.30710815910767
 20
68.30682754078374
 10
49.846577611181
 20
68.30682754078374
  0
LWPOLYLINE
  5
F4
100
AcDbEntity
  8
exit
  6
ByLayer
 62
  256
370
   -1
100
AcDbPolyline
 90
    4
 70
    1
 43
0
 10
40.23626762962579
 20
5.444013006362951
 10
41.22483997882664
 20
5.444013006362951
 10
41.22483997882664
 20
4.949726831762532
 10
40.23626762962579
 20
4.949726831762532
  0
LWPOLYLINE
  5
F5
100
AcDbEntity
  8
exit
  6
ByLayer
 62
  256
370
   -1
100
AcDbPolyline
 90
    4
 70
    1
 43
0
 10
16.98475452212632
 20
4.552749100016964
 10
18.04140975737381
 20
4.552749100016964
 10
18.04140975737381
 20
3.587409749297034
 10
16.98475452212632
 20
3.587409749297034
  0
LWPOLYLINE
  5
F6
100
AcDbEntity
  8
exit
  6
ByLayer
 62
  256
370
   -1
100
AcDbPolyline
 90
    4
 70
    1
 43
0
 10
3.132207120998132
 20
14.02035568446783
 10
3.855024148920778
 20
14.02035568446783
 10
3.855024148920778
 20
12.72387434867007
 10
3.132207120998132
 20
12.72387434867007
  0
ENDSEC
  0
SECTION
  2
OBJECTS
  0
DICTIONARY
  5
C
330
0
100
AcDbDictionary
281
    1
  3
ACAD_GROUP
350
D
  3
ACAD_IMAGE_DICT
350
F7
  0
DICTIONARY
  5
D
330
C
100
AcDbDictionary
281
    1
  0
IMAGEDEF_REACTOR
  5
53
330
54
100
AcDbRasterImageDefReactor
 90
    2
330
54
  0
DICTIONARY
  5
F7
330
C
100
AcDbDictionary
281
    1
  3
museum
350
52
  0
IMAGEDEF
  5
52
102
{ACAD_REACTORS
330
53
102
}
100
AcDbRasterImageDef
 90
    0
  1
C:/Users/Rolland/Desktop/museum.jpg
 10
500
 20
628
 11
1
 21
1
280
    1
281
    0
  0
PLOTSETTINGS
  5
F8
100
AcDbPlotSettings
  6
1x1
 40
0
 41
0
 42
0
 43
0
  0
ENDSEC
  0
EOF
