999
dxfrw 0.6.3
  0
SECTION
  2
HEADER
  9
$ACADVER
  1
AC1021
  9
$DWGCODEPAGE
  3
ANSI_1252
  9
$INSBASE
 10
0
 20
0
 30
0
  9
$EXTMIN
 10
3.542393801329791
 20
4.040873737498667
 30
0
  9
$EXTMAX
 10
36.4698687133298
 20
7.388038807488466
 30
0
  9
$LIMMIN
 10
0
 20
0
  9
$LIMMAX
 10
12
 20
9
  9
$ORTHOMODE
 70
    1
  9
$REGENMODE
 70
    1
  9
$FILLMODE
 70
    1
  9
$QTEXTMODE
 70
    0
  9
$MIRRTEXT
 70
    1
  9
$LTSCALE
 40
1
  9
$ATTMODE
 70
    1
  9
$TEXTSIZE
 40
36.960598
  9
$TRACEWID
 40
0.05
  9
$TEXTSTYLE
  7
STANDARD
  9
$CLAYER
  8
OBSTACLES
  9
$CELTYPE
  6
CONTINUOUS
  9
$CECOLOR
 62
  256
  9
$CELTSCALE
 40
1
  9
$DISPSILH
 70
    0
  9
$DIMSCALE
 40
1
  9
$DIMASZ
 40
36
  9
$DIMEXO
 40
0.0625
  9
$DIMDLI
 40
0.375
  9
$DIMRND
 40
0
  9
$DIMDLE
 40
0
  9
$DIMEXE
 40
0.1875
  9
$DIMTP
 40
0
  9
$DIMTM
 40
0
  9
$DIMTXT
 40
0.18
  9
$DIMCEN
 40
0.0625
  9
$DIMTSZ
 40
0
  9
$DIMTOL
 70
    0
  9
$DIMLIM
 70
    0
  9
$DIMTIH
 70
    1
  9
$DIMTOH
 70
    1
  9
$DIMSE1
 70
    0
  9
$DIMSE2
 70
    0
  9
$DIMTAD
 70
    0
  9
$DIMZIN
 70
    0
  9
$DIMBLK
  1

  9
$DIMASO
 70
    0
  9
$DIMSHO
 70
    1
  9
$DIMPOST
  1

  9
$DIMAPOST
  1

  9
$DIMALT
 70
    0
  9
$DIMALTD
 70
    2
  9
$DIMALTF
 40
25.4
  9
$DIMLFAC
 40
1
  9
$DIMTOFL
 70
    0
  9
$DIMTVP
 40
0
  9
$DIMTIX
 70
    0
  9
$DIMSOXD
 70
    0
  9
$DIMSAH
 70
    0
  9
$DIMBLK1
  1

  9
$DIMBLK2
  1

  9
$DIMSTYLE
  2
STANDARD
  9
$DIMCLRD
 70
    0
  9
$DIMCLRE
 70
    0
  9
$DIMCLRT
 70
    0
  9
$DIMTFAC
 40
1
  9
$DIMGAP
 40
0.09
  9
$DIMJUST
 70
    0
  9
$DIMSD1
 70
    0
  9
$DIMSD2
 70
    0
  9
$DIMTOLJ
 70
    1
  9
$DIMTZIN
 70
    0
  9
$DIMALTZ
 70
    0
  9
$DIMALTTZ
 70
    0
  9
$DIMUPT
 70
    0
  9
$DIMDEC
 70
    4
  9
$DIMTDEC
 70
    4
  9
$DIMALTU
 70
    2
  9
$DIMALTTD
 70
    2
  9
$DIMTXSTY
  7
standard
  9
$DIMAUNIT
 70
    0
  9
$DIMADEC
 70
    0
  9
$DIMALTRND
 40
0
  9
$DIMAZIN
 70
    0
  9
$DIMDSEP
 70
   44
  9
$DIMATFIT
 70
    3
  9
$DIMFRAC
 70
    0
  9
$DIMLDRBLK
  1
STANDARD
  9
$DIMLUNIT
 70
    2
  9
$DIMLWD
 70
   -2
  9
$DIMLWE
 70
   -2
  9
$DIMTMOVE
 70
    0
  9
$DIMFXL
 40
1
  9
$DIMFXLON
 70
    0
  9
$DIMJOGANG
 40
0.7854
  9
$DIMTFILL
 70
    0
  9
$DIMTFILLCLR
 70
    0
  9
$DIMARCSYM
 70
    0
  9
$DIMLTYPE
  6

  9
$DIMLTEX1
  6

  9
$DIMLTEX2
  6

  9
$LUNITS
 70
    2
  9
$LUPREC
 70
    4
  9
$SKETCHINC
 40
0.1
  9
$FILLETRAD
 40
0
  9
$AUNITS
 70
    0
  9
$AUPREC
 70
    0
  9
$MENU
  1
acad
  9
$ELEVATION
 40
0
  9
$PELEVATION
 40
0
  9
$THICKNESS
 40
0
  9
$LIMCHECK
 70
    0
  9
$CHAMFERA
 40
0
  9
$CHAMFERB
 40
0
  9
$CHAMFERC
 40
0
  9
$CHAMFERD
 40
0
  9
$SKPOLY
 70
    0
  9
$USRTIMER
 70
    1
  9
$ANGBASE
 50
0
  9
$ANGDIR
 70
    0
  9
$PDMODE
 70
    0
  9
$PDSIZE
 40
0
  9
$PLINEWID
 40
0
  9
$SPLFRAME
 70
    0
  9
$SPLINETYPE
 70
    6
  9
$SPLINESEGS
 70
   10
  9
$HANDSEED
  5
20000
  9
$SURFTAB1
 70
    6
  9
$SURFTAB2
 70
    6
  9
$SURFTYPE
 70
    6
  9
$SURFU
 70
    6
  9
$SURFV
 70
    6
  9
$UCSBASE
  2

  9
$UCSNAME
  2

  9
$UCSORG
 10
0
 20
0
 30
0
  9
$UCSXDIR
 10
1
 20
0
 30
0
  9
$UCSYDIR
 10
0
 20
1
 30
0
  9
$UCSORTHOREF
  2

  9
$UCSORTHOVIEW
 70
    0
  9
$UCSORGTOP
 10
0
 20
0
 30
0
  9
$UCSORGBOTTOM
 10
0
 20
0
 30
0
  9
$UCSORGLEFT
 10
0
 20
0
 30
0
  9
$UCSORGRIGHT
 10
0
 20
0
 30
0
  9
$UCSORGFRONT
 10
0
 20
0
 30
0
  9
$UCSORGBACK
 10
0
 20
0
 30
0
  9
$PUCSBASE
  2

  9
$PUCSNAME
  2

  9
$PUCSORG
 10
0
 20
0
 30
0
  9
$PUCSXDIR
 10
1
 20
0
 30
0
  9
$PUCSYDIR
 10
0
 20
1
 30
0
  9
$PUCSORTHOREF
  2

  9
$PUCSORTHOVIEW
 70
    0
  9
$PUCSORGTOP
 10
0
 20
0
 30
0
  9
$PUCSORGBOTTOM
 10
0
 20
0
 30
0
  9
$PUCSORGLEFT
 10
0
 20
0
 30
0
  9
$PUCSORGRIGHT
 10
0
 20
0
 30
0
  9
$PUCSORGFRONT
 10
0
 20
0
 30
0
  9
$PUCSORGBACK
 10
0
 20
0
 30
0
  9
$USERI1
 70
    0
  9
$USERI2
 70
    0
  9
$USERI3
 70
    0
  9
$USERI4
 70
    0
  9
$USERI5
 70
    0
  9
$USERR1
 40
0
  9
$USERR2
 40
0
  9
$USERR3
 40
0
  9
$USERR4
 40
0
  9
$USERR5
 40
0
  9
$WORLDVIEW
 70
    1
  9
$SHADEDGE
 70
    3
  9
$SHADEDIF
 70
   70
  9
$TILEMODE
 70
    1
  9
$MAXACTVP
 70
   16
  9
$PINSBASE
 10
0
 20
0
 30
0
  9
$PLIMCHECK
 70
    0
  9
$PEXTMIN
 10
-1e+20
 20
-1e+20
 30
-1e+20
  9
$PEXTMAX
 10
-1e+20
 20
-1e+20
 30
-1e+20
  9
$GRIDMODE
 70
    0
  9
$SNAPSTYLE
 70
    0
  9
$GRIDUNIT
 10
0
 20
0
  9
$PLIMMIN
 10
0
 20
0
  9
$PLIMMAX
 10
0.3048
 20
0.2286
  9
$UNITMODE
 70
    0
  9
$VISRETAIN
 70
    0
  9
$PLINEGEN
 70
    1
  9
$PSLTSCALE
 70
    0
  9
$TREEDEPTH
 70
 3020
  9
$CMLSTYLE
  2
STANDARD
  9
$CMLJUST
 70
    0
  9
$CMLSCALE
 40
1
  9
$PROXYGRAPHICS
 70
    1
  9
$MEASUREMENT
 70
    1
  9
$CELWEIGHT
370
   -1
  9
$ENDCAPS
280
    0
  9
$JOINSTYLE
280
    0
  9
$LWDISPLAY
290
    0
  9
$INSUNITS
 70
    6
  9
$HYPERLINKBASE
  1

  9
$STYLESHEET
  1

  9
$XEDIT
290
    1
  9
$CEPSNTYPE
380
    0
  9
$PSTYLEMODE
290
    1
  9
$EXTNAMES
290
    1
  9
$PSVPSCALE
 40
1
  9
$OLESTARTUP
290
    0
  9
$SORTENTS
280
  127
  9
$INDEXCTL
280
    0
  9
$HIDETEXT
280
    1
  9
$XCLIPFRAME
290
    0
  9
$HALOGAP
280
    0
  9
$OBSCOLOR
 70
  257
  9
$OBSLTYPE
280
    0
  9
$INTERSECTIONDISPLAY
280
    0
  9
$INTERSECTIONCOLOR
 70
  257
  9
$DIMASSOC
280
    1
  9
$PROJECTNAME
  1

  9
$CAMERADISPLAY
290
    0
  9
$LENSLENGTH
 40
50
  9
$CAMERAHEIGHT
 40
0
  9
$STEPSPERSEC
 40
2
  9
$STEPSIZE
 40
50
  9
$3DDWFPREC
 40
2
  9
$PSOLWIDTH
 40
5
  9
$PSOLHEIGHT
 40
80
  9
$LOFTANG1
 40
1.570796326794897
  9
$LOFTANG2
 40
1.570796326794897
  9
$LOFTMAG1
 40
0
  9
$LOFTMAG2
 40
0
  9
$LOFTPARAM
 70
    7
  9
$LOFTNORMALS
280
    1
  9
$LATITUDE
 40
1
  9
$LONGITUDE
 40
1
  9
$NORTHDIRECTION
 40
0
  9
$TIMEZONE
 70
-8000
  9
$LIGHTGLYPHDISPLAY
280
    1
  9
$TILEMODELIGHTSYNCH
280
    1
  9
$SOLIDHIST
280
    1
  9
$SHOWHIST
280
    1
  9
$DWFFRAME
280
    2
  9
$DGNFRAME
280
    0
  9
$REALWORLDSCALE
290
    1
  9
$INTERFERECOLOR
 62
    1
  9
$CSHADOW
280
    0
  9
$SHADOWPLANELOCATION
 40
0
  0
ENDSEC
  0
SECTION
  2
CLASSES
  0
ENDSEC
  0
SECTION
  2
TABLES
  0
TABLE
  2
VPORT
  5
8
330
0
100
AcDbSymbolTable
 70
    1
  0
VPORT
  5
31
330
2
100
AcDbSymbolTableRecord
100
AcDbViewportTableRecord
  2
*ACTIVE
 70
    0
 10
0
 20
0
 11
1
 21
1
 12
5.451953974982064
 22
3.790257122311521
 13
0
 23
0
 14
10
 24
10
 15
10
 25
10
 16
0
 26
0
 36
1
 17
0
 27
0
 37
0
 40
2.846904238536209
 41
1.577345731191885
 42
50
 43
0
 44
0
 50
0
 51
0
 71
    0
 72
  100
 73
    1
 74
    3
 75
    0
 76
    0
 77
    0
 78
    0
281
    0
 65
    1
110
0
120
0
130
0
111
1
121
0
131
0
112
0
122
1
132
0
 79
    0
146
0
348
10020
 60
    7
 61
    5
292
1
282
    1
141
0
142
0
 63
  250
421
3358443
  0
ENDTAB
  0
TABLE
  2
LTYPE
  5
5
330
0
100
AcDbSymbolTable
 70
    4
  0
LTYPE
  5
14
330
5
100
AcDbSymbolTableRecord
100
AcDbLinetypeTableRecord
  2
ByBlock
 70
    0
  3

 72
   65
 73
    0
 40
0
  0
LTYPE
  5
15
330
5
100
AcDbSymbolTableRecord
100
AcDbLinetypeTableRecord
  2
ByLayer
 70
    0
  3

 72
   65
 73
    0
 40
0
  0
LTYPE
  5
16
330
5
100
AcDbSymbolTableRecord
100
AcDbLinetypeTableRecord
  2
Continuous
 70
    0
  3
Solid line
 72
   65
 73
    0
 40
0
  0
LTYPE
  5
32
330
5
100
AcDbSymbolTableRecord
100
AcDbLinetypeTableRecord
  2
DOT
 70
    0
  3
Dot . . . . . . . . . . . . . . . . . . . . . .
 72
   65
 73
    2
 40
6.35
 49
0
 74
    0
 49
-6.35
 74
    0
  0
LTYPE
  5
33
330
5
100
AcDbSymbolTableRecord
100
AcDbLinetypeTableRecord
  2
DOTTINY
 70
    0
  3
Dot (.15x) .....................................
 72
   65
 73
    2
 40
0.9525
 49
0
 74
    0
 49
-0.9525
 74
    0
  0
LTYPE
  5
34
330
5
100
AcDbSymbolTableRecord
100
AcDbLinetypeTableRecord
  2
DOT2
 70
    0
  3
Dot (.5x) .....................................
 72
   65
 73
    2
 40
3.175
 49
0
 74
    0
 49
-3.175
 74
    0
  0
LTYPE
  5
35
330
5
100
AcDbSymbolTableRecord
100
AcDbLinetypeTableRecord
  2
DOTX2
 70
    0
  3
Dot (2x) .  .  .  .  .  .  .  .  .  .  .  .  .
 72
   65
 73
    2
 40
12.7
 49
0
 74
    0
 49
-12.7
 74
    0
  0
LTYPE
  5
36
330
5
100
AcDbSymbolTableRecord
100
AcDbLinetypeTableRecord
  2
DASHED
 70
    0
  3
Dashed _ _ _ _ _ _ _ _ _ _ _ _ _ _ _ _ _
 72
   65
 73
    2
 40
19.05
 49
12.7
 74
    0
 49
-6.35
 74
    0
  0
LTYPE
  5
37
330
5
100
AcDbSymbolTableRecord
100
AcDbLinetypeTableRecord
  2
DASHEDTINY
 70
    0
  3
Dashed (.15x) _ _ _ _ _ _ _ _ _ _ _ _ _ _ _ _ _
 72
   65
 73
    2
 40
2.8575
 49
1.905
 74
    0
 49
-0.9525
 74
    0
  0
LTYPE
  5
38
330
5
100
AcDbSymbolTableRecord
100
AcDbLinetypeTableRecord
  2
DASHED2
 70
    0
  3
Dashed (.5x) _ _ _ _ _ _ _ _ _ _ _ _ _ _ _ _ _
 72
   65
 73
    2
 40
9.524999999999999
 49
6.35
 74
    0
 49
-3.175
 74
    0
  0
LTYPE
  5
39
330
5
100
AcDbSymbolTableRecord
100
AcDbLinetypeTableRecord
  2
DASHEDX2
 70
    0
  3
Dashed (2x) ____  ____  ____  ____  ____  ___
 72
   65
 73
    2
 40
38.09999999999999
 49
25.4
 74
    0
 49
-12.7
 74
    0
  0
LTYPE
  5
3A
330
5
100
AcDbSymbolTableRecord
100
AcDbLinetypeTableRecord
  2
DASHDOT
 70
    0
  3
Dash dot __ . __ . __ . __ . __ . __ . __ . __
 72
   65
 73
    4
 40
25.4
 49
12.7
 74
    0
 49
-6.35
 74
    0
 49
0
 74
    0
 49
-6.35
 74
    0
  0
LTYPE
  5
3B
330
5
100
AcDbSymbolTableRecord
100
AcDbLinetypeTableRecord
  2
DASHDOTTINY
 70
    0
  3
Dash dot (.15x) _._._._._._._._._._._._._._._.
 72
   65
 73
    4
 40
3.81
 49
1.905
 74
    0
 49
-0.9525
 74
    0
 49
0
 74
    0
 49
-0.9525
 74
    0
  0
LTYPE
  5
3C
330
5
100
AcDbSymbolTableRecord
100
AcDbLinetypeTableRecord
  2
DASHDOT2
 70
    0
  3
Dash dot (.5x) _._._._._._._._._._._._._._._.
 72
   65
 73
    4
 40
12.7
 49
6.35
 74
    0
 49
-3.175
 74
    0
 49
0
 74
    0
 49
-3.175
 74
    0
  0
LTYPE
  5
3D
330
5
100
AcDbSymbolTableRecord
100
AcDbLinetypeTableRecord
  2
DASHDOTX2
 70
    0
  3
Dash dot (2x) ____  .  ____  .  ____  .  ___
 72
   65
 73
    4
 40
50.8
 49
25.4
 74
    0
 49
-12.7
 74
    0
 49
0
 74
    0
 49
-12.7
 74
    0
  0
LTYPE
  5
3E
330
5
100
AcDbSymbolTableRecord
100
AcDbLinetypeTableRecord
  2
DIVIDE
 70
    0
  3
Divide ____ . . ____ . . ____ . . ____ . . ____
 72
   65
 73
    6
 40
31.75
 49
12.7
 74
    0
 49
-6.35
 74
    0
 49
0
 74
    0
 49
-6.35
 74
    0
 49
0
 74
    0
 49
-6.35
 74
    0
  0
LTYPE
  5
3F
330
5
100
AcDbSymbolTableRecord
100
AcDbLinetypeTableRecord
  2
DIVIDETINY
 70
    0
  3
Divide (.15x) __..__..__..__..__..__..__..__.._
 72
   65
 73
    6
 40
4.7625
 49
1.905
 74
    0
 49
-0.9525
 74
    0
 49
0
 74
    0
 49
-0.9525
 74
    0
 49
0
 74
    0
 49
-0.9525
 74
    0
  0
LTYPE
  5
40
330
5
100
AcDbSymbolTableRecord
100
AcDbLinetypeTableRecord
  2
DIVIDE2
 70
    0
  3
Divide (.5x) __..__..__..__..__..__..__..__.._
 72
   65
 73
    6
 40
15.875
 49
6.35
 74
    0
 49
-3.175
 74
    0
 49
0
 74
    0
 49
-3.175
 74
    0
 49
0
 74
    0
 49
-3.175
 74
    0
  0
LTYPE
  5
41
330
5
100
AcDbSymbolTableRecord
100
AcDbLinetypeTableRecord
  2
DIVIDEX2
 70
    0
  3
Divide (2x) ________  .  .  ________  .  .  _
 72
   65
 73
    6
 40
63.5
 49
25.4
 74
    0
 49
-12.7
 74
    0
 49
0
 74
    0
 49
-12.7
 74
    0
 49
0
 74
    0
 49
-12.7
 74
    0
  0
LTYPE
  5
42
330
5
100
AcDbSymbolTableRecord
100
AcDbLinetypeTableRecord
  2
BORDER
 70
    0
  3
Border __ __ . __ __ . __ __ . __ __ . __ __ .
 72
   65
 73
    6
 40
44.45
 49
12.7
 74
    0
 49
-6.35
 74
    0
 49
12.7
 74
    0
 49
-6.35
 74
    0
 49
0
 74
    0
 49
-6.35
 74
    0
  0
LTYPE
  5
43
330
5
100
AcDbSymbolTableRecord
100
AcDbLinetypeTableRecord
  2
BORDERTINY
 70
    0
  3
Border (.15x) __.__.__.__.__.__.__.__.__.__.__.
 72
   65
 73
    6
 40
6.6675
 49
1.905
 74
    0
 49
-0.9525
 74
    0
 49
1.905
 74
    0
 49
-0.9525
 74
    0
 49
0
 74
    0
 49
-0.9525
 74
    0
  0
LTYPE
  5
44
330
5
100
AcDbSymbolTableRecord
100
AcDbLinetypeTableRecord
  2
BORDER2
 70
    0
  3
Border (.5x) __.__.__.__.__.__.__.__.__.__.__.
 72
   65
 73
    6
 40
22.225
 49
6.35
 74
    0
 49
-3.175
 74
    0
 49
6.35
 74
    0
 49
-3.175
 74
    0
 49
0
 74
    0
 49
-3.175
 74
    0
  0
LTYPE
  5
45
330
5
100
AcDbSymbolTableRecord
100
AcDbLinetypeTableRecord
  2
BORDERX2
 70
    0
  3
Border (2x) ____  ____  .  ____  ____  .  ___
 72
   65
 73
    6
 40
88.89999999999999
 49
25.4
 74
    0
 49
-12.7
 74
    0
 49
25.4
 74
    0
 49
-12.7
 74
    0
 49
0
 74
    0
 49
-12.7
 74
    0
  0
LTYPE
  5
46
330
5
100
AcDbSymbolTableRecord
100
AcDbLinetypeTableRecord
  2
CENTER
 70
    0
  3
Center ____ _ ____ _ ____ _ ____ _ ____ _ ____
 72
   65
 73
    4
 40
50.8
 49
31.75
 74
    0
 49
-6.35
 74
    0
 49
6.35
 74
    0
 49
-6.35
 74
    0
  0
LTYPE
  5
47
330
5
100
AcDbSymbolTableRecord
100
AcDbLinetypeTableRecord
  2
CENTERTINY
 70
    0
  3
Center (.15x) ___ _ ___ _ ___ _ ___ _ ___ _ ___
 72
   65
 73
    4
 40
7.62
 49
4.7625
 74
    0
 49
-0.9525
 74
    0
 49
0.9525
 74
    0
 49
-0.9525
 74
    0
  0
LTYPE
  5
48
330
5
100
AcDbSymbolTableRecord
100
AcDbLinetypeTableRecord
  2
CENTER2
 70
    0
  3
Center (.5x) ___ _ ___ _ ___ _ ___ _ ___ _ ___
 72
   65
 73
    4
 40
28.575
 49
19.05
 74
    0
 49
-3.175
 74
    0
 49
3.175
 74
    0
 49
-3.175
 74
    0
  0
LTYPE
  5
49
330
5
100
AcDbSymbolTableRecord
100
AcDbLinetypeTableRecord
  2
CENTERX2
 70
    0
  3
Center (2x) ________  __  ________  __  _____
 72
   65
 73
    4
 40
101.6
 49
63.5
 74
    0
 49
-12.7
 74
    0
 49
12.7
 74
    0
 49
-12.7
 74
    0
  0
ENDTAB
  0
TABLE
  2
LAYER
  5
2
330
0
100
AcDbSymbolTable
 70
    1
  0
LAYER
  5
10
330
2
100
AcDbSymbolTableRecord
100
AcDbLayerTableRecord
  2
0
 70
    0
 62
    7
  6
CONTINUOUS
370
   -3
390
F
  0
LAYER
  5
4A
330
2
100
AcDbSymbolTableRecord
100
AcDbLayerTableRecord
  2
OBSTACLES
 70
    0
 62
    4
  6
CONTINUOUS
370
   -3
390
F
  0
LAYER
  5
4B
330
2
100
AcDbSymbolTableRecord
100
AcDbLayerTableRecord
  2
SPAWNS
 70
    0
 62
    2
  6
CONTINUOUS
370
    0
390
F
  0
LAYER
  5
4C
330
2
100
AcDbSymbolTableRecord
100
AcDbLayerTableRecord
  2
emergency
 70
    0
 62
    6
  6
CONTINUOUS
370
    0
390
F
  0
LAYER
  5
4D
330
2
100
AcDbSymbolTableRecord
100
AcDbLayerTableRecord
  2
exit
 70
    0
 62
    1
  6
CONTINUOUS
370
    0
390
F
  0
ENDTAB
  0
TABLE
  2
STYLE
  5
3
330
0
100
AcDbSymbolTable
 70
    3
  0
STYLE
  5
4E
330
2
100
AcDbSymbolTableRecord
100
AcDbTextStyleTableRecord
  2
txt
 70
    0
 40
0
 41
1
 50
0
 71
    0
 42
1
  3
txt
  4

  0
STYLE
  5
4F
330
2
100
AcDbSymbolTableRecord
100
AcDbTextStyleTableRecord
  2
Standard
 70
    0
 40
0
 41
1
 50
0
 71
    0
 42
1
  3
txt
  4

  0
ENDTAB
  0
TABLE
  2
VIEW
  5
6
330
0
100
AcDbSymbolTable
 70
    0
  0
ENDTAB
  0
TABLE
  2
UCS
  5
7
330
0
100
AcDbSymbolTable
 70
    0
  0
ENDTAB
  0
TABLE
  2
APPID
  5
9
330
0
100
AcDbSymbolTable
 70
    1
  0
APPID
  5
12
330
9
100
AcDbSymbolTableRecord
100
AcDbRegAppTableRecord
  2
ACAD
 70
    0
  0
APPID
  5
50
330
9
100
AcDbSymbolTableRecord
100
AcDbRegAppTableRecord
  2
LibreCad
 70
    0
  0
ENDTAB
  0
TABLE
  2
DIMSTYLE
  5
A
330
0
100
AcDbSymbolTable
 70
    1
100
AcDbDimStyleTable
 71
    1
  0
DIMSTYLE
105
51
330
A
100
AcDbSymbolTableRecord
100
AcDbDimStyleTableRecord
  2
Standard
 70
    0
 40
1
 41
36
 42
0.0625
 43
0.38
 44
0.1875
 45
0
 46
0
 47
0
 48
0
 49
1
140
0.18
141
0.09
142
0
143
25.4
144
1
145
0
146
1
147
0.09
148
0
 71
    0
 72
    0
 73
    1
 74
    1
 75
    0
 76
    0
 77
    0
 78
    0
 79
    0
170
    0
171
    2
172
    0
173
    0
174
    0
175
    0
176
    0
177
    0
178
    0
179
    0
271
    4
272
    4
273
    2
274
    2
275
    0
276
    0
277
    2
278
   44
279
    0
280
    0
281
    0
282
    0
283
    1
284
    0
285
    0
286
    0
288
    0
289
    3
340
standard
341

371
   -2
372
   -2
  0
ENDTAB
  0
TABLE
  2
BLOCK_RECORD
  5
1
330
0
100
AcDbSymbolTable
 70
    2
  0
BLOCK_RECORD
  5
1F
330
1
100
AcDbSymbolTableRecord
100
AcDbBlockTableRecord
  2
*Model_Space
 70
    0
280
    1
281
    0
  0
BLOCK_RECORD
  5
1E
330
1
100
AcDbSymbolTableRecord
100
AcDbBlockTableRecord
  2
*Paper_Space
 70
    0
280
    1
281
    0
  0
ENDTAB
  0
ENDSEC
  0
SECTION
  2
BLOCKS
  0
BLOCK
  5
20
330
1F
100
AcDbEntity
  8
0
100
AcDbBlockBegin
  2
*Model_Space
 70
    0
 10
0
 20
0
 30
0
  3
*Model_Space
  1

  0
ENDBLK
  5
21
330
1F
100
AcDbEntity
  8
0
100
AcDbBlockEnd
  0
BLOCK
  5
1C
330
1B
100
AcDbEntity
  8
0
100
AcDbBlockBegin
  2
*Paper_Space
 70
    0
 10
0
 20
0
 30
0
  3
*Paper_Space
  1

  0
ENDBLK
  5
1D
330
1F
100
AcDbEntity
  8
0
100
AcDbBlockEnd
  0
ENDSEC
  0
SECTION
  2
ENTITIES
  0
TEXT
  5
52
100
AcDbEntity
  8
OBSTACLES
  6
CONTINUOUS
 62
    7
370
   -1
100
AcDbText
 10
224.0552022287298
 20
28.80917138917233
 30
0
 40
6.7818
  1
 
 50
0
 41
1
 51
0
  7
txt
 71
    0
210
0
220
0
230
1
100
AcDbText
  0
LINE
  5
53
100
AcDbEntity
  8
OBSTACLES
  6
ByLayer
 62
  256
370
   -1
100
AcDbLine
 10
9.181623493129795
 20
4.04175656037233
 11
26.90917922412979
 21
4.04175656037233
  0
LINE
  5
54
100
AcDbEntity
  8
OBSTACLES
  6
ByLayer
 62
  256
370
   -1
100
AcDbLine
 10
35.3914672633298
 20
6.513981206972328
 11
35.88591219772979
 21
6.352007870772336
  0
LWPOLYLINE
  5
55
100
AcDbEntity
  8
OBSTACLES
  6
ByLayer
 62
  256
370
   -1
100
AcDbPolyline
 90
    3
 70
    0
 43
0
 10
36.4698687133298
 20
6.151672431972325
 10
36.32068272772979
 20
6.202821910572335
 10
35.88591219772979
 20
6.352007870772336
  0
LWPOLYLINE
  5
56
100
AcDbEntity
  8
OBSTACLES
  6
ByLayer
 62
  256
370
   -1
100
AcDbPolyline
 90
    3
 70
    0
 43
0
 10
36.4698687133298
 20
5.277868896372321
 10
36.3462574797298
 20
5.230981867972328
 10
35.9839486793298
 20
5.107370634372326
  0
LINE
  5
57
100
AcDbEntity
  8
OBSTACLES
  6
ByLayer
 62
  256
370
   -1
100
AcDbLine
 10
35.22523147692979
 20
4.868673092972325
 11
35.9839486793298
 21
5.107370634372326
  0
LINE
  5
58
100
AcDbEntity
  8
OBSTACLES
  6
ByLayer
 62
  256
370
   -1
100
AcDbLine
 10
35.3914672633298
 20
6.513981206972328
 11
35.22523147692979
 21
6.556605785172333
  0
LINE
  5
59
100
AcDbEntity
  8
OBSTACLES
  6
ByLayer
 62
  256
370
   -1
100
AcDbLine
 10
4.309635929529787
 20
4.924085021772338
 11
4.309635929529787
 21
5.71263942637233
  0
LINE
  5
5A
100
AcDbEntity
  8
OBSTACLES
  6
ByLayer
 62
  256
370
   -1
100
AcDbLine
 10
4.309635929529787
 20
6.496931380772334
 11
4.309635929529787
 21
5.71263942637233
  0
LWPOLYLINE
  5
5B
100
AcDbEntity
  8
OBSTACLES
  6
ByLayer
 62
  256
370
   -1
100
AcDbPolyline
 90
    3
 70
    0
 43
0
 10
3.542393801329791
 20
5.71263942637233
 10
3.572231003529797
 20
5.567715916372332
 10
3.653217658929794
 20
5.439842232572327
  0
LWPOLYLINE
  5
5C
100
AcDbEntity
  8
OBSTACLES
  6
ByLayer
 62
  256
370
   -1
100
AcDbPolyline
 90
    3
 70
    0
 43
0
 10
3.653217658929794
 20
5.989699095772333
 10
3.572231003529797
 20
5.861825411972329
 10
3.542393801329791
 20
5.71263942637233
  0
LWPOLYLINE
  5
5D
100
AcDbEntity
  8
OBSTACLES
  6
ByLayer
 62
  256
370
   -1
100
AcDbPolyline
 90
    4
 70
    1
 43
0
 10
9.436226078894432
 20
6.020583450737614
 10
9.220158621227878
 20
6.020583450737614
 10
9.220158621227878
 20
7.38778476797233
 10
9.436226078894432
 20
7.38778476797233
  0
LWPOLYLINE
  5
5E
100
AcDbEntity
  8
OBSTACLES
  6
ByLayer
 62
  256
370
   -1
100
AcDbPolyline
 90
    4
 70
    1
 43
0
 10
10.32128624150122
 20
6.02083749025375
 10
10.10521878383468
 20
6.02083749025375
 10
10.10521878383468
 20
7.388038807488466
 10
10.32128624150122
 20
7.388038807488466
  0
LINE
  5
5F
100
AcDbEntity
  8
OBSTACLES
  6
ByLayer
 62
  256
370
   -1
100
AcDbLine
 10
9.431729733986703
 20
4.04175656037233
 11
9.215662276320149
 21
4.04175656037233
  0
LINE
  5
60
100
AcDbEntity
  8
OBSTACLES
  6
ByLayer
 62
  256
370
   -1
100
AcDbLine
 10
10.31678989659349
 20
4.042010599888466
 11
10.10072243892695
 21
4.042010599888466
  0
LINE
  5
61
100
AcDbEntity
  8
OBSTACLES
  6
ByLayer
 62
  256
370
   -1
100
AcDbLine
 10
11.47265483266736
 20
4.04175656037233
 11
11.2565873750008
 21
4.04175656037233
  0
LINE
  5
62
100
AcDbEntity
  8
OBSTACLES
  6
ByLayer
 62
  256
370
   -1
100
AcDbLine
 10
12.2105514787578
 20
4.04175656037233
 11
11.99448402109125
 21
4.04175656037233
  0
LINE
  5
63
100
AcDbEntity
  8
OBSTACLES
  6
ByLayer
 62
  256
370
   -1
100
AcDbLine
 10
12.94844812484824
 20
4.04175656037233
 11
12.7323806671817
 21
4.04175656037233
  0
LINE
  5
64
100
AcDbEntity
  8
OBSTACLES
  6
ByLayer
 62
  256
370
   -1
100
AcDbLine
 10
13.68634477093869
 20
4.04175656037233
 11
13.47027731327214
 21
4.04175656037233
  0
LINE
  5
65
100
AcDbEntity
  8
OBSTACLES
  6
ByLayer
 62
  256
370
   -1
100
AcDbLine
 10
14.42424141702913
 20
4.04175656037233
 11
14.20817395936258
 21
4.04175656037233
  0
LINE
  5
66
100
AcDbEntity
  8
OBSTACLES
  6
ByLayer
 62
  256
370
   -1
100
AcDbLine
 10
15.16213806311957
 20
4.04175656037233
 11
14.94607060545303
 21
4.04175656037233
  0
LINE
  5
67
100
AcDbEntity
  8
OBSTACLES
  6
ByLayer
 62
  256
370
   -1
100
AcDbLine
 10
15.90003470921001
 20
4.04175656037233
 11
15.68396725154347
 21
4.04175656037233
  0
LINE
  5
68
100
AcDbEntity
  8
OBSTACLES
  6
ByLayer
 62
  256
370
   -1
100
AcDbLine
 10
16.63793135530046
 20
4.04175656037233
 11
16.42186389763391
 21
4.04175656037233
  0
LINE
  5
69
100
AcDbEntity
  8
OBSTACLES
  6
ByLayer
 62
  256
370
   -1
100
AcDbLine
 10
17.3758280013909
 20
4.04175656037233
 11
17.15976054372435
 21
4.04175656037233
  0
LINE
  5
6A
100
AcDbEntity
  8
OBSTACLES
  6
ByLayer
 62
  256
370
   -1
100
AcDbLine
 10
18.11372464748134
 20
4.04175656037233
 11
17.8976571898148
 21
4.04175656037233
  0
LINE
  5
6B
100
AcDbEntity
  8
OBSTACLES
  6
ByLayer
 62
  256
370
   -1
100
AcDbLine
 10
18.85162129357179
 20
4.04175656037233
 11
18.63555383590524
 21
4.04175656037233
  0
LINE
  5
6C
100
AcDbEntity
  8
OBSTACLES
  6
ByLayer
 62
  256
370
   -1
100
AcDbLine
 10
19.58951793966223
 20
4.04175656037233
 11
19.37345048199569
 21
4.04175656037233
  0
LINE
  5
6D
100
AcDbEntity
  8
OBSTACLES
  6
ByLayer
 62
  256
370
   -1
100
AcDbLine
 10
20.32741458575267
 20
4.04175656037233
 11
20.11134712808612
 21
4.04175656037233
  0
LINE
  5
6E
100
AcDbEntity
  8
OBSTACLES
  6
ByLayer
 62
  256
370
   -1
100
AcDbLine
 10
21.53122171751975
 20
4.04175656037233
 11
21.3151542598532
 21
4.04175656037233
  0
LINE
  5
6F
100
AcDbEntity
  8
OBSTACLES
  6
ByLayer
 62
  256
370
   -1
100
AcDbLine
 10
6.772043685239115
 20
4.188869954839073
 11
6.772043685239115
 21
5.410603340493135
  0
LINE
  5
70
100
AcDbEntity
  8
OBSTACLES
  6
ByLayer
 62
  256
370
   -1
100
AcDbLine
 10
6.772043685239115
 20
5.410603340493135
 11
6.549255352312617
 21
5.410603340493135
  0
LINE
  5
71
100
AcDbEntity
  8
OBSTACLES
  6
ByLayer
 62
  256
370
   -1
100
AcDbLine
 10
6.549255352312617
 20
5.410603340493135
 11
6.549255352312617
 21
4.225755440772285
  0
LINE
  5
72
100
AcDbEntity
  8
OBSTACLES
  6
ByLayer
 62
  256
370
   -1
100
AcDbLine
 10
6.559037282565672
 20
7.208195115415275
 11
6.559037282565672
 21
6.020528656200081
  0
LINE
  5
73
100
AcDbEntity
  8
OBSTACLES
  6
ByLayer
 62
  256
370
   -1
100
AcDbLine
 10
6.559037282565672
 20
6.020528656200081
 11
6.775108825173302
 21
6.020528656200081
  0
LINE
  5
74
100
AcDbEntity
  8
OBSTACLES
  6
ByLayer
 62
  256
370
   -1
100
AcDbLine
 10
6.775108825173302
 20
6.020528656200081
 11
6.775108825173302
 21
7.239675735427663
  0
LINE
  5
75
100
AcDbEntity
  8
OBSTACLES
  6
ByLayer
 62
  256
370
   -1
100
AcDbLine
 10
12.94901260265511
 20
4.04175656037233
 11
12.73294514498856
 21
4.04175656037233
  0
LINE
  5
76
100
AcDbEntity
  8
OBSTACLES
  6
ByLayer
 62
  256
370
   -1
100
AcDbLine
 10
13.68719148764898
 20
4.04175656037233
 11
13.47112402998244
 21
4.04175656037233
  0
LINE
  5
77
100
AcDbEntity
  8
OBSTACLES
  6
ByLayer
 62
  256
370
   -1
100
AcDbLine
 10
14.42537037264286
 20
4.04175656037233
 11
14.20930291497632
 21
4.04175656037233
  0
LINE
  5
78
100
AcDbEntity
  8
OBSTACLES
  6
ByLayer
 62
  256
370
   -1
100
AcDbLine
 10
15.16354925763674
 20
4.04175656037233
 11
14.94748179997019
 21
4.04175656037233
  0
LINE
  5
79
100
AcDbEntity
  8
OBSTACLES
  6
ByLayer
 62
  256
370
   -1
100
AcDbLine
 10
15.90172814263061
 20
4.04175656037233
 11
15.68566068496407
 21
4.04175656037233
  0
LINE
  5
7A
100
AcDbEntity
  8
OBSTACLES
  6
ByLayer
 62
  256
370
   -1
100
AcDbLine
 10
16.6399070276245
 20
4.04175656037233
 11
16.42383956995794
 21
4.04175656037233
  0
LINE
  5
7B
100
AcDbEntity
  8
OBSTACLES
  6
ByLayer
 62
  256
370
   -1
100
AcDbLine
 10
17.37808591261837
 20
4.04175656037233
 11
17.16201845495182
 21
4.04175656037233
  0
LINE
  5
7C
100
AcDbEntity
  8
OBSTACLES
  6
ByLayer
 62
  256
370
   -1
100
AcDbLine
 10
18.11626479761225
 20
4.04175656037233
 11
17.9001973399457
 21
4.04175656037233
  0
LINE
  5
7D
100
AcDbEntity
  8
OBSTACLES
  6
ByLayer
 62
  256
370
   -1
100
AcDbLine
 10
18.85444368260613
 20
4.04175656037233
 11
18.63837622493957
 21
4.04175656037233
  0
LINE
  5
7E
100
AcDbEntity
  8
OBSTACLES
  6
ByLayer
 62
  256
370
   -1
100
AcDbLine
 10
19.5926225676
 20
4.04175656037233
 11
19.37655510993345
 21
4.04175656037233
  0
LINE
  5
7F
100
AcDbEntity
  8
OBSTACLES
  6
ByLayer
 62
  256
370
   -1
100
AcDbLine
 10
20.33080145259389
 20
4.04175656037233
 11
20.11473399492733
 21
4.04175656037233
  0
LINE
  5
80
100
AcDbEntity
  8
OBSTACLES
  6
ByLayer
 62
  256
370
   -1
100
AcDbLine
 10
22.78290173212791
 20
4.04175656037233
 11
22.56683427446137
 21
4.04175656037233
  0
LINE
  5
81
100
AcDbEntity
  8
OBSTACLES
  6
ByLayer
 62
  256
370
   -1
100
AcDbLine
 10
23.52108061712179
 20
4.04175656037233
 11
23.30501315945524
 21
4.04175656037233
  0
LINE
  5
82
100
AcDbEntity
  8
OBSTACLES
  6
ByLayer
 62
  256
370
   -1
100
AcDbLine
 10
24.25925950211566
 20
4.04175656037233
 11
24.04319204444912
 21
4.04175656037233
  0
LINE
  5
83
100
AcDbEntity
  8
OBSTACLES
  6
ByLayer
 62
  256
370
   -1
100
AcDbLine
 10
24.99743838710955
 20
4.04175656037233
 11
24.781370929443
 21
4.04175656037233
  0
LINE
  5
84
100
AcDbEntity
  8
OBSTACLES
  6
ByLayer
 62
  256
370
   -1
100
AcDbLine
 10
25.73561727210342
 20
4.04175656037233
 11
25.51954981443687
 21
4.04175656037233
  0
LINE
  5
85
100
AcDbEntity
  8
OBSTACLES
  6
ByLayer
 62
  256
370
   -1
100
AcDbLine
 10
26.47379615709731
 20
4.04175656037233
 11
26.25772869943075
 21
4.04175656037233
  0
LINE
  5
86
100
AcDbEntity
  8
OBSTACLES
  6
ByLayer
 62
  256
370
   -1
100
AcDbLine
 10
9.181623493129795
 20
7.38778476797233
 11
26.90917922412979
 21
7.38778476797233
  0
LWPOLYLINE
  5
87
100
AcDbEntity
  8
OBSTACLES
  6
ByLayer
 62
  256
370
   -1
100
AcDbPolyline
 90
    4
 70
    1
 43
0
 10
9.436226078894432
 20
4.040873737498667
 10
9.220158621227878
 20
4.040873737498667
 10
9.220158621227878
 20
5.408075054733383
 10
9.436226078894432
 20
5.408075054733383
  0
LWPOLYLINE
  5
88
100
AcDbEntity
  8
OBSTACLES
  6
ByLayer
 62
  256
370
   -1
100
AcDbPolyline
 90
    4
 70
    1
 43
0
 10
10.32128624150122
 20
4.041127777014803
 10
10.10521878383468
 20
4.041127777014803
 10
10.10521878383468
 20
5.408329094249534
 10
10.32128624150122
 20
5.408329094249534
  0
LINE
  5
89
100
AcDbEntity
  8
OBSTACLES
  6
ByLayer
 62
  256
370
   -1
100
AcDbLine
 10
11.26108371990854
 20
7.38778476797233
 11
11.47715117757508
 21
7.38778476797233
  0
LINE
  5
8A
100
AcDbEntity
  8
OBSTACLES
  6
ByLayer
 62
  256
370
   -1
100
AcDbLine
 10
11.99898036599899
 20
7.38778476797233
 11
12.21504782366553
 21
7.38778476797233
  0
LINE
  5
8B
100
AcDbEntity
  8
OBSTACLES
  6
ByLayer
 62
  256
370
   -1
100
AcDbLine
 10
12.73687701208943
 20
7.38778476797233
 11
12.95294446975597
 21
7.38778476797233
  0
LINE
  5
8C
100
AcDbEntity
  8
OBSTACLES
  6
ByLayer
 62
  256
370
   -1
100
AcDbLine
 10
13.47477365817987
 20
7.38778476797233
 11
13.69084111584642
 21
7.38778476797233
  0
LINE
  5
8D
100
AcDbEntity
  8
OBSTACLES
  6
ByLayer
 62
  256
370
   -1
100
AcDbLine
 10
14.21267030427031
 20
7.38778476797233
 11
14.42873776193686
 21
7.38778476797233
  0
LINE
  5
8E
100
AcDbEntity
  8
OBSTACLES
  6
ByLayer
 62
  256
370
   -1
100
AcDbLine
 10
14.95056695036076
 20
7.38778476797233
 11
15.1666344080273
 21
7.38778476797233
  0
LINE
  5
8F
100
AcDbEntity
  8
OBSTACLES
  6
ByLayer
 62
  256
370
   -1
100
AcDbLine
 10
15.6884635964512
 20
7.38778476797233
 11
15.90453105411775
 21
7.38778476797233
  0
LINE
  5
90
100
AcDbEntity
  8
OBSTACLES
  6
ByLayer
 62
  256
370
   -1
100
AcDbLine
 10
16.42636024254164
 20
7.38778476797233
 11
16.64242770020819
 21
7.38778476797233
  0
LINE
  5
91
100
AcDbEntity
  8
OBSTACLES
  6
ByLayer
 62
  256
370
   -1
100
AcDbLine
 10
17.16425688863209
 20
7.38778476797233
 11
17.38032434629863
 21
7.38778476797233
  0
LINE
  5
92
100
AcDbEntity
  8
OBSTACLES
  6
ByLayer
 62
  256
370
   -1
100
AcDbLine
 10
17.90215353472253
 20
7.38778476797233
 11
18.11822099238908
 21
7.38778476797233
  0
LINE
  5
93
100
AcDbEntity
  8
OBSTACLES
  6
ByLayer
 62
  256
370
   -1
100
AcDbLine
 10
18.64005018081297
 20
7.38778476797233
 11
18.85611763847952
 21
7.38778476797233
  0
LINE
  5
94
100
AcDbEntity
  8
OBSTACLES
  6
ByLayer
 62
  256
370
   -1
100
AcDbLine
 10
19.37794682690341
 20
7.38778476797233
 11
19.59401428456996
 21
7.38778476797233
  0
LINE
  5
95
100
AcDbEntity
  8
OBSTACLES
  6
ByLayer
 62
  256
370
   -1
100
AcDbLine
 10
20.11584347299386
 20
7.38778476797233
 11
20.33191093066041
 21
7.38778476797233
  0
LINE
  5
96
100
AcDbEntity
  8
OBSTACLES
  6
ByLayer
 62
  256
370
   -1
100
AcDbLine
 10
21.31965060476093
 20
7.38778476797233
 11
21.53571806242749
 21
7.38778476797233
  0
LINE
  5
97
100
AcDbEntity
  8
OBSTACLES
  6
ByLayer
 62
  256
370
   -1
100
AcDbLine
 10
11.26108371990854
 20
5.792747646209388
 11
11.26108371990854
 21
7.38778476797233
  0
LINE
  5
98
100
AcDbEntity
  8
OBSTACLES
  6
ByLayer
 62
  256
370
   -1
100
AcDbLine
 10
11.47715117757508
 20
7.38778476797233
 11
11.47715117757508
 21
5.794349208206451
  0
LINE
  5
99
100
AcDbEntity
  8
OBSTACLES
  6
ByLayer
 62
  256
370
   -1
100
AcDbLine
 10
15.1666344080273
 20
7.38778476797233
 11
15.1666344080273
 21
5.794341177576054
  0
LINE
  5
9A
100
AcDbEntity
  8
OBSTACLES
  6
ByLayer
 62
  256
370
   -1
100
AcDbLine
 10
15.1666344080273
 20
5.794341177576054
 11
14.95056695036076
 21
5.794349140416183
  0
LINE
  5
9B
100
AcDbEntity
  8
OBSTACLES
  6
ByLayer
 62
  256
370
   -1
100
AcDbLine
 10
14.95056695036076
 20
5.794349140416183
 11
14.95056695036076
 21
7.38778476797233
  0
LINE
  5
9C
100
AcDbEntity
  8
OBSTACLES
  6
ByLayer
 62
  256
370
   -1
100
AcDbLine
 10
14.42873776193686
 20
5.794358922657021
 11
14.21267030427031
 21
5.794187016548316
  0
LINE
  5
9D
100
AcDbEntity
  8
OBSTACLES
  6
ByLayer
 62
  256
370
   -1
100
AcDbLine
 10
14.21267030427031
 20
5.794187016548316
 11
14.21267030427031
 21
7.38778476797233
  0
LINE
  5
9E
100
AcDbEntity
  8
OBSTACLES
  6
ByLayer
 62
  256
370
   -1
100
AcDbLine
 10
14.42873776193686
 20
7.38778476797233
 11
14.42873776193686
 21
5.794358922657021
  0
LINE
  5
9F
100
AcDbEntity
  8
OBSTACLES
  6
ByLayer
 62
  256
370
   -1
100
AcDbLine
 10
13.69084111584642
 20
5.794098177358872
 11
13.47477365817987
 21
5.794213835810591
  0
LINE
  5
A0
100
AcDbEntity
  8
OBSTACLES
  6
ByLayer
 62
  256
370
   -1
100
AcDbLine
 10
13.47477365817987
 20
5.794213835810591
 11
13.47477365817987
 21
7.38778476797233
  0
LINE
  5
A1
100
AcDbEntity
  8
OBSTACLES
  6
ByLayer
 62
  256
370
   -1
100
AcDbLine
 10
13.69084111584642
 20
7.38778476797233
 11
13.69084111584642
 21
5.794098177358872
  0
LINE
  5
A2
100
AcDbEntity
  8
OBSTACLES
  6
ByLayer
 62
  256
370
   -1
100
AcDbLine
 10
12.95294446975597
 20
5.794353768727642
 11
12.73687701208943
 21
5.793434365735957
  0
LINE
  5
A3
100
AcDbEntity
  8
OBSTACLES
  6
ByLayer
 62
  256
370
   -1
100
AcDbLine
 10
12.73687701208943
 20
5.793434365735957
 11
12.73687701208943
 21
7.38778476797233
  0
LINE
  5
A4
100
AcDbEntity
  8
OBSTACLES
  6
ByLayer
 62
  256
370
   -1
100
AcDbLine
 10
12.95294446975597
 20
7.38778476797233
 11
12.95294446975597
 21
5.794353768727642
  0
LINE
  5
A5
100
AcDbEntity
  8
OBSTACLES
  6
ByLayer
 62
  256
370
   -1
100
AcDbLine
 10
12.21504782366553
 20
5.794219207122135
 11
11.99898036599899
 21
5.794357769997428
  0
LINE
  5
A6
100
AcDbEntity
  8
OBSTACLES
  6
ByLayer
 62
  256
370
   -1
100
AcDbLine
 10
11.99898036599899
 20
5.794357769997428
 11
11.99898036599899
 21
7.38778476797233
  0
LINE
  5
A7
100
AcDbEntity
  8
OBSTACLES
  6
ByLayer
 62
  256
370
   -1
100
AcDbLine
 10
12.21504782366553
 20
7.38778476797233
 11
12.21504782366553
 21
5.794219207122135
  0
LINE
  5
A8
100
AcDbEntity
  8
OBSTACLES
  6
ByLayer
 62
  256
370
   -1
100
AcDbLine
 10
11.47715117757508
 20
5.794349208206451
 11
11.26108371990854
 21
5.792747646209388
  0
LINE
  5
A9
100
AcDbEntity
  8
OBSTACLES
  6
ByLayer
 62
  256
370
   -1
100
AcDbLine
 10
18.85611763847952
 20
5.794008892961211
 11
18.64005018081297
 21
5.794313838131923
  0
LINE
  5
AA
100
AcDbEntity
  8
OBSTACLES
  6
ByLayer
 62
  256
370
   -1
100
AcDbLine
 10
18.64005018081297
 20
5.794313838131923
 11
18.64005018081297
 21
7.38778476797233
  0
LINE
  5
AB
100
AcDbEntity
  8
OBSTACLES
  6
ByLayer
 62
  256
370
   -1
100
AcDbLine
 10
18.85611763847952
 20
7.38778476797233
 11
18.85611763847952
 21
5.794008892961211
  0
LINE
  5
AC
100
AcDbEntity
  8
OBSTACLES
  6
ByLayer
 62
  256
370
   -1
100
AcDbLine
 10
18.11822099238908
 20
5.794304162346715
 11
17.90215353472253
 21
5.794247542906642
  0
LINE
  5
AD
100
AcDbEntity
  8
OBSTACLES
  6
ByLayer
 62
  256
370
   -1
100
AcDbLine
 10
17.90215353472253
 20
5.794247542906642
 11
17.90215353472253
 21
7.38778476797233
  0
LINE
  5
AE
100
AcDbEntity
  8
OBSTACLES
  6
ByLayer
 62
  256
370
   -1
100
AcDbLine
 10
18.11822099238908
 20
7.38778476797233
 11
18.11822099238908
 21
5.794304162346715
  0
LINE
  5
AF
100
AcDbEntity
  8
OBSTACLES
  6
ByLayer
 62
  256
370
   -1
100
AcDbLine
 10
17.38032434629863
 20
5.793832725332773
 11
17.16425688863209
 21
5.794148778901341
  0
LINE
  5
B0
100
AcDbEntity
  8
OBSTACLES
  6
ByLayer
 62
  256
370
   -1
100
AcDbLine
 10
17.16425688863209
 20
5.794148778901341
 11
17.16425688863209
 21
7.38778476797233
  0
LINE
  5
B1
100
AcDbEntity
  8
OBSTACLES
  6
ByLayer
 62
  256
370
   -1
100
AcDbLine
 10
17.38032434629863
 20
7.38778476797233
 11
17.38032434629863
 21
5.793832725332773
  0
LINE
  5
B2
100
AcDbEntity
  8
OBSTACLES
  6
ByLayer
 62
  256
370
   -1
100
AcDbLine
 10
16.64242770020819
 20
5.794327530199065
 11
16.42636024254164
 21
5.793414653018398
  0
LINE
  5
B3
100
AcDbEntity
  8
OBSTACLES
  6
ByLayer
 62
  256
370
   -1
100
AcDbLine
 10
16.42636024254164
 20
5.793414653018398
 11
16.42636024254164
 21
7.38778476797233
  0
LINE
  5
B4
100
AcDbEntity
  8
OBSTACLES
  6
ByLayer
 62
  256
370
   -1
100
AcDbLine
 10
16.64242770020819
 20
7.38778476797233
 11
16.64242770020819
 21
5.794327530199065
  0
LINE
  5
B5
100
AcDbEntity
  8
OBSTACLES
  6
ByLayer
 62
  256
370
   -1
100
AcDbLine
 10
15.90453105411775
 20
5.794323461339469
 11
15.6884635964512
 21
5.794261102701863
  0
LINE
  5
B6
100
AcDbEntity
  8
OBSTACLES
  6
ByLayer
 62
  256
370
   -1
100
AcDbLine
 10
15.6884635964512
 20
5.794261102701863
 11
15.6884635964512
 21
7.38778476797233
  0
LINE
  5
B7
100
AcDbEntity
  8
OBSTACLES
  6
ByLayer
 62
  256
370
   -1
100
AcDbLine
 10
15.90453105411775
 20
7.38778476797233
 11
15.90453105411775
 21
5.794323461339469
  0
LINE
  5
B8
100
AcDbEntity
  8
OBSTACLES
  6
ByLayer
 62
  256
370
   -1
100
AcDbLine
 10
24.26335825470671
 20
5.794358908349092
 11
24.04729079704016
 21
5.794254762635087
  0
LINE
  5
B9
100
AcDbEntity
  8
OBSTACLES
  6
ByLayer
 62
  256
370
   -1
100
AcDbLine
 10
23.52546160861626
 20
5.794204473048889
 11
23.30939415094972
 21
5.794305712551671
  0
LINE
  5
BA
100
AcDbEntity
  8
OBSTACLES
  6
ByLayer
 62
  256
370
   -1
100
AcDbLine
 10
24.26335825470671
 20
7.387785116925296
 11
24.26335825470671
 21
5.794358908349092
  0
LINE
  5
BB
100
AcDbEntity
  8
OBSTACLES
  6
ByLayer
 62
  256
370
   -1
100
AcDbLine
 10
24.04729079704016
 20
5.794254762635087
 11
24.04729079704016
 21
7.387851237122713
  0
LINE
  5
BC
100
AcDbEntity
  8
OBSTACLES
  6
ByLayer
 62
  256
370
   -1
100
AcDbLine
 10
23.52546160861626
 20
7.387785825848066
 11
23.52546160861626
 21
5.794204473048889
  0
LINE
  5
BD
100
AcDbEntity
  8
OBSTACLES
  6
ByLayer
 62
  256
370
   -1
100
AcDbLine
 10
23.30939415094972
 20
5.794305712551671
 11
23.30939415094972
 21
7.387898345144261
  0
LINE
  5
BE
100
AcDbEntity
  8
OBSTACLES
  6
ByLayer
 62
  256
370
   -1
100
AcDbLine
 10
22.78756496252582
 20
5.794359229995076
 11
22.57149750485928
 21
5.794352173153736
  0
LINE
  5
BF
100
AcDbEntity
  8
OBSTACLES
  6
ByLayer
 62
  256
370
   -1
100
AcDbLine
 10
22.78756496252582
 20
7.387979843832336
 11
22.78756496252582
 21
5.794359229995076
  0
LINE
  5
C0
100
AcDbEntity
  8
OBSTACLES
  6
ByLayer
 62
  256
370
   -1
100
AcDbLine
 10
22.57149750485928
 20
5.794352173153736
 11
22.57149750485928
 21
7.387959983270288
  0
LINE
  5
C1
100
AcDbEntity
  8
OBSTACLES
  6
ByLayer
 62
  256
370
   -1
100
AcDbLine
 10
21.31965060476093
 20
5.794344228366749
 11
21.31965060476093
 21
7.38778476797233
  0
LINE
  5
C2
100
AcDbEntity
  8
OBSTACLES
  6
ByLayer
 62
  256
370
   -1
100
AcDbLine
 10
21.53571806242749
 20
7.38778476797233
 11
21.53571806242749
 21
5.793116153384697
  0
LINE
  5
C3
100
AcDbEntity
  8
OBSTACLES
  6
ByLayer
 62
  256
370
   -1
100
AcDbLine
 10
21.53571806242749
 20
5.793116153384697
 11
21.31965060476093
 21
5.794344228366749
  0
LINE
  5
C4
100
AcDbEntity
  8
OBSTACLES
  6
ByLayer
 62
  256
370
   -1
100
AcDbLine
 10
20.11584347299386
 20
5.794322788231223
 11
20.11584347299386
 21
7.38778476797233
  0
LINE
  5
C5
100
AcDbEntity
  8
OBSTACLES
  6
ByLayer
 62
  256
370
   -1
100
AcDbLine
 10
20.33191093066041
 20
7.38778476797233
 11
20.33191093066041
 21
5.793730400785289
  0
LINE
  5
C6
100
AcDbEntity
  8
OBSTACLES
  6
ByLayer
 62
  256
370
   -1
100
AcDbLine
 10
20.33191093066041
 20
5.793730400785289
 11
20.11584347299386
 21
5.794322788231223
  0
LINE
  5
C7
100
AcDbEntity
  8
OBSTACLES
  6
ByLayer
 62
  256
370
   -1
100
AcDbLine
 10
19.37794682690341
 20
5.794178121423879
 11
19.37794682690341
 21
7.38778476797233
  0
LINE
  5
C8
100
AcDbEntity
  8
OBSTACLES
  6
ByLayer
 62
  256
370
   -1
100
AcDbLine
 10
19.59401428456996
 20
7.38778476797233
 11
19.59401428456996
 21
5.794231478439467
  0
LINE
  5
C9
100
AcDbEntity
  8
OBSTACLES
  6
ByLayer
 62
  256
370
   -1
100
AcDbLine
 10
19.59401428456996
 20
5.794231478439467
 11
19.37794682690341
 21
5.794178121423879
  0
LINE
  5
CA
100
AcDbEntity
  8
OBSTACLES
  6
ByLayer
 62
  256
370
   -1
100
AcDbLine
 10
25.00125490079716
 20
5.794357504603478
 11
24.78518744313061
 21
5.794356836522193
  0
LINE
  5
CB
100
AcDbEntity
  8
OBSTACLES
  6
ByLayer
 62
  256
370
   -1
100
AcDbLine
 10
25.00125490079716
 20
7.387785156539503
 11
25.00125490079716
 21
5.794357504603478
  0
LINE
  5
CC
100
AcDbEntity
  8
OBSTACLES
  6
ByLayer
 62
  256
370
   -1
100
AcDbLine
 10
24.78518744313061
 20
5.794356836522193
 11
24.78518744313061
 21
7.387792426234038
  0
LINE
  5
CD
100
AcDbEntity
  8
OBSTACLES
  6
ByLayer
 62
  256
370
   -1
100
AcDbLine
 10
29.42863477733979
 20
5.79434593073402
 11
29.21256731967327
 21
5.794336362570045
  0
LINE
  5
CE
100
AcDbEntity
  8
OBSTACLES
  6
ByLayer
 62
  256
370
   -1
100
AcDbLine
 10
29.42863477733979
 20
7.353046053889268
 11
29.42863477733979
 21
5.79434593073402
  0
LINE
  5
CF
100
AcDbEntity
  8
OBSTACLES
  6
ByLayer
 62
  256
370
   -1
100
AcDbLine
 10
29.21256731967327
 20
5.794336362570045
 11
29.21076597092757
 21
7.360043853783234
  0
LINE
  5
D0
100
AcDbEntity
  8
OBSTACLES
  6
ByLayer
 62
  256
370
   -1
100
AcDbLine
 10
28.69073813124937
 20
5.794078496160064
 11
28.47467067358282
 21
5.794154194107388
  0
LINE
  5
D1
100
AcDbEntity
  8
OBSTACLES
  6
ByLayer
 62
  256
370
   -1
100
AcDbLine
 10
28.69073813124937
 20
7.369167146927107
 11
28.69073813124937
 21
5.794078496160064
  0
LINE
  5
D2
100
AcDbEntity
  8
OBSTACLES
  6
ByLayer
 62
  256
370
   -1
100
AcDbLine
 10
28.47467067358282
 20
5.794154194107388
 11
28.47467067358282
 21
7.372957803128055
  0
LINE
  5
D3
100
AcDbEntity
  8
OBSTACLES
  6
ByLayer
 62
  256
370
   -1
100
AcDbLine
 10
27.95284148515893
 20
5.794324943403448
 11
27.73677402749238
 21
5.794332260062343
  0
LINE
  5
D4
100
AcDbEntity
  8
OBSTACLES
  6
ByLayer
 62
  256
370
   -1
100
AcDbLine
 10
27.95284148515893
 20
7.380409051532321
 11
27.95284148515893
 21
5.794324943403448
  0
LINE
  5
D5
100
AcDbEntity
  8
OBSTACLES
  6
ByLayer
 62
  256
370
   -1
100
AcDbLine
 10
27.73677402749238
 20
5.794332260062343
 11
27.73677402749238
 21
7.381936032394971
  0
LINE
  5
D6
100
AcDbEntity
  8
OBSTACLES
  6
ByLayer
 62
  256
370
   -1
100
AcDbLine
 10
27.21494483906848
 20
5.794316905777417
 11
26.99887738140194
 21
5.7942343061687
  0
LINE
  5
D7
100
AcDbEntity
  8
OBSTACLES
  6
ByLayer
 62
  256
370
   -1
100
AcDbLine
 10
27.21494483906848
 20
7.385623876889933
 11
27.21494483906848
 21
5.794316905777417
  0
LINE
  5
D8
100
AcDbEntity
  8
OBSTACLES
  6
ByLayer
 62
  256
370
   -1
100
AcDbLine
 10
26.99887738140194
 20
5.7942343061687
 11
26.99887738140194
 21
7.387150857752583
  0
LINE
  5
D9
100
AcDbEntity
  8
OBSTACLES
  6
ByLayer
 62
  256
370
   -1
100
AcDbLine
 10
26.47704819297804
 20
5.794352543352356
 11
26.26098073531149
 21
5.794324136157949
  0
LINE
  5
DA
100
AcDbEntity
  8
OBSTACLES
  6
ByLayer
 62
  256
370
   -1
100
AcDbLine
 10
26.47704819297804
 20
7.387789140412134
 11
26.47704819297804
 21
5.794352543352356
  0
LINE
  5
DB
100
AcDbEntity
  8
OBSTACLES
  6
ByLayer
 62
  256
370
   -1
100
AcDbLine
 10
26.26098073531149
 20
5.794324136157949
 11
26.26098073531149
 21
7.387816037485588
  0
LINE
  5
DC
100
AcDbEntity
  8
OBSTACLES
  6
ByLayer
 62
  256
370
   -1
100
AcDbLine
 10
25.73915154688759
 20
5.794351239846331
 11
25.52308408922105
 21
5.794352482187132
  0
LINE
  5
DD
100
AcDbEntity
  8
OBSTACLES
  6
ByLayer
 62
  256
370
   -1
100
AcDbLine
 10
25.73915154688759
 20
7.387786543947636
 11
25.73915154688759
 21
5.793818063354077
  0
LINE
  5
DE
100
AcDbEntity
  8
OBSTACLES
  6
ByLayer
 62
  256
370
   -1
100
AcDbLine
 10
25.52308408922105
 20
5.794352482187132
 11
25.52308408922105
 21
7.387793783284461
  0
LINE
  5
DF
100
AcDbEntity
  8
OBSTACLES
  6
ByLayer
 62
  256
370
   -1
100
AcDbLine
 10
11.2565873750008
 20
4.04175656037233
 11
11.2565873750008
 21
5.220703591240119
  0
LINE
  5
E0
100
AcDbEntity
  8
OBSTACLES
  6
ByLayer
 62
  256
370
   -1
100
AcDbLine
 10
11.47265483266736
 20
5.22080331684857
 11
11.47265483266736
 21
4.04175656037233
  0
LINE
  5
E1
100
AcDbEntity
  8
OBSTACLES
  6
ByLayer
 62
  256
370
   -1
100
AcDbLine
 10
11.2565873750008
 20
5.220703591240119
 11
11.47265483266736
 21
5.22080331684857
  0
LINE
  5
E2
100
AcDbEntity
  8
OBSTACLES
  6
ByLayer
 62
  256
370
   -1
100
AcDbLine
 10
17.9001973399457
 20
4.04175656037233
 11
17.9001973399457
 21
5.220707789319458
  0
LINE
  5
E3
100
AcDbEntity
  8
OBSTACLES
  6
ByLayer
 62
  256
370
   -1
100
AcDbLine
 10
18.11626479761225
 20
5.220719637717148
 11
18.11626479761225
 21
4.04175656037233
  0
LINE
  5
E4
100
AcDbEntity
  8
OBSTACLES
  6
ByLayer
 62
  256
370
   -1
100
AcDbLine
 10
17.9001973399457
 20
5.220707789319458
 11
18.11626479761225
 21
5.220719637717148
  0
LINE
  5
E5
100
AcDbEntity
  8
OBSTACLES
  6
ByLayer
 62
  256
370
   -1
100
AcDbLine
 10
17.37808591261837
 20
5.220668381553405
 11
17.37808591261837
 21
4.04175656037233
  0
LINE
  5
E6
100
AcDbEntity
  8
OBSTACLES
  6
ByLayer
 62
  256
370
   -1
100
AcDbLine
 10
16.42383956995794
 20
4.04175656037233
 11
16.42383956995794
 21
5.220746468547627
  0
LINE
  5
E7
100
AcDbEntity
  8
OBSTACLES
  6
ByLayer
 62
  256
370
   -1
100
AcDbLine
 10
15.68566068496407
 20
4.04175656037233
 11
15.68566068496407
 21
5.220668569224027
  0
LINE
  5
E8
100
AcDbEntity
  8
OBSTACLES
  6
ByLayer
 62
  256
370
   -1
100
AcDbLine
 10
15.90172814263061
 20
5.220923001974692
 11
15.90172814263061
 21
4.04175656037233
  0
LINE
  5
E9
100
AcDbEntity
  8
OBSTACLES
  6
ByLayer
 62
  256
370
   -1
100
AcDbLine
 10
15.68566068496407
 20
5.220668569224027
 11
15.90172814263061
 21
5.220923001974692
  0
LINE
  5
EA
100
AcDbEntity
  8
OBSTACLES
  6
ByLayer
 62
  256
370
   -1
100
AcDbLine
 10
14.20930291497632
 20
4.04175656037233
 11
14.20930291497632
 21
5.220998100970514
  0
LINE
  5
EB
100
AcDbEntity
  8
OBSTACLES
  6
ByLayer
 62
  256
370
   -1
100
AcDbLine
 10
14.42537037264286
 20
5.220677350505791
 11
14.42537037264286
 21
4.04175656037233
  0
LINE
  5
EC
100
AcDbEntity
  8
OBSTACLES
  6
ByLayer
 62
  256
370
   -1
100
AcDbLine
 10
14.20930291497632
 20
5.220998100970514
 11
14.42537037264286
 21
5.220677350505791
  0
LINE
  5
ED
100
AcDbEntity
  8
OBSTACLES
  6
ByLayer
 62
  256
370
   -1
100
AcDbLine
 10
13.47112402998244
 20
4.04175656037233
 11
13.47112402998244
 21
5.221005029822503
  0
LINE
  5
EE
100
AcDbEntity
  8
OBSTACLES
  6
ByLayer
 62
  256
370
   -1
100
AcDbLine
 10
13.68719148764898
 20
5.220725845363897
 11
13.68719148764898
 21
4.04175656037233
  0
LINE
  5
EF
100
AcDbEntity
  8
OBSTACLES
  6
ByLayer
 62
  256
370
   -1
100
AcDbLine
 10
13.47112402998244
 20
5.221005029822503
 11
13.68719148764898
 21
5.220725845363897
  0
LINE
  5
F0
100
AcDbEntity
  8
OBSTACLES
  6
ByLayer
 62
  256
370
   -1
100
AcDbLine
 10
12.73294514498856
 20
4.04175656037233
 11
12.73294514498856
 21
5.220752654316992
  0
LINE
  5
F1
100
AcDbEntity
  8
OBSTACLES
  6
ByLayer
 62
  256
370
   -1
100
AcDbLine
 10
12.94901260265511
 20
5.220748563129599
 11
12.94901260265511
 21
4.04175656037233
  0
LINE
  5
F2
100
AcDbEntity
  8
OBSTACLES
  6
ByLayer
 62
  256
370
   -1
100
AcDbLine
 10
12.73294514498856
 20
5.220752654316992
 11
12.94901260265511
 21
5.220748563129599
  0
LINE
  5
F3
100
AcDbEntity
  8
OBSTACLES
  6
ByLayer
 62
  256
370
   -1
100
AcDbLine
 10
11.99476625999468
 20
4.04175656037233
 11
11.99476625999468
 21
5.221215824672295
  0
LINE
  5
F4
100
AcDbEntity
  8
OBSTACLES
  6
ByLayer
 62
  256
370
   -1
100
AcDbLine
 10
12.21083371766123
 20
5.221187970904007
 11
12.21083371766123
 21
4.04175656037233
  0
LINE
  5
F5
100
AcDbEntity
  8
OBSTACLES
  6
ByLayer
 62
  256
370
   -1
100
AcDbLine
 10
11.99476625999468
 20
5.221215824672295
 11
12.21083371766123
 21
5.221187970904007
  0
LINE
  5
F6
100
AcDbEntity
  8
OBSTACLES
  6
ByLayer
 62
  256
370
   -1
100
AcDbLine
 10
16.63990702762448
 20
5.220668114983904
 11
16.6399070276245
 21
4.04175656037233
  0
LINE
  5
F7
100
AcDbEntity
  8
OBSTACLES
  6
ByLayer
 62
  256
370
   -1
100
AcDbLine
 10
16.42383956995794
 20
5.220746468547627
 11
16.63990702762448
 21
5.220668114983904
  0
LINE
  5
F8
100
AcDbEntity
  8
OBSTACLES
  6
ByLayer
 62
  256
370
   -1
100
AcDbLine
 10
17.16201845495182
 20
4.04175656037233
 11
17.16201845495246
 21
5.220668200246361
  0
LINE
  5
F9
100
AcDbEntity
  8
OBSTACLES
  6
ByLayer
 62
  256
370
   -1
100
AcDbLine
 10
17.16201845495246
 20
5.220668200246361
 11
17.37808591261837
 21
5.220668381553405
  0
LINE
  5
FA
100
AcDbEntity
  8
OBSTACLES
  6
ByLayer
 62
  256
370
   -1
100
AcDbLine
 10
29.21044423940626
 20
5.220674813827865
 11
29.42651169707281
 21
5.22085940080883
  0
LINE
  5
FB
100
AcDbEntity
  8
OBSTACLES
  6
ByLayer
 62
  256
370
   -1
100
AcDbLine
 10
29.42651169707281
 20
5.22085940080883
 11
29.42651169707281
 21
4.084914400670836
  0
LINE
  5
FC
100
AcDbEntity
  8
OBSTACLES
  6
ByLayer
 62
  256
370
   -1
100
AcDbLine
 10
29.21044423940626
 20
4.077175958583349
 11
29.21044423940626
 21
5.220674813827865
  0
LINE
  5
FD
100
AcDbEntity
  8
OBSTACLES
  6
ByLayer
 62
  256
370
   -1
100
AcDbLine
 10
28.47226535441238
 20
5.220786202386701
 11
28.68833281207893
 21
5.22097293188646
  0
LINE
  5
FE
100
AcDbEntity
  8
OBSTACLES
  6
ByLayer
 62
  256
370
   -1
100
AcDbLine
 10
28.68833281207893
 20
5.22097293188646
 11
28.68833281207893
 21
4.064352176724479
  0
LINE
  5
FF
100
AcDbEntity
  8
OBSTACLES
  6
ByLayer
 62
  256
370
   -1
100
AcDbLine
 10
28.47226535441238
 20
4.059045259850232
 11
28.47226535441238
 21
5.220786202386701
  0
LINE
  5
100
100
AcDbEntity
  8
OBSTACLES
  6
ByLayer
 62
  256
370
   -1
100
AcDbLine
 10
27.73408646941851
 20
5.221135648334235
 11
27.95015392708505
 21
5.22080653032756
  0
LINE
  5
101
100
AcDbEntity
  8
OBSTACLES
  6
ByLayer
 62
  256
370
   -1
100
AcDbLine
 10
27.95015392708505
 20
5.22080653032756
 11
27.95015392708505
 21
4.049113283439662
  0
LINE
  5
102
100
AcDbEntity
  8
OBSTACLES
  6
ByLayer
 62
  256
370
   -1
100
AcDbLine
 10
27.73408646941851
 20
4.047586302577012
 11
27.73408646941851
 21
5.221135648334235
  0
LINE
  5
103
100
AcDbEntity
  8
OBSTACLES
  6
ByLayer
 62
  256
370
   -1
100
AcDbLine
 10
26.99590758442463
 20
5.220711685269928
 11
27.21197504209118
 21
5.220877285973383
  0
LINE
  5
104
100
AcDbEntity
  8
OBSTACLES
  6
ByLayer
 62
  256
370
   -1
100
AcDbLine
 10
26.99590758442463
 20
4.042369482595087
 11
26.99590758442463
 21
5.220711685269928
  0
LINE
  5
105
100
AcDbEntity
  8
OBSTACLES
  6
ByLayer
 62
  256
370
   -1
100
AcDbLine
 10
27.21197504209118
 20
5.220877285973383
 11
27.21197504209118
 21
4.043896463457737
  0
LINE
  5
106
100
AcDbEntity
  8
OBSTACLES
  6
ByLayer
 62
  256
370
   -1
100
AcDbLine
 10
26.25772869943075
 20
4.04175656037233
 11
26.25772869943075
 21
5.220723403745903
  0
LINE
  5
107
100
AcDbEntity
  8
OBSTACLES
  6
ByLayer
 62
  256
370
   -1
100
AcDbLine
 10
26.47379615709731
 20
5.220762168893766
 11
26.47379615709731
 21
4.04175656037233
  0
LINE
  5
108
100
AcDbEntity
  8
OBSTACLES
  6
ByLayer
 62
  256
370
   -1
100
AcDbLine
 10
26.25772869943075
 20
5.220723403745903
 11
26.47379615709731
 21
5.220762168893766
  0
LINE
  5
109
100
AcDbEntity
  8
OBSTACLES
  6
ByLayer
 62
  256
370
   -1
100
AcDbLine
 10
25.51954981443687
 20
4.04175656037233
 11
25.51954981443687
 21
5.220790675809023
  0
LINE
  5
10A
100
AcDbEntity
  8
OBSTACLES
  6
ByLayer
 62
  256
370
   -1
100
AcDbLine
 10
25.73561727210342
 20
5.220898998741315
 11
25.73561727210342
 21
4.04175656037233
  0
LINE
  5
10B
100
AcDbEntity
  8
OBSTACLES
  6
ByLayer
 62
  256
370
   -1
100
AcDbLine
 10
25.51954981443687
 20
5.220790675809023
 11
25.73561727210342
 21
5.220898998741315
  0
LINE
  5
10C
100
AcDbEntity
  8
OBSTACLES
  6
ByLayer
 62
  256
370
   -1
100
AcDbLine
 10
24.781370929443
 20
4.04175656037233
 11
24.781370929443
 21
5.220683193126358
  0
LINE
  5
10D
100
AcDbEntity
  8
OBSTACLES
  6
ByLayer
 62
  256
370
   -1
100
AcDbLine
 10
24.99743838710955
 20
5.22075107111976
 11
24.99743838710955
 21
4.04175656037233
  0
LINE
  5
10E
100
AcDbEntity
  8
OBSTACLES
  6
ByLayer
 62
  256
370
   -1
100
AcDbLine
 10
24.781370929443
 20
5.220683193126358
 11
24.99743838710955
 21
5.22075107111976
  0
LINE
  5
10F
100
AcDbEntity
  8
OBSTACLES
  6
ByLayer
 62
  256
370
   -1
100
AcDbLine
 10
24.04319204444912
 20
4.04175656037233
 11
24.04319204444912
 21
5.220701447458121
  0
LINE
  5
110
100
AcDbEntity
  8
OBSTACLES
  6
ByLayer
 62
  256
370
   -1
100
AcDbLine
 10
24.25925950211566
 20
5.220667885377106
 11
24.25925950211566
 21
4.04175656037233
  0
LINE
  5
111
100
AcDbEntity
  8
OBSTACLES
  6
ByLayer
 62
  256
370
   -1
100
AcDbLine
 10
24.04319204444912
 20
5.220701447458121
 11
24.25925950211566
 21
5.220667885377106
  0
LINE
  5
112
100
AcDbEntity
  8
OBSTACLES
  6
ByLayer
 62
  256
370
   -1
100
AcDbLine
 10
23.30501315945524
 20
4.04175656037233
 11
23.30501315945524
 21
5.220734394680203
  0
LINE
  5
113
100
AcDbEntity
  8
OBSTACLES
  6
ByLayer
 62
  256
370
   -1
100
AcDbLine
 10
23.52108061712179
 20
5.220669621542053
 11
23.52108061712179
 21
4.04175656037233
  0
LINE
  5
114
100
AcDbEntity
  8
OBSTACLES
  6
ByLayer
 62
  256
370
   -1
100
AcDbLine
 10
23.30501315945524
 20
5.220734394680203
 11
23.52108061712179
 21
5.220669621542053
  0
LINE
  5
115
100
AcDbEntity
  8
OBSTACLES
  6
ByLayer
 62
  256
370
   -1
100
AcDbLine
 10
22.56683427446137
 20
4.04175656037233
 11
22.56683427446137
 21
5.220681813674541
  0
LINE
  5
116
100
AcDbEntity
  8
OBSTACLES
  6
ByLayer
 62
  256
370
   -1
100
AcDbLine
 10
22.78290173212791
 20
5.220680087405294
 11
22.78290173212791
 21
4.04175656037233
  0
LINE
  5
117
100
AcDbEntity
  8
OBSTACLES
  6
ByLayer
 62
  256
370
   -1
100
AcDbLine
 10
22.56683427446137
 20
5.220681813674541
 11
22.78290173212791
 21
5.220680087405294
  0
LINE
  5
118
100
AcDbEntity
  8
OBSTACLES
  6
ByLayer
 62
  256
370
   -1
100
AcDbLine
 10
21.31500844120633
 20
4.04175656037233
 11
21.31500844120633
 21
5.220706091780239
  0
LINE
  5
119
100
AcDbEntity
  8
OBSTACLES
  6
ByLayer
 62
  256
370
   -1
100
AcDbLine
 10
21.53107589887287
 20
5.220680589221611
 11
21.53107589887287
 21
4.04175656037233
  0
LINE
  5
11A
100
AcDbEntity
  8
OBSTACLES
  6
ByLayer
 62
  256
370
   -1
100
AcDbLine
 10
21.31500844120633
 20
5.220706091780239
 11
21.53107589887287
 21
5.220680589221611
  0
LINE
  5
11B
100
AcDbEntity
  8
OBSTACLES
  6
ByLayer
 62
  256
370
   -1
100
AcDbLine
 10
20.11473399492733
 20
4.04175656037233
 11
20.11473399492733
 21
5.220669434908781
  0
LINE
  5
11C
100
AcDbEntity
  8
OBSTACLES
  6
ByLayer
 62
  256
370
   -1
100
AcDbLine
 10
20.33080145259389
 20
5.220674744529457
 11
20.33080145259389
 21
4.04175656037233
  0
LINE
  5
11D
100
AcDbEntity
  8
OBSTACLES
  6
ByLayer
 62
  256
370
   -1
100
AcDbLine
 10
20.11473399492733
 20
5.220669434908781
 11
20.33080145259389
 21
5.220674744529457
  0
LINE
  5
11E
100
AcDbEntity
  8
OBSTACLES
  6
ByLayer
 62
  256
370
   -1
100
AcDbLine
 10
19.37655510993345
 20
4.04175656037233
 11
19.37655510993345
 21
5.220767024419938
  0
LINE
  5
11F
100
AcDbEntity
  8
OBSTACLES
  6
ByLayer
 62
  256
370
   -1
100
AcDbLine
 10
19.5926225676
 20
5.220796430912908
 11
19.5926225676
 21
4.04175656037233
  0
LINE
  5
120
100
AcDbEntity
  8
OBSTACLES
  6
ByLayer
 62
  256
370
   -1
100
AcDbLine
 10
19.37655510993345
 20
5.220767024419938
 11
19.5926225676
 21
5.220796430912908
  0
LINE
  5
121
100
AcDbEntity
  8
OBSTACLES
  6
ByLayer
 62
  256
370
   -1
100
AcDbLine
 10
18.85444368260613
 20
5.220672067820398
 11
18.85444368260613
 21
4.04175656037233
  0
LINE
  5
122
100
AcDbEntity
  8
OBSTACLES
  6
ByLayer
 62
  256
370
   -1
100
AcDbLine
 10
18.63837622493957
 20
4.04175656037233
 11
18.63837622493957
 21
5.22066786602134
  0
LINE
  5
123
100
AcDbEntity
  8
OBSTACLES
  6
ByLayer
 62
  256
370
   -1
100
AcDbLine
 10
18.63837622493957
 20
5.22066786602134
 11
18.85444368260613
 21
5.220672067820398
  0
LINE
  5
124
100
AcDbEntity
  8
OBSTACLES
  6
ByLayer
 62
  256
370
   -1
100
AcDbLine
 10
14.94748179997019
 20
4.04175656037233
 11
14.94748179997019
 21
5.220699602050952
  0
LINE
  5
125
100
AcDbEntity
  8
OBSTACLES
  6
ByLayer
 62
  256
370
   -1
100
AcDbLine
 10
15.16354925763679
 20
5.220669372556084
 11
15.16354925763674
 21
4.04175656037233
  0
LINE
  5
126
100
AcDbEntity
  8
OBSTACLES
  6
ByLayer
 62
  256
370
   -1
100
AcDbLine
 10
14.94748179997019
 20
5.220699602050952
 11
15.16354925763679
 21
5.220669372556084
  0
POINT
  5
127
100
AcDbEntity
  8
SPAWNS
  6
ByLayer
 62
  256
370
   -1
100
AcDbPoint
 10
8.769283584601549
 20
7.008094904359093
  0
POINT
  5
128
100
AcDbEntity
  8
SPAWNS
  6
ByLayer
 62
  256
370
   -1
100
AcDbPoint
 10
8.77127006501701
 20
6.288988993963268
  0
POINT
  5
129
100
AcDbEntity
  8
SPAWNS
  6
ByLayer
 62
  256
370
   -1
100
AcDbPoint
 10
8.769283584601549
 20
5.106203033159029
  0
POINT
  5
12A
100
AcDbEntity
  8
SPAWNS
  6
ByLayer
 62
  256
370
   -1
100
AcDbPoint
 10
8.77127006501701
 20
4.387097122763204
  0
POINT
  5
12B
100
AcDbEntity
  8
SPAWNS
  6
ByLayer
 62
  256
370
   -1
100
AcDbPoint
 10
10.72216973476982
 20
7.050566981637924
  0
POINT
  5
12C
100
AcDbEntity
  8
SPAWNS
  6
ByLayer
 62
  256
370
   -1
100
AcDbPoint
 10
10.72063312582
 20
6.529656547646776
  0
POINT
  5
12D
100
AcDbEntity
  8
SPAWNS
  6
ByLayer
 62
  256
370
   -1
100
AcDbPoint
 10
10.72063312582
 20
6.048697946351122
  0
POINT
  5
12E
100
AcDbEntity
  8
SPAWNS
  6
ByLayer
 62
  256
370
   -1
100
AcDbPoint
 10
16.8531279383403
 20
7.050566981637924
  0
POINT
  5
12F
100
AcDbEntity
  8
SPAWNS
  6
ByLayer
 62
  256
370
   -1
100
AcDbPoint
 10
16.85159132939047
 20
6.529656547646776
  0
POINT
  5
130
100
AcDbEntity
  8
SPAWNS
  6
ByLayer
 62
  256
370
   -1
100
AcDbPoint
 10
16.85159132939047
 20
6.048697946351122
  0
POINT
  5
131
100
AcDbEntity
  8
SPAWNS
  6
ByLayer
 62
  256
370
   -1
100
AcDbPoint
 10
17.59720375067043
 20
7.050566981637924
  0
POINT
  5
132
100
AcDbEntity
  8
SPAWNS
  6
ByLayer
 62
  256
370
   -1
100
AcDbPoint
 10
17.59566714172061
 20
6.529656547646776
  0
POINT
  5
133
100
AcDbEntity
  8
SPAWNS
  6
ByLayer
 62
  256
370
   -1
100
AcDbPoint
 10
17.59566714172061
 20
6.048697946351122
  0
POINT
  5
134
100
AcDbEntity
  8
SPAWNS
  6
ByLayer
 62
  256
370
   -1
100
AcDbPoint
 10
18.34127956300058
 20
7.050566981637924
  0
POINT
  5
135
100
AcDbEntity
  8
SPAWNS
  6
ByLayer
 62
  256
370
   -1
100
AcDbPoint
 10
18.33974295405075
 20
6.529656547646776
  0
POINT
  5
136
100
AcDbEntity
  8
SPAWNS
  6
ByLayer
 62
  256
370
   -1
100
AcDbPoint
 10
18.33974295405075
 20
6.048697946351122
  0
POINT
  5
137
100
AcDbEntity
  8
SPAWNS
  6
ByLayer
 62
  256
370
   -1
100
AcDbPoint
 10
19.08535537533072
 20
7.050566981637924
  0
POINT
  5
138
100
AcDbEntity
  8
SPAWNS
  6
ByLayer
 62
  256
370
   -1
100
AcDbPoint
 10
19.0838187663809
 20
6.529656547646776
  0
POINT
  5
139
100
AcDbEntity
  8
SPAWNS
  6
ByLayer
 62
  256
370
   -1
100
AcDbPoint
 10
19.0838187663809
 20
6.048697946351122
  0
POINT
  5
13A
100
AcDbEntity
  8
SPAWNS
  6
ByLayer
 62
  256
370
   -1
100
AcDbPoint
 10
19.82943118766086
 20
7.050566981637924
  0
POINT
  5
13B
100
AcDbEntity
  8
SPAWNS
  6
ByLayer
 62
  256
370
   -1
100
AcDbPoint
 10
19.82789457871104
 20
6.529656547646776
  0
POINT
  5
13C
100
AcDbEntity
  8
SPAWNS
  6
ByLayer
 62
  256
370
   -1
100
AcDbPoint
 10
19.82789457871104
 20
6.048697946351122
  0
POINT
  5
13D
100
AcDbEntity
  8
SPAWNS
  6
ByLayer
 62
  256
370
   -1
100
AcDbPoint
 10
20.816015673906
 20
7.050566981637924
  0
POINT
  5
13E
100
AcDbEntity
  8
SPAWNS
  6
ByLayer
 62
  256
370
   -1
100
AcDbPoint
 10
20.81447906495618
 20
6.529656547646776
  0
POINT
  5
13F
100
AcDbEntity
  8
SPAWNS
  6
ByLayer
 62
  256
370
   -1
100
AcDbPoint
 10
20.81447906495618
 20
6.048697946351122
  0
POINT
  5
140
100
AcDbEntity
  8
SPAWNS
  6
ByLayer
 62
  256
370
   -1
100
AcDbPoint
 10
22.07612432446856
 20
7.050566981637924
  0
POINT
  5
141
100
AcDbEntity
  8
SPAWNS
  6
ByLayer
 62
  256
370
   -1
100
AcDbPoint
 10
22.07458771551874
 20
6.529656547646776
  0
POINT
  5
142
100
AcDbEntity
  8
SPAWNS
  6
ByLayer
 62
  256
370
   -1
100
AcDbPoint
 10
22.07458771551874
 20
6.048697946351122
  0
POINT
  5
143
100
AcDbEntity
  8
SPAWNS
  6
ByLayer
 62
  256
370
   -1
100
AcDbPoint
 10
25.24571488629094
 20
7.050566981637924
  0
POINT
  5
144
100
AcDbEntity
  8
SPAWNS
  6
ByLayer
 62
  256
370
   -1
100
AcDbPoint
 10
25.24417827734112
 20
6.529656547646776
  0
POINT
  5
145
100
AcDbEntity
  8
SPAWNS
  6
ByLayer
 62
  256
370
   -1
100
AcDbPoint
 10
25.24417827734112
 20
6.048697946351122
  0
POINT
  5
146
100
AcDbEntity
  8
SPAWNS
  6
ByLayer
 62
  256
370
   -1
100
AcDbPoint
 10
26.01086393615007
 20
7.050566981637924
  0
POINT
  5
147
100
AcDbEntity
  8
SPAWNS
  6
ByLayer
 62
  256
370
   -1
100
AcDbPoint
 10
26.00932732720025
 20
6.529656547646776
  0
POINT
  5
148
100
AcDbEntity
  8
SPAWNS
  6
ByLayer
 62
  256
370
   -1
100
AcDbPoint
 10
26.00932732720025
 20
6.048697946351122
  0
POINT
  5
149
100
AcDbEntity
  8
SPAWNS
  6
ByLayer
 62
  256
370
   -1
100
AcDbPoint
 10
26.7760129860092
 20
7.050566981637924
  0
POINT
  5
14A
100
AcDbEntity
  8
SPAWNS
  6
ByLayer
 62
  256
370
   -1
100
AcDbPoint
 10
26.77447637705938
 20
6.529656547646776
  0
POINT
  5
14B
100
AcDbEntity
  8
SPAWNS
  6
ByLayer
 62
  256
370
   -1
100
AcDbPoint
 10
26.77447637705938
 20
6.048697946351122
  0
POINT
  5
14C
100
AcDbEntity
  8
SPAWNS
  6
ByLayer
 62
  256
370
   -1
100
AcDbPoint
 10
10.72063312582
 20
4.882653867309339
  0
POINT
  5
14D
100
AcDbEntity
  8
SPAWNS
  6
ByLayer
 62
  256
370
   -1
100
AcDbPoint
 10
10.72063312582
 20
4.401695266013685
  0
POINT
  5
14E
100
AcDbEntity
  8
SPAWNS
  6
ByLayer
 62
  256
370
   -1
100
AcDbPoint
 10
16.85159132939047
 20
4.882653867309339
  0
POINT
  5
14F
100
AcDbEntity
  8
SPAWNS
  6
ByLayer
 62
  256
370
   -1
100
AcDbPoint
 10
16.85159132939047
 20
4.401695266013685
  0
POINT
  5
150
100
AcDbEntity
  8
SPAWNS
  6
ByLayer
 62
  256
370
   -1
100
AcDbPoint
 10
17.59566714172061
 20
4.882653867309339
  0
POINT
  5
151
100
AcDbEntity
  8
SPAWNS
  6
ByLayer
 62
  256
370
   -1
100
AcDbPoint
 10
17.59566714172061
 20
4.401695266013685
  0
POINT
  5
152
100
AcDbEntity
  8
SPAWNS
  6
ByLayer
 62
  256
370
   -1
100
AcDbPoint
 10
18.33974295405075
 20
4.882653867309339
  0
POINT
  5
153
100
AcDbEntity
  8
SPAWNS
  6
ByLayer
 62
  256
370
   -1
100
AcDbPoint
 10
18.33974295405075
 20
4.401695266013685
  0
POINT
  5
154
100
AcDbEntity
  8
SPAWNS
  6
ByLayer
 62
  256
370
   -1
100
AcDbPoint
 10
19.0838187663809
 20
4.882653867309339
  0
POINT
  5
155
100
AcDbEntity
  8
SPAWNS
  6
ByLayer
 62
  256
370
   -1
100
AcDbPoint
 10
19.0838187663809
 20
4.401695266013685
  0
POINT
  5
156
100
AcDbEntity
  8
SPAWNS
  6
ByLayer
 62
  256
370
   -1
100
AcDbPoint
 10
19.82789457871104
 20
4.882653867309339
  0
POINT
  5
157
100
AcDbEntity
  8
SPAWNS
  6
ByLayer
 62
  256
370
   -1
100
AcDbPoint
 10
19.82789457871104
 20
4.401695266013685
  0
POINT
  5
158
100
AcDbEntity
  8
SPAWNS
  6
ByLayer
 62
  256
370
   -1
100
AcDbPoint
 10
20.81447906495618
 20
4.882653867309339
  0
POINT
  5
159
100
AcDbEntity
  8
SPAWNS
  6
ByLayer
 62
  256
370
   -1
100
AcDbPoint
 10
20.81447906495618
 20
4.401695266013685
  0
POINT
  5
15A
100
AcDbEntity
  8
SPAWNS
  6
ByLayer
 62
  256
370
   -1
100
AcDbPoint
 10
22.07458771551874
 20
4.882653867309339
  0
POINT
  5
15B
100
AcDbEntity
  8
SPAWNS
  6
ByLayer
 62
  256
370
   -1
100
AcDbPoint
 10
22.07458771551874
 20
4.401695266013685
  0
POINT
  5
15C
100
AcDbEntity
  8
SPAWNS
  6
ByLayer
 62
  256
370
   -1
100
AcDbPoint
 10
26.00932732720025
 20
4.882653867309339
  0
POINT
  5
15D
100
AcDbEntity
  8
emergency
  6
ByLayer
 62
  256
370
   -1
100
AcDbPoint
 10
7.957416861496402
 20
4.162105108090581
  0
POINT
  5
15E
100
AcDbEntity
  8
emergency
  6
ByLayer
 62
  256
370
   -1
100
AcDbPoint
 10
20.75905581726618
 20
7.330463369856427
  0
POINT
  5
15F
100
AcDbEntity
  8
emergency
  6
ByLayer
 62
  256
370
   -1
100
AcDbPoint
 10
21.80198146898963
 20
7.334755244966398
  0
POINT
  5
160
100
AcDbEntity
  8
emergency
  6
ByLayer
 62
  256
370
   -1
100
AcDbPoint
 10
20.75476394215621
 20
4.0858057867168
  0
POINT
  5
161
100
AcDbEntity
  8
emergency
  6
ByLayer
 62
  256
370
   -1
100
AcDbPoint
 10
21.81056521920958
 20
4.0858057867168
  0
LINE
  5
162
100
AcDbEntity
  8
OBSTACLES
  6
ByLayer
 62
  256
370
   -1
100
AcDbLine
 10
3.653217658929794
 20
5.989699095772333
 11
3.938802228729795
 21
6.253971389172331
  0
LINE
  5
163
100
AcDbEntity
  8
OBSTACLES
  6
ByLayer
 62
  256
370
   -1
100
AcDbLine
 10
3.938802228729795
 20
6.253971389172331
 11
4.28832365312979
 21
6.496931380772334
  0
LINE
  5
164
100
AcDbEntity
  8
OBSTACLES
  6
ByLayer
 62
  256
370
   -1
100
AcDbLine
 10
4.28832365312979
 20
6.496931380772334
 11
4.693257006329791
 21
6.697266844972328
  0
LINE
  5
165
100
AcDbEntity
  8
OBSTACLES
  6
ByLayer
 62
  256
370
   -1
100
AcDbLine
 10
4.693257006329791
 20
6.697266844972328
 11
5.162127188729794
 21
6.884814907772333
  0
LINE
  5
166
100
AcDbEntity
  8
OBSTACLES
  6
ByLayer
 62
  256
370
   -1
100
AcDbLine
 10
5.162127188729794
 20
6.884814907772333
 11
5.686409325329794
 21
7.038263343572335
  0
LINE
  5
167
100
AcDbEntity
  8
OBSTACLES
  6
ByLayer
 62
  256
370
   -1
100
AcDbLine
 10
5.686409325329794
 20
7.038263343572335
 11
6.270365840929788
 21
7.166137027372325
  0
LINE
  5
168
100
AcDbEntity
  8
OBSTACLES
  6
ByLayer
 62
  256
370
   -1
100
AcDbLine
 10
6.270365840929788
 20
7.166137027372325
 11
6.913996735529796
 21
7.259911058772327
  0
LINE
  5
169
100
AcDbEntity
  8
OBSTACLES
  6
ByLayer
 62
  256
370
   -1
100
AcDbLine
 10
6.913996735529796
 20
7.259911058772327
 11
7.608777108729793
 21
7.328110363572331
  0
LINE
  5
16A
100
AcDbEntity
  8
OBSTACLES
  6
ByLayer
 62
  256
370
   -1
100
AcDbLine
 10
8.367494336529791
 20
7.370734941772322
 11
9.181623493129795
 21
7.38778476797233
  0
POINT
  5
16B
100
AcDbEntity
  8
SPAWNS
  6
ByLayer
 62
  256
370
   -1
100
AcDbPoint
 10
26.00932732720025
 20
4.401695266013685
  0
POINT
  5
16C
100
AcDbEntity
  8
SPAWNS
  6
ByLayer
 62
  256
370
   -1
100
AcDbPoint
 10
25.25955561809665
 20
4.882653867309339
  0
POINT
  5
16D
100
AcDbEntity
  8
SPAWNS
  6
ByLayer
 62
  256
370
   -1
100
AcDbPoint
 10
25.25955561809665
 20
4.401695266013685
  0
POINT
  5
16E
100
AcDbEntity
  8
SPAWNS
  6
ByLayer
 62
  256
370
   -1
100
AcDbPoint
 10
27.49902550782822
 20
4.882653867309339
  0
POINT
  5
16F
100
AcDbEntity
  8
SPAWNS
  6
ByLayer
 62
  256
370
   -1
100
AcDbPoint
 10
27.49902550782822
 20
4.401695266013685
  0
POINT
  5
170
100
AcDbEntity
  8
SPAWNS
  6
ByLayer
 62
  256
370
   -1
100
AcDbPoint
 10
26.74173108971904
 20
4.882653867309339
  0
POINT
  5
171
100
AcDbEntity
  8
SPAWNS
  6
ByLayer
 62
  256
370
   -1
100
AcDbPoint
 10
26.74173108971904
 20
4.401695266013685
  0
POINT
  5
172
100
AcDbEntity
  8
SPAWNS
  6
ByLayer
 62
  256
370
   -1
100
AcDbPoint
 10
28.22883723736031
 20
4.882653867309339
  0
POINT
  5
173
100
AcDbEntity
  8
SPAWNS
  6
ByLayer
 62
  256
370
   -1
100
AcDbPoint
 10
28.22883723736031
 20
4.401695266013685
  0
POINT
  5
174
100
AcDbEntity
  8
SPAWNS
  6
ByLayer
 62
  256
370
   -1
100
AcDbPoint
 10
28.96062897383496
 20
4.882653867309339
  0
POINT
  5
175
100
AcDbEntity
  8
SPAWNS
  6
ByLayer
 62
  256
370
   -1
100
AcDbPoint
 10
28.96062897383496
 20
4.401695266013685
  0
POINT
  5
176
100
AcDbEntity
  8
SPAWNS
  6
ByLayer
 62
  256
370
   -1
100
AcDbPoint
 10
23.0377025406884
 20
4.882653867309339
  0
POINT
  5
177
100
AcDbEntity
  8
SPAWNS
  6
ByLayer
 62
  256
370
   -1
100
AcDbPoint
 10
23.0377025406884
 20
4.401695266013685
  0
POINT
  5
178
100
AcDbEntity
  8
SPAWNS
  6
ByLayer
 62
  256
370
   -1
100
AcDbPoint
 10
23.03802594766147
 20
7.050566981637924
  0
POINT
  5
179
100
AcDbEntity
  8
SPAWNS
  6
ByLayer
 62
  256
370
   -1
100
AcDbPoint
 10
23.03648933871164
 20
6.529656547646776
  0
POINT
  5
17A
100
AcDbEntity
  8
SPAWNS
  6
ByLayer
 62
  256
370
   -1
100
AcDbPoint
 10
23.03648933871164
 20
6.048697946351122
  0
POINT
  5
17B
100
AcDbEntity
  8
SPAWNS
  6
ByLayer
 62
  256
370
   -1
100
AcDbPoint
 10
23.79040612626344
 20
7.050566981637924
  0
POINT
  5
17C
100
AcDbEntity
  8
SPAWNS
  6
ByLayer
 62
  256
370
   -1
100
AcDbPoint
 10
23.78886951731362
 20
6.529656547646776
  0
POINT
  5
17D
100
AcDbEntity
  8
SPAWNS
  6
ByLayer
 62
  256
370
   -1
100
AcDbPoint
 10
23.78886951731362
 20
6.048697946351122
  0
POINT
  5
17E
100
AcDbEntity
  8
SPAWNS
  6
ByLayer
 62
  256
370
   -1
100
AcDbPoint
 10
23.78886951731362
 20
4.882653867309339
  0
POINT
  5
17F
100
AcDbEntity
  8
SPAWNS
  6
ByLayer
 62
  256
370
   -1
100
AcDbPoint
 10
23.78886951731362
 20
4.401695266013685
  0
POINT
  5
180
100
AcDbEntity
  8
SPAWNS
  6
ByLayer
 62
  256
370
   -1
100
AcDbPoint
 10
27.49892779152976
 20
7.061883613301381
  0
POINT
  5
181
100
AcDbEntity
  8
SPAWNS
  6
ByLayer
 62
  256
370
   -1
100
AcDbPoint
 10
27.49739118257994
 20
6.540973179310233
  0
POINT
  5
182
100
AcDbEntity
  8
SPAWNS
  6
ByLayer
 62
  256
370
   -1
100
AcDbPoint
 10
27.49739118257994
 20
6.060014578014579
  0
POINT
  5
183
100
AcDbEntity
  8
SPAWNS
  6
ByLayer
 62
  256
370
   -1
100
AcDbPoint
 10
24.48162959989708
 20
7.061883613301381
  0
POINT
  5
184
100
AcDbEntity
  8
SPAWNS
  6
ByLayer
 62
  256
370
   -1
100
AcDbPoint
 10
24.48009299094726
 20
6.540973179310233
  0
POINT
  5
185
100
AcDbEntity
  8
SPAWNS
  6
ByLayer
 62
  256
370
   -1
100
AcDbPoint
 10
24.48009299094726
 20
6.060014578014579
  0
POINT
  5
186
100
AcDbEntity
  8
SPAWNS
  6
ByLayer
 62
  256
370
   -1
100
AcDbPoint
 10
24.48009299094726
 20
4.893970498972797
  0
POINT
  5
187
100
AcDbEntity
  8
SPAWNS
  6
ByLayer
 62
  256
370
   -1
100
AcDbPoint
 10
24.48009299094726
 20
4.413011897677142
  0
POINT
  5
188
100
AcDbEntity
  8
SPAWNS
  6
ByLayer
 62
  256
370
   -1
100
AcDbPoint
 10
28.22734105629378
 20
7.070136042524203
  0
POINT
  5
189
100
AcDbEntity
  8
SPAWNS
  6
ByLayer
 62
  256
370
   -1
100
AcDbPoint
 10
28.22580444734396
 20
6.549225608533056
  0
POINT
  5
18A
100
AcDbEntity
  8
SPAWNS
  6
ByLayer
 62
  256
370
   -1
100
AcDbPoint
 10
28.22580444734396
 20
6.068267007237401
  0
POINT
  5
18B
100
AcDbEntity
  8
SPAWNS
  6
ByLayer
 62
  256
370
   -1
100
AcDbPoint
 10
28.95812481326594
 20
7.050566981637924
  0
POINT
  5
18C
100
AcDbEntity
  8
SPAWNS
  6
ByLayer
 62
  256
370
   -1
100
AcDbPoint
 10
28.95658820431609
 20
6.529656547646776
  0
POINT
  5
18D
100
AcDbEntity
  8
SPAWNS
  6
ByLayer
 62
  256
370
   -1
100
AcDbPoint
 10
28.95658820431609
 20
6.048697946351122
  0
POINT
  5
18E
100
AcDbEntity
  8
SPAWNS
  6
ByLayer
 62
  256
370
   -1
100
AcDbPoint
 10
9.788755163981492
 20
7.008094904359093
  0
POINT
  5
18F
100
AcDbEntity
  8
SPAWNS
  6
ByLayer
 62
  256
370
   -1
100
AcDbPoint
 10
9.790741644396952
 20
6.288988993963268
  0
POINT
  5
190
100
AcDbEntity
  8
SPAWNS
  6
ByLayer
 62
  256
370
   -1
100
AcDbPoint
 10
9.788755163981492
 20
5.106203033159029
  0
POINT
  5
191
100
AcDbEntity
  8
SPAWNS
  6
ByLayer
 62
  256
370
   -1
100
AcDbPoint
 10
9.790741644396952
 20
4.387097122763204
  0
POINT
  5
192
100
AcDbEntity
  8
SPAWNS
  6
ByLayer
 62
  256
370
   -1
100
AcDbPoint
 10
12.48091361211428
 20
7.050566981637924
  0
POINT
  5
193
100
AcDbEntity
  8
SPAWNS
  6
ByLayer
 62
  256
370
   -1
100
AcDbPoint
 10
12.47937700316446
 20
6.529656547646776
  0
POINT
  5
194
100
AcDbEntity
  8
SPAWNS
  6
ByLayer
 62
  256
370
   -1
100
AcDbPoint
 10
12.47937700316446
 20
6.048697946351122
  0
POINT
  5
195
100
AcDbEntity
  8
SPAWNS
  6
ByLayer
 62
  256
370
   -1
100
AcDbPoint
 10
12.47937700316446
 20
4.882653867309339
  0
POINT
  5
196
100
AcDbEntity
  8
SPAWNS
  6
ByLayer
 62
  256
370
   -1
100
AcDbPoint
 10
12.47937700316446
 20
4.401695266013685
  0
POINT
  5
197
100
AcDbEntity
  8
SPAWNS
  6
ByLayer
 62
  256
370
   -1
100
AcDbPoint
 10
11.72948101350909
 20
7.050566981637924
  0
POINT
  5
198
100
AcDbEntity
  8
SPAWNS
  6
ByLayer
 62
  256
370
   -1
100
AcDbPoint
 10
11.72794440455926
 20
6.529656547646776
  0
POINT
  5
199
100
AcDbEntity
  8
SPAWNS
  6
ByLayer
 62
  256
370
   -1
100
AcDbPoint
 10
11.72794440455926
 20
6.048697946351122
  0
POINT
  5
19A
100
AcDbEntity
  8
SPAWNS
  6
ByLayer
 62
  256
370
   -1
100
AcDbPoint
 10
11.72794440455926
 20
4.882653867309339
  0
POINT
  5
19B
100
AcDbEntity
  8
SPAWNS
  6
ByLayer
 62
  256
370
   -1
100
AcDbPoint
 10
11.72794440455926
 20
4.401695266013685
  0
POINT
  5
19C
100
AcDbEntity
  8
SPAWNS
  6
ByLayer
 62
  256
370
   -1
100
AcDbPoint
 10
16.16837966316042
 20
7.050566981637924
  0
POINT
  5
19D
100
AcDbEntity
  8
SPAWNS
  6
ByLayer
 62
  256
370
   -1
100
AcDbPoint
 10
16.1668430542106
 20
6.529656547646776
  0
POINT
  5
19E
100
AcDbEntity
  8
SPAWNS
  6
ByLayer
 62
  256
370
   -1
100
AcDbPoint
 10
16.1668430542106
 20
6.048697946351122
  0
POINT
  5
19F
100
AcDbEntity
  8
SPAWNS
  6
ByLayer
 62
  256
370
   -1
100
AcDbPoint
 10
16.1668430542106
 20
4.882653867309339
  0
POINT
  5
1A0
100
AcDbEntity
  8
SPAWNS
  6
ByLayer
 62
  256
370
   -1
100
AcDbPoint
 10
16.1668430542106
 20
4.401695266013685
  0
POINT
  5
1A1
100
AcDbEntity
  8
SPAWNS
  6
ByLayer
 62
  256
370
   -1
100
AcDbPoint
 10
15.43791190925559
 20
7.050566981637924
  0
POINT
  5
1A2
100
AcDbEntity
  8
SPAWNS
  6
ByLayer
 62
  256
370
   -1
100
AcDbPoint
 10
15.43637530030577
 20
6.529656547646776
  0
POINT
  5
1A3
100
AcDbEntity
  8
SPAWNS
  6
ByLayer
 62
  256
370
   -1
100
AcDbPoint
 10
15.43637530030577
 20
6.048697946351122
  0
POINT
  5
1A4
100
AcDbEntity
  8
SPAWNS
  6
ByLayer
 62
  256
370
   -1
100
AcDbPoint
 10
15.43637530030577
 20
4.882653867309339
  0
POINT
  5
1A5
100
AcDbEntity
  8
SPAWNS
  6
ByLayer
 62
  256
370
   -1
100
AcDbPoint
 10
15.43637530030577
 20
4.401695266013685
  0
POINT
  5
1A6
100
AcDbEntity
  8
SPAWNS
  6
ByLayer
 62
  256
370
   -1
100
AcDbPoint
 10
14.69096592185502
 20
7.050566981637924
  0
POINT
  5
1A7
100
AcDbEntity
  8
SPAWNS
  6
ByLayer
 62
  256
370
   -1
100
AcDbPoint
 10
14.68942931290519
 20
6.529656547646776
  0
POINT
  5
1A8
100
AcDbEntity
  8
SPAWNS
  6
ByLayer
 62
  256
370
   -1
100
AcDbPoint
 10
14.68942931290519
 20
6.048697946351122
  0
POINT
  5
1A9
100
AcDbEntity
  8
SPAWNS
  6
ByLayer
 62
  256
370
   -1
100
AcDbPoint
 10
14.68942931290519
 20
4.882653867309339
  0
POINT
  5
1AA
100
AcDbEntity
  8
SPAWNS
  6
ByLayer
 62
  256
370
   -1
100
AcDbPoint
 10
14.68942931290519
 20
4.401695266013685
  0
POINT
  5
1AB
100
AcDbEntity
  8
SPAWNS
  6
ByLayer
 62
  256
370
   -1
100
AcDbPoint
 10
13.96326208704335
 20
7.050566981637924
  0
POINT
  5
1AC
100
AcDbEntity
  8
SPAWNS
  6
ByLayer
 62
  256
370
   -1
100
AcDbPoint
 10
13.96172547809351
 20
6.529656547646776
  0
POINT
  5
1AD
100
AcDbEntity
  8
SPAWNS
  6
ByLayer
 62
  256
370
   -1
100
AcDbPoint
 10
13.96172547809351
 20
6.048697946351122
  0
POINT
  5
1AE
100
AcDbEntity
  8
SPAWNS
  6
ByLayer
 62
  256
370
   -1
100
AcDbPoint
 10
13.96172547809351
 20
4.882653867309339
  0
POINT
  5
1AF
100
AcDbEntity
  8
SPAWNS
  6
ByLayer
 62
  256
370
   -1
100
AcDbPoint
 10
13.96172547809351
 20
4.401695266013685
  0
POINT
  5
1B0
100
AcDbEntity
  8
SPAWNS
  6
ByLayer
 62
  256
370
   -1
100
AcDbPoint
 10
13.21652194588593
 20
7.050566981637924
  0
POINT
  5
1B1
100
AcDbEntity
  8
SPAWNS
  6
ByLayer
 62
  256
370
   -1
100
AcDbPoint
 10
13.21498533693611
 20
6.529656547646776
  0
POINT
  5
1B2
100
AcDbEntity
  8
SPAWNS
  6
ByLayer
 62
  256
370
   -1
100
AcDbPoint
 10
13.21498533693611
 20
6.048697946351122
  0
POINT
  5
1B3
100
AcDbEntity
  8
SPAWNS
  6
ByLayer
 62
  256
370
   -1
100
AcDbPoint
 10
13.21498533693611
 20
4.882653867309339
  0
POINT
  5
1B4
100
AcDbEntity
  8
SPAWNS
  6
ByLayer
 62
  256
370
   -1
100
AcDbPoint
 10
13.21498533693611
 20
4.401695266013685
  0
LINE
  5
1B5
100
AcDbEntity
  8
OBSTACLES
  6
ByLayer
 62
  256
370
   -1
100
AcDbLine
 10
3.653217658929794
 20
5.439842232572327
 11
3.938802228729795
 21
5.17556993917233
  0
LINE
  5
1B6
100
AcDbEntity
  8
OBSTACLES
  6
ByLayer
 62
  256
370
   -1
100
AcDbLine
 10
3.938802228729795
 20
5.17556993917233
 11
4.28832365312979
 21
4.936872397772329
  0
LINE
  5
1B7
100
AcDbEntity
  8
OBSTACLES
  6
ByLayer
 62
  256
370
   -1
100
AcDbLine
 10
4.28832365312979
 20
4.936872397772329
 11
4.693257006329791
 21
4.723749582972327
  0
LINE
  5
1B8
100
AcDbEntity
  8
OBSTACLES
  6
ByLayer
 62
  256
370
   -1
100
AcDbLine
 10
4.693257006329791
 20
4.723749582972327
 11
5.162127188729794
 21
4.553251320972332
  0
LINE
  5
1B9
100
AcDbEntity
  8
OBSTACLES
  6
ByLayer
 62
  256
370
   -1
100
AcDbLine
 10
5.162127188729794
 20
4.553251320972332
 11
5.686409325329794
 21
4.391277984772326
  0
LINE
  5
1BA
100
AcDbEntity
  8
OBSTACLES
  6
ByLayer
 62
  256
370
   -1
100
AcDbLine
 10
5.686409325329794
 20
4.391277984772326
 11
6.270365840929788
 21
4.271929201372326
  0
LINE
  5
1BB
100
AcDbEntity
  8
OBSTACLES
  6
ByLayer
 62
  256
370
   -1
100
AcDbLine
 10
6.270365840929788
 20
4.271929201372326
 11
6.913996735529796
 21
4.165367793972332
  0
LINE
  5
1BC
100
AcDbEntity
  8
OBSTACLES
  6
ByLayer
 62
  256
370
   -1
100
AcDbLine
 10
6.913996735529796
 20
4.165367793972332
 11
7.608777108729793
 21
4.101430939372331
  0
LINE
  5
1BD
100
AcDbEntity
  8
OBSTACLES
  6
ByLayer
 62
  256
370
   -1
100
AcDbLine
 10
7.608777108729793
 20
4.101430939372331
 11
8.367494336529791
 21
4.054543936372336
  0
LINE
  5
1BE
100
AcDbEntity
  8
OBSTACLES
  6
ByLayer
 62
  256
370
   -1
100
AcDbLine
 10
8.367494336529791
 20
4.054543936372336
 11
9.181623493129795
 21
4.04175656037233
  0
LINE
  5
1BF
100
AcDbEntity
  8
OBSTACLES
  6
ByLayer
 62
  256
370
   -1
100
AcDbLine
 10
35.22523147692979
 20
6.556605785172333
 11
34.0743682719298
 21
6.829402978972335
  0
LINE
  5
1C0
100
AcDbEntity
  8
OBSTACLES
  6
ByLayer
 62
  256
370
   -1
100
AcDbLine
 10
34.0743682719298
 20
6.829402978972335
 11
32.9021927905298
 21
7.038263343572335
  0
LINE
  5
1C1
100
AcDbEntity
  8
OBSTACLES
  6
ByLayer
 62
  256
370
   -1
100
AcDbLine
 10
32.9021927905298
 20
7.038263343572335
 11
31.72149238332979
 21
7.195974229572324
  0
LINE
  5
1C2
100
AcDbEntity
  8
OBSTACLES
  6
ByLayer
 62
  256
370
   -1
100
AcDbLine
 10
31.72149238332979
 20
7.195974229572324
 11
30.52800462552979
 21
7.29827318677233
  0
LINE
  5
1C3
100
AcDbEntity
  8
OBSTACLES
  6
ByLayer
 62
  256
370
   -1
100
AcDbLine
 10
30.52800462552979
 20
7.29827318677233
 11
29.33025441752979
 21
7.357947565772331
  0
LINE
  5
1C4
100
AcDbEntity
  8
OBSTACLES
  6
ByLayer
 62
  256
370
   -1
100
AcDbLine
 10
29.33025441752979
 20
7.357947565772331
 11
28.11545435792979
 21
7.379259842172327
  0
LINE
  5
1C5
100
AcDbEntity
  8
OBSTACLES
  6
ByLayer
 62
  256
370
   -1
100
AcDbLine
 10
28.11545435792979
 20
7.379259842172327
 11
26.90917922412979
 21
7.38778476797233
  0
LINE
  5
1C6
100
AcDbEntity
  8
OBSTACLES
  6
ByLayer
 62
  256
370
   -1
100
AcDbLine
 10
35.22523147692979
 20
4.868673092972325
 11
34.0743682719298
 21
4.604400799572328
  0
LINE
  5
1C7
100
AcDbEntity
  8
OBSTACLES
  6
ByLayer
 62
  256
370
   -1
100
AcDbLine
 10
34.0743682719298
 20
4.604400799572328
 11
32.9021927905298
 21
4.382753058972322
  0
LINE
  5
1C8
100
AcDbEntity
  8
OBSTACLES
  6
ByLayer
 62
  256
370
   -1
100
AcDbLine
 10
32.9021927905298
 20
4.382753058972322
 11
31.72149238332979
 21
4.233567098772336
  0
LINE
  5
1C9
100
AcDbEntity
  8
OBSTACLES
  6
ByLayer
 62
  256
370
   -1
100
AcDbLine
 10
31.72149238332979
 20
4.233567098772336
 11
30.52800462552979
 21
4.139793067372319
  0
LINE
  5
1CA
100
AcDbEntity
  8
OBSTACLES
  6
ByLayer
 62
  256
370
   -1
100
AcDbLine
 10
30.52800462552979
 20
4.139793067372319
 11
29.33025441752979
 21
4.080118662972334
  0
LINE
  5
1CB
100
AcDbEntity
  8
OBSTACLES
  6
ByLayer
 62
  256
370
   -1
100
AcDbLine
 10
29.33025441752979
 20
4.080118662972334
 11
28.11545435792979
 21
4.050281486172334
  0
LINE
  5
1CC
100
AcDbEntity
  8
OBSTACLES
  6
ByLayer
 62
  256
370
   -1
100
AcDbLine
 10
28.11545435792979
 20
4.050281486172334
 11
26.90917922412979
 21
4.04175656037233
  0
LINE
  5
1CD
100
AcDbEntity
  8
OBSTACLES
  6
ByLayer
 62
  256
370
   -1
100
AcDbLine
 10
36.4698687133298
 20
5.277868896372321
 11
36.4698687133298
 21
6.151672431972325
  0
LWPOLYLINE
  5
1CE
100
AcDbEntity
  8
exit
  6
ByLayer
 62
  256
370
   -1
100
AcDbPolyline
 90
    4
 70
    1
 43
0
 10
8.114117809671658
 20
6.926159449707587
 10
7.813945953108259
 20
6.926159449707587
 10
7.813945953108259
 20
7.330236948927551
 10
8.114117809671658
 20
7.330236948927551
  0
ENDSEC
  0
SECTION
  2
OBJECTS
  0
DICTIONARY
  5
C
330
0
100
AcDbDictionary
281
    1
  3
ACAD_GROUP
350
D
  0
DICTIONARY
  5
D
330
C
100
AcDbDictionary
281
    1
  0
PLOTSETTINGS
  5
1CF
100
AcDbPlotSettings
  6
1x1
 40
0
 41
0
 42
0
 43
0
  0
ENDSEC
  0
EOF
